<svg xmlns="http://www.w3.org/2000/svg" width="26.749" height="58.945" viewBox="0 0 26.749 58.945">
  <g id="Group_1431" data-name="Group 1431" transform="translate(-2516.972 -1636.198)">
    <g id="doctor" transform="translate(2516.972 1643.844)">
      <path id="Path_3573" data-name="Path 3573" d="M118.56,311.134a23,23,0,0,1-3.136-.384c-.133-.022-.166-.106-.186-.215-.289-1.609-.581-3.213-.825-4.825-.222-1.469-.441-2.941-.606-4.417q-.215-1.93-.393-3.843c-.157-1.732-.294-3.467-.393-5.2-.022-.077.017-.121.082-.15.179.027.217.183.275.314.644,1.447,1.252,2.931,1.874,4.4.468,1.1.936,2.2,1.428,3.334.35-.434.625-.885.929-1.317.919-1.3,1.826-2.613,2.741-3.918a.525.525,0,0,1,.15-.159.15.15,0,0,1,.092,0c.386.483.724,1,1.071,1.5.7.965,1.353,1.961,2.046,2.929.055.077.128.145.109.253a13.194,13.194,0,0,0-.965,2.007,8.7,8.7,0,0,0-.6,3.1,20.765,20.765,0,0,0,.193,2.219c.053.35,0,.43-.331.463a2.432,2.432,0,0,1-1.976-.352,1.2,1.2,0,0,1-.166-.335.948.948,0,0,0-.482-.5.381.381,0,0,0-.466.041.425.425,0,0,0-.068.521.91.91,0,0,0,.724.482,1.23,1.23,0,0,1,.241.019,3.006,3.006,0,0,0,2.2.4c.386-.058.482,0,.591.379a4.313,4.313,0,0,0,1.033,1.846,1.317,1.317,0,0,0,.463.755.456.456,0,0,0,.622.039.437.437,0,0,0,0-.618,1.206,1.206,0,0,0-.849-.408,2.082,2.082,0,0,1-.668-.854,6.093,6.093,0,0,1-.359-.936c-.084-.28-.034-.367.241-.482a13.2,13.2,0,0,0,3.481-2.111c.147-.118.268-.265.408-.391.068-.06.113-.159.241-.128-.109.946-.207,1.891-.333,2.835s-.282,1.879-.415,2.823a.4.4,0,0,1-.379.4,28.854,28.854,0,0,1-4.383.552h-.345a12.758,12.758,0,0,0-1.821,0,2.87,2.87,0,0,1-.837-.048.755.755,0,0,1,.413-.036A2.929,2.929,0,0,0,118.56,311.134Z" transform="translate(-107.223 -259.916)" fill="#f42072"/>
      <path id="Path_3574" data-name="Path 3574" d="M170.979,309.885c-.058-.019-.082-.075-.176-.072s-.222-.2-.15-.277c.181-.205.123-.432.133-.656,0-.152,0-.3.205-.321.113-.012.07-.092.072-.164,0-.557.031-1.11,0-1.667a1.063,1.063,0,0,1,.212-.9c.077-.08.041-.188.043-.292,0-.171-.171-.444.193-.482,0,0,.034-.041.029-.048-.2-.331.352-.461.21-.777.343-.125.311-.482.456-.738s.434-.408.256-.757c-.051-.1.1-.2.142-.3s.193-.241.186-.355c-.027-.391.258-.685.282-1.04a.912.912,0,0,0-.1-.707.772.772,0,0,1-.164-.567.292.292,0,0,0-.174-.28c-.128-.077-.121.111-.207.133a2.1,2.1,0,0,1-.639-.849,3.182,3.182,0,0,0-.147-.847,1.354,1.354,0,0,1,.294-1.206c.3-.13.466-.326.328-.671-.022-.058-.029-.121.08-.113.2.012.273-.1.282-.292a4.376,4.376,0,0,0-.068-.871,2.456,2.456,0,0,1,.048-.929c.034-.14-.162-.2-.109-.338.109-.174.292-.347-.075-.463-.174-.055-.142-.268-.166-.41s.171-.166.241-.159c.22.017.432-.043.654-.022a4.088,4.088,0,0,0,1.206.176c.2-.039.335.036.311.277-.012.147.109.094.174.094.369,0,.724.014,1.1,0a.656.656,0,0,1,.439.2,1.854,1.854,0,0,1,.393.384.314.314,0,0,1,.043.343c-.355.608-.743,1.194-1.131,1.78a.331.331,0,0,0,.075.526c.545.441,1.042.943,1.58,1.394a.422.422,0,0,1,.128.509q-.56,1.824-1.281,3.587a25.876,25.876,0,0,1-2.352,4.514c-.806,1.218-1.689,2.381-2.6,3.52C171.174,309.822,171.109,309.914,170.979,309.885Z" transform="translate(-150.94 -260.175)" fill="#fefefe"/>
      <path id="Path_3575" data-name="Path 3575" d="M100.952,329.167a3.232,3.232,0,0,1-.709,1.124.61.61,0,0,1-.316.328,2.511,2.511,0,0,1-1.665.379c-.193-.058-.413-.031-.569-.2a2.567,2.567,0,0,1-1.534-1.766c-.022-.1-.024-.2-.039-.306a.948.948,0,0,0,0-.5v-.241c.075-.137-.041-.333.133-.441a2.589,2.589,0,0,1,1.419-1.4c.287-.292.668-.2,1.016-.241a1.712,1.712,0,0,1,.241.019,1.884,1.884,0,0,1,.965.429l.516.432c.077.051.157.1.166.2l.123.186a.268.268,0,0,1,.14.241,2.943,2.943,0,0,1,.142,1.689c.019.019.024.036.012.046a.036.036,0,0,1-.041.012Z" transform="translate(-94.404 -285.57)" fill="#01d7bb"/>
      <path id="Path_3576" data-name="Path 3576" d="M149.779,316.24l.569.825a4.531,4.531,0,0,1-.34,3.573,13.826,13.826,0,0,1-.791,1.339c-.053.092-.07.21-.191.241l-.065.07a11.763,11.763,0,0,1-4.125,2.7c-.138.056-.256.1-.2.287a4.642,4.642,0,0,0,.989,1.86c-.017.162-.154.227-.263.311a3.51,3.51,0,0,1-1.083-1.894.357.357,0,0,0-.483-.3,2.986,2.986,0,0,1-1.865-.183,2.069,2.069,0,0,1-.4-.241.483.483,0,0,1,.241-.345,2.69,2.69,0,0,0,2.135.316c.157-.024.137-.121.118-.241a15.479,15.479,0,0,1-.212-2.5,8.967,8.967,0,0,1,.6-2.929,8.716,8.716,0,0,1,1.025-2.07c-.031-.121.055-.2.116-.273a3.734,3.734,0,0,1,1.484-1.194,2.215,2.215,0,0,1,1.218-.126A2.719,2.719,0,0,1,149.779,316.24Z" transform="translate(-128.866 -277.622)" fill="#01d7bb"/>
      <path id="Path_3577" data-name="Path 3577" d="M106.718,304.705l-.924-.4c-.157-.171-.092-.4-.147-.6-.031-.113-.039-.241-.186-.256-.215-.029-.241-.181-.275-.362a11.7,11.7,0,0,1,.934-5.457c.048-.106.065-.253.241-.241a.415.415,0,0,1,.046.316c.294-.065.381.065.441.369s-.07.593-.031.866a4.165,4.165,0,0,0,.138,1.037.135.135,0,0,1-.017.171c-.034.036-.087.1,0,.109.446.043.212.364.21.557a1.854,1.854,0,0,0,.111,1.086,1.281,1.281,0,0,1,.087.762,3.7,3.7,0,0,0,.017,1.274.577.577,0,0,1-.169.483c.065.15.191-.106.217.046.022.113-.116.1-.188.121C107.054,304.645,106.885,304.671,106.718,304.705Z" transform="translate(-101.243 -263.936)" fill="#fefefe"/>
      <path id="Path_3578" data-name="Path 3578" d="M104.322,344.037a2.653,2.653,0,0,0,1.981-.635c.241.106.364-.113.526-.212.07.053.031.1,0,.133-.183.191-.106.263.121.28a.422.422,0,0,1,.415.579.413.413,0,0,0,.077.439.326.326,0,0,1,.087.258c0,.482-.014.948.017,1.421a1.481,1.481,0,0,0,.215.82,2.472,2.472,0,0,1,.265.765c.07.268-.147.355-.345.432-.036.205.318.219.224.456-.241,0-.335-.2-.461-.338-.446-.511-.89-1.025-1.315-1.556-.673-.842-1.31-1.71-1.93-2.6-.046-.065-.123-.138-.08-.222S104.252,344.01,104.322,344.037Z" transform="translate(-100.464 -298.681)" fill="#fefefe"/>
      <path id="Path_3579" data-name="Path 3579" d="M104.007,285.713A9.21,9.21,0,0,0,103,289.049a13.9,13.9,0,0,0-.089,2.413c0,.2.056.273.241.22.147-.041.205,0,.215.166,0,.261.046.521.07.779-.22.113-.454,0-.685.06a5.884,5.884,0,0,0-.6.137c-.022-.207-.043-.415-.07-.625s-.13-.446.241-.441c.164,0,.084-.166.082-.253a18,18,0,0,1,.1-2.574A9.751,9.751,0,0,1,106.511,282a.777.777,0,0,1-.077.762,2.161,2.161,0,0,0-.2.193,9.459,9.459,0,0,0-.724.7,1.851,1.851,0,0,0-.152.154,3.011,3.011,0,0,1-.584.644c-.027.041-.051.084-.077.128a1.948,1.948,0,0,0-.372.562.613.613,0,0,1-.212.372A.328.328,0,0,0,104.007,285.713Z" transform="translate(-98.896 -252.253)" fill="#343434"/>
      <path id="Path_3580" data-name="Path 3580" d="M170.021,313.819a13.178,13.178,0,0,0,1.259-1.554,27.725,27.725,0,0,0,3.235-5.18,35.376,35.376,0,0,0,1.747-4.528v-.031c.241-.789.241-.786-.362-1.305-.439-.371-.866-.753-1.305-1.122-.157-.133-.1-.253-.014-.384q.61-.948,1.226-1.9c.077-.051.046-.21.191-.193.031.2-.109.323-.191.47-.294.531-.591,1.059-.9,1.583a.287.287,0,0,0,.065.427c.531.482,1.047.965,1.575,1.448a.444.444,0,0,1,.154.519,45.627,45.627,0,0,1-1.549,4.371,26.881,26.881,0,0,1-3.334,5.633,15.363,15.363,0,0,1-1.966,2.316,1.129,1.129,0,0,1-.482.311C169.573,314.345,169.872,314.135,170.021,313.819Z" transform="translate(-149.982 -264.108)" fill="#d9d9d9"/>
      <path id="Path_3581" data-name="Path 3581" d="M169.24,289.6c-.241-.142-.483-.287-.724-.422a2.91,2.91,0,0,0-.789-.27c0-.289.256-.371.454-.458a.637.637,0,0,0,.381-.456,8.605,8.605,0,0,0,.222-4.369,5.065,5.065,0,0,0-.4-1.1c-.046-.094-.087-.191-.14-.28a8.513,8.513,0,0,0-.965-1.252c-.055-.227-.186-.461.046-.668a6.183,6.183,0,0,1,1.836,2.538,8.138,8.138,0,0,1,.154,4.538.726.726,0,0,0,0,.125c-.089.311-.179.622-.273.931a.22.22,0,0,0,.017.207,1.3,1.3,0,0,1,.183.934Z" transform="translate(-148.328 -250.986)" fill="#333434"/>
      <path id="Path_3582" data-name="Path 3582" d="M90.85,304.775c-.046.147-.089.294-.133.441a4.131,4.131,0,0,0-.449-1.194c-.434-1.042-.823-2.1-1.228-3.155a.345.345,0,0,1,.113-.434c.519-.482,1.018-.992,1.544-1.469.2-.183.179-.309.043-.524-.374-.591-.724-1.206-1.071-1.807a.156.156,0,0,1,.043-.241c.193-.142.374-.3.56-.454.072-.046.123-.046.121.06-.145.118-.285.241-.437.355s-.084.186-.017.294c.393.615.77,1.242,1.185,1.843a.29.29,0,0,1-.039.446c-.511.523-1.016,1.052-1.522,1.58-.082.087-.171.15-.133.316a21.186,21.186,0,0,0,1.322,3.809A.507.507,0,0,0,90.85,304.775Z" transform="translate(-89.006 -262.807)" fill="#dadada"/>
      <path id="Path_3583" data-name="Path 3583" d="M103.171,346.313c-.027.051-.241-.06-.113.118.5.695.994,1.394,1.513,2.077s1.09,1.373,1.672,2.029a3.639,3.639,0,0,0,.509.511c.089.261.364.386.523.683a2.59,2.59,0,0,1-.671-.483,25.844,25.844,0,0,1-3.86-4.75,2.634,2.634,0,0,1-.154-.309Z" transform="translate(-99.313 -300.957)" fill="#d9d9d9"/>
      <path id="Path_3584" data-name="Path 3584" d="M140.48,371.012a1.467,1.467,0,0,1,.736-.051,3.289,3.289,0,0,1,1.086.048C141.693,371.038,141.088,371.04,140.48,371.012Z" transform="translate(-128.062 -319.733)" fill="#62b7a6"/>
      <path id="Path_3585" data-name="Path 3585" d="M195.064,296.052l-.191.193c.075-.191-.053-.311-.157-.437s-.15-.171-.227-.258C194.758,295.632,194.89,295.866,195.064,296.052Z" transform="translate(-169.042 -262.534)" fill="#e2e2e2"/>
      <path id="Path_3586" data-name="Path 3586" d="M94.381,295.048c-.024-.051-.07-.058-.121-.06a1.531,1.531,0,0,1,.519-.347A1.366,1.366,0,0,1,94.381,295.048Z" transform="translate(-92.992 -261.844)" fill="#edecec"/>
      <path id="Path_3587" data-name="Path 3587" d="M115.18,331.291l-.14-.241c.075.1.193-.121.241.026C115.325,331.161,115.255,331.235,115.18,331.291Z" transform="translate(-108.759 -289.45)" fill="#fefefe"/>
      <path id="Path_3588" data-name="Path 3588" d="M136,370.794a1.1,1.1,0,0,1,.692-.012l-.456.024Z" transform="translate(-124.663 -319.576)" fill="#5db7a6"/>
      <path id="Path_3589" data-name="Path 3589" d="M110.61,295.4a1.057,1.057,0,0,1,.212-.371C110.912,295.247,110.76,295.324,110.61,295.4Z" transform="translate(-105.398 -262.14)" fill="#fefefe"/>
      <path id="Path_3590" data-name="Path 3590" d="M177.676,296.4c-.1-.123,0-.207.043-.34C177.864,296.219,177.758,296.3,177.676,296.4Z" transform="translate(-156.252 -262.921)" fill="#fefefe"/>
      <path id="Path_3591" data-name="Path 3591" d="M172.57,342.821a.513.513,0,0,1,.191-.241C172.787,342.722,172.79,342.857,172.57,342.821Z" transform="translate(-152.41 -298.218)" fill="#fefefe"/>
      <path id="Path_3592" data-name="Path 3592" d="M96.02,335.51a.482.482,0,0,1,0,.5A1.242,1.242,0,0,1,96.02,335.51Z" transform="translate(-94.309 -292.854)" fill="#4f5052"/>
      <path id="Path_3593" data-name="Path 3593" d="M118.866,357.34a.147.147,0,1,1-.088.108A.147.147,0,0,1,118.866,357.34Z" transform="translate(-111.593 -309.417)" fill="#fefefe"/>
      <path id="Path_3594" data-name="Path 3594" d="M114.006,329.682l-.166-.2C113.982,329.477,114.043,329.538,114.006,329.682Z" transform="translate(-107.849 -288.278)" fill="#fefefe"/>
      <path id="Path_3595" data-name="Path 3595" d="M116.15,338.977l.014-.063.154-.075c0,.024.022.055.012.075C116.295,339,116.218,338.973,116.15,338.977Z" transform="translate(-109.601 -295.381)" fill="#fefefe"/>
      <path id="Path_3596" data-name="Path 3596" d="M123.206,216.389a7.748,7.748,0,0,1-.364,3.252,2.445,2.445,0,0,1-1.206,1.573c-.538.2-.528.548-.564.965a10.372,10.372,0,0,1-.514,2.984c-.273.692-.654,1.334-.992,2a1.271,1.271,0,0,1-.176.427,15.259,15.259,0,0,1-1.276,1.79,3.04,3.04,0,0,1-1.807,1.115,11.539,11.539,0,0,1-4.06.092,3.836,3.836,0,0,1-2.2-1.3c-.528-.569-1.04-1.151-1.508-1.768a1.814,1.814,0,0,1-.241-.408c-.273-.432-.533-.871-.82-1.293a6.114,6.114,0,0,1-.888-2.873c-.06-.519-.094-1.04-.138-1.561a1.272,1.272,0,0,1-.022-.4c-.053.092.043.241-.036.384a1.271,1.271,0,0,1-1.1-.661,5.416,5.416,0,0,1-.907-2.895,7.813,7.813,0,0,1,.06-1.592.845.845,0,0,1,.965-.924.193.193,0,0,1,.113.171.482.482,0,0,0,.35.482,8.559,8.559,0,0,1,.352,1.879,1.446,1.446,0,0,0,.046.3c.1.171-.043.352.051.526-.113-.174.072-.359-.055-.531,0-.1-.051-.191,0-.287.1-.041.125.043.157.1a1.673,1.673,0,0,1,.111.294,1.529,1.529,0,0,0,1.274,1.153,5.358,5.358,0,0,0,1.09.123,3.283,3.283,0,0,0,1.206,0,5.128,5.128,0,0,0,1.725-.311,1.1,1.1,0,0,0,.62-.548,4.955,4.955,0,0,0,.516-2.5c0-.352.029-.425.381-.466a3.874,3.874,0,0,1,.965,0c.34.043.415.123.405.482a5.875,5.875,0,0,0,.347,2.1,1.5,1.5,0,0,0,1.146,1.054,5.416,5.416,0,0,0,1.334.193,3.646,3.646,0,0,0,1.334,0,4.639,4.639,0,0,0,1.271-.193,1.4,1.4,0,0,0,.936-.861,7.365,7.365,0,0,0,.444-1.829c.048-.345.128-.666.509-.8a.241.241,0,0,0,.14-.2.265.265,0,0,1,.311-.2A.837.837,0,0,1,123.206,216.389Z" transform="translate(-100.658 -201.642)" fill="#e9bc97"/>
      <path id="Path_3597" data-name="Path 3597" d="M104.642,172.388a.973.973,0,0,0-.929.893,8.924,8.924,0,0,1-.314-2.229,2.229,2.229,0,0,0,0-.77,3.676,3.676,0,0,0,0-1.054c.113-2.8.649-5.459,2.521-7.674a7.82,7.82,0,0,1,4.687-2.608,12.329,12.329,0,0,1,6.6.446,8.34,8.34,0,0,1,2.859,1.846,9.865,9.865,0,0,1,1.93,3.221,17.269,17.269,0,0,1,.885,6.031,13.633,13.633,0,0,1-.282,2.569,3.727,3.727,0,0,1-.123.384c-.113-.386-.205-.791-.69-.89a9.678,9.678,0,0,0-1.045-.241c-.128,0-.169-.14-.21-.241-.138-.606-.174-1.226-.28-1.833a13.6,13.6,0,0,0-.806-3.168,4.342,4.342,0,0,0-1.447-1.9,1.467,1.467,0,0,0-1.03-.273c-.772.07-1.549.116-2.323.159s-1.612.08-2.412.118a1.811,1.811,0,0,1-.47-.029,12.035,12.035,0,0,0-2.022,0c-.458.046-.919.053-1.378.089a2.685,2.685,0,0,0-2.241,1.351,3.672,3.672,0,0,0-.615,2.171c.055.876.012,1.759.014,2.639v.591a.343.343,0,0,1-.335.4A1.419,1.419,0,0,1,104.642,172.388Z" transform="translate(-99.927 -158.696)" fill="#232625" opacity="0.81"/>
      <path id="Path_3598" data-name="Path 3598" d="M120.68,264.24c.4.482.774.987,1.194,1.447a5.123,5.123,0,0,0,2.335,1.831,8.823,8.823,0,0,0,2.987.2,12.977,12.977,0,0,0,1.4-.157,3.407,3.407,0,0,0,2.157-1.505c.427-.572.8-1.175,1.192-1.768.089.162,0,.326,0,.483,0,1.054-.017,2.111.046,3.163a.784.784,0,0,0,.048.178,1.25,1.25,0,0,0,.024.7,1.018,1.018,0,0,1,.21.5c-.06.159-.212.227-.335.318-.813.6-1.621,1.194-2.437,1.783a.5.5,0,0,1-.275.14,6.23,6.23,0,0,1-1.156-.63c-1.855-1.081-3.722-2.14-5.57-3.233-.533-.314-1.083-.593-1.6-.929-.087-.056-.188-.1-.217-.212Z" transform="translate(-113.039 -238.778)" fill="#b78771"/>
      <path id="Path_3599" data-name="Path 3599" d="M119.947,273.89l5.831,3.4c.9.526,1.809,1.049,2.714,1.573,0,.13-.116.193-.207.261-.8.584-1.6,1.175-2.412,1.754-.065.046-.128.113-.224.08h-.068a.781.781,0,0,1-.466-.241c-1.739-1.281-3.493-2.54-5.223-3.836-.084-.065-.217-.1-.181-.258.241-.212.135-.514.193-.772C119.925,275.2,119.935,274.544,119.947,273.89Z" transform="translate(-112.299 -246.1)" fill="#e9bc97"/>
      <path id="Path_3600" data-name="Path 3600" d="M103.266,202.35a4.246,4.246,0,0,1,.055,1.223.965.965,0,0,1-.055.6A9.8,9.8,0,0,1,103.266,202.35Z" transform="translate(-99.794 -191.818)" fill="#1b181a" opacity="0.47"/>
      <path id="Path_3601" data-name="Path 3601" d="M112.79,239.1v-.429h.051v.444Z" transform="translate(-107.052 -219.376)" fill="#d9c5ac"/>
      <ellipse id="Ellipse_203" data-name="Ellipse 203" cx="0.017" cy="1.054" rx="0.017" ry="1.054" transform="translate(23.014 10.478)" fill="#89cfd0"/>
      <path id="Path_3602" data-name="Path 3602" d="M114.884,285.21c.528.483,1.124.861,1.689,1.283,1.387,1.023,2.784,2.034,4.176,3.049-.55.8-1.093,1.609-1.648,2.412-.685.987-1.38,1.969-2.072,2.953q-.064.08-.135.154c-.388-.893-.772-1.759-1.144-2.632-.5-1.172-.989-2.352-1.486-3.53-.241-.577-.482-1.155-.743-1.73-.043-.1-.075-.222-.191-.277l.555-.7a.457.457,0,0,0,.191-.154c.258-.186.437-.458.688-.656A.171.171,0,0,1,114.884,285.21Z" transform="translate(-107.462 -254.689)" fill="#e50a5f"/>
      <path id="Path_3603" data-name="Path 3603" d="M144.38,289.605l2.835-2.094,3.011-2.2c.092-.036.138.034.171.092a5.856,5.856,0,0,0,.548.625,2.86,2.86,0,0,0,.183.241,3.251,3.251,0,0,1,.422,1.083,5.546,5.546,0,0,1-.55,1.462c-.461,1.076-.907,2.159-1.373,3.235a1.843,1.843,0,0,1-.456.777,4.072,4.072,0,0,0-1.583,1.382,6.719,6.719,0,0,1-.91-1.221c-.724-1-1.419-2.026-2.121-3.047A.7.7,0,0,1,144.38,289.605Z" transform="translate(-131.021 -254.756)" fill="#e50a5f"/>
      <path id="Path_3604" data-name="Path 3604" d="M157.4,364.274a.519.519,0,0,1,.263-.311,1.016,1.016,0,0,1,1,.526.453.453,0,0,1-.048.581.458.458,0,0,1-.574.1A1.008,1.008,0,0,1,157.4,364.274Z" transform="translate(-140.9 -314.438)" fill="#181c1d"/>
      <path id="Path_3605" data-name="Path 3605" d="M138.2,349.99a.511.511,0,0,1-.241.345.965.965,0,0,1-.984-.466.485.485,0,0,1,.671-.7A1.093,1.093,0,0,1,138.2,349.99Z" transform="translate(-125.291 -303.114)" fill="#181c1e"/>
      <path id="Path_3606" data-name="Path 3606" d="M102.7,333.913a1.1,1.1,0,0,1-1.124-1.1,1.127,1.127,0,1,1,1.124,1.1Z" transform="translate(-98.545 -289.933)" fill="#00b59d"/>
      <path id="Path_3607" data-name="Path 3607" d="M154.786,324A4.234,4.234,0,0,1,157.638,325a2.082,2.082,0,0,1,.241.241c.154.229.053.483.024.7a6.5,6.5,0,0,1-.27,1.812,4.3,4.3,0,0,1-1.286,1.479,11.934,11.934,0,0,1-2.866,1.754c-.446.2-.449.191-.533-.3a10.185,10.185,0,0,1-.164-2.275,9.336,9.336,0,0,1,1.317-4.236.6.6,0,0,1,.111-.109c.2-.036.2.2.352.241C154.651,324.215,154.649,324.056,154.786,324Z" transform="translate(-137.391 -284.116)" fill="#f42072"/>
      <path id="Path_3608" data-name="Path 3608" d="M164.24,299.241c.707-1.479,1.293-3.008,1.949-4.507.142-.323.287-.647.429-.965a7.373,7.373,0,0,1,.048,3.426c-.072.4-.2.794-.292,1.189a.345.345,0,0,1-.275.3,1,1,0,0,0-.6.429A2.546,2.546,0,0,0,164.24,299.241Z" transform="translate(-146.09 -261.184)" fill="#f42072"/>
      <path id="Path_3609" data-name="Path 3609" d="M164.626,319.739c-.1.072-.154-.012-.215-.06a4.584,4.584,0,0,0-2.791-.965c.031-.229.224-.4.241-.627a2.146,2.146,0,0,1,2.782.128c.036.029.043.092.065.14A1.93,1.93,0,0,1,164.626,319.739Z" transform="translate(-144.102 -279.288)" fill="#f42072"/>
      <path id="Path_3610" data-name="Path 3610" d="M172.87,331.744l.241-2.514h.029c.651.55.671.62.345,1.39A3.876,3.876,0,0,1,172.87,331.744Z" transform="translate(-152.638 -288.089)" fill="#fcfcfc"/>
      <path id="Path_3611" data-name="Path 3611" d="M174.08,322.038q.046-.692.092-1.378a1.026,1.026,0,0,1,.442.579,2.321,2.321,0,0,1,.147,1.568C174.543,322.51,174.225,322.351,174.08,322.038Z" transform="translate(-153.556 -281.586)" fill="#fcfdfd"/>
      <path id="Path_3612" data-name="Path 3612" d="M160.97,319.55c.039,0,.1.029.08.065-.113.186-.142.422-.331.562-.1,0-.241.058-.28-.053s.1-.166.166-.241C160.719,319.767,160.849,319.659,160.97,319.55Z" transform="translate(-143.201 -280.744)" fill="#e50a5f"/>
      <path id="Path_3613" data-name="Path 3613" d="M159.3,323.974l-.181.463c-.2-.082-.224-.311-.393-.4C158.911,323.914,159.111,323.994,159.3,323.974Z" transform="translate(-141.909 -284.095)" fill="#e50a5f"/>
      <path id="Path_3614" data-name="Path 3614" d="M116.9,285.92a2.074,2.074,0,0,1-.68.692.048.048,0,0,1-.08,0A2.423,2.423,0,0,1,116.9,285.92Z" transform="translate(-109.594 -255.227)" fill="#aedadb"/>
      <path id="Path_3615" data-name="Path 3615" d="M115.768,288.76h.08c-.06.051-.072.178-.2.118Z" transform="translate(-109.222 -257.382)" fill="#84bebe"/>
      <path id="Path_3616" data-name="Path 3616" d="M168.778,284.521a3.442,3.442,0,0,1-.707-.767,1.858,1.858,0,0,1-.171-.5,4.1,4.1,0,0,1,.951,1.192C168.872,284.514,168.838,284.531,168.778,284.521Z" transform="translate(-148.867 -253.202)" fill="#85c9c9"/>
      <path id="Path_3617" data-name="Path 3617" d="M171.54,288.27l.072-.08a.413.413,0,0,1,.123.26A.366.366,0,0,1,171.54,288.27Z" transform="translate(-151.629 -256.95)" fill="#71adac"/>
      <path id="Path_3618" data-name="Path 3618" d="M124.541,211.786c.07.053.048.193.179.186a1.532,1.532,0,0,1,1,.3c-.077.027-.241-.034-.224.041.031.343-.241.364-.439.482s-.188.359-.22.567a7.906,7.906,0,0,1-.437,1.853,1.505,1.505,0,0,1-1.124.987,4.464,4.464,0,0,1-1.144.162h-1.382a5.79,5.79,0,0,1-1.423-.212,1.46,1.46,0,0,1-1.076-.965,5.214,5.214,0,0,1-.391-2.33c.017-.2-.027-.28-.227-.306a4.179,4.179,0,0,0-1.189,0c-.159.027-.217.063-.2.256a4.96,4.96,0,0,1-.482,2.591,1.206,1.206,0,0,1-.75.666,5.328,5.328,0,0,1-1.689.292c-.42-.036-.84,0-1.259,0a4.322,4.322,0,0,1-1.5-.258,1.37,1.37,0,0,1-.806-.825,3.878,3.878,0,0,0-.275-.69,9.837,9.837,0,0,1-.311-1.479.83.83,0,0,0-.152-.393c-.241,0-.4-.084-.359-.367a.265.265,0,0,0-.072-.258,1.279,1.279,0,0,1,.536-.113c.166-.027.256-.082.241-.275s0-.432,0-.649c.191.1.145.287.142.446,0,.241.1.323.33.287a21.319,21.319,0,0,1,3.329-.113,10.36,10.36,0,0,1,2.437.241,2.738,2.738,0,0,0,.593.063,20.565,20.565,0,0,0,3.2-.193,19.543,19.543,0,0,1,4.584-.036,3.691,3.691,0,0,0,.562.041Z" transform="translate(-103.865 -198.42)" fill="#22393f"/>
      <path id="Path_3619" data-name="Path 3619" d="M137.44,243.364a.644.644,0,0,1,.8-.109,1.4,1.4,0,0,0,1.346.027.724.724,0,0,1,.69-.048c.125.068.207.116.039.241-.413.285-.82.574-1.228.864a.222.222,0,0,1-.3-.017C138.349,243.979,137.9,243.675,137.44,243.364Z" transform="translate(-125.755 -222.784)" fill="#b88870"/>
      <path id="Path_3620" data-name="Path 3620" d="M110.34,218c.193.123.2.328.241.521.075.451.154.9.241,1.351v.318h0a4.057,4.057,0,0,1-.241-1.081C110.487,218.753,110.415,218.381,110.34,218Z" transform="translate(-105.193 -203.693)" fill="#2f2c27"/>
      <path id="Path_3621" data-name="Path 3621" d="M159,232.907a3.256,3.256,0,0,1,1.382,0A5.1,5.1,0,0,1,159,232.907Z" transform="translate(-142.114 -214.947)" fill="#14313a"/>
      <path id="Path_3622" data-name="Path 3622" d="M123,232.908a2.618,2.618,0,0,1,1.259,0A4.5,4.5,0,0,1,123,232.908Z" transform="translate(-114.799 -214.946)" fill="#153039"/>
      <path id="Path_3623" data-name="Path 3623" d="M112.1,227.12c.135.179.041.379.07.581-.224-.183-.051-.391-.068-.581Z" transform="translate(-106.491 -210.613)" fill="#b29077"/>
      <path id="Path_3624" data-name="Path 3624" d="M126.924,191.178c-.017.215-.179.135-.282.121a17.963,17.963,0,0,0-3.076-.123,11.7,11.7,0,0,0-2.844.3,1,1,0,0,1-.282.014,23.514,23.514,0,0,1-3.16-.164,18.482,18.482,0,0,0-5.172,0c-.241.031-.364,0-.338-.29a4.409,4.409,0,0,0-.029-.562c0-1.037-.022-2.075,0-3.112a3.268,3.268,0,0,1,2.895-3.112c.461,0,.922-.039,1.382-.06a16.531,16.531,0,0,1,2.075,0c1.481,0,2.955-.125,4.432-.217.345-.022.69-.053,1.035-.082a1.24,1.24,0,0,1,.854.35,4.69,4.69,0,0,1,1.558,2.205,16.647,16.647,0,0,1,.75,3.307C126.8,190.22,126.859,190.7,126.924,191.178Z" transform="translate(-106.248 -177.812)" fill="#e9bc97" opacity="0.81"/>
      <path id="Path_3625" data-name="Path 3625" d="M131.585,184.879c-.692.036-1.385.027-2.075,0,.113-.106.258-.063.384-.055A9.21,9.21,0,0,1,131.585,184.879Z" transform="translate(-119.738 -178.509)" fill="#1a1e1e" opacity="0.5"/>
      <path id="Path_3626" data-name="Path 3626" d="M151.918,219.93a4.825,4.825,0,0,1-1.517-.207.951.951,0,0,1-.613-.5,3.6,3.6,0,0,1-.454-1.87c.036-.606.265-.893.852-.982a16.017,16.017,0,0,1,4.323,0,.647.647,0,0,1,.56.483,2.877,2.877,0,0,1-.456,2.618.784.784,0,0,1-.454.268,4.006,4.006,0,0,1-1.361.2A2.511,2.511,0,0,0,151.918,219.93Z" transform="translate(-134.779 -202.344)" fill="#e9bc97"/>
      <path id="Path_3627" data-name="Path 3627" d="M116.072,219.911a4.339,4.339,0,0,1-.562-.036c-1.206-.188-1.628-.627-1.768-1.86a2.377,2.377,0,0,1,.1-1.175.724.724,0,0,1,.62-.5,16.673,16.673,0,0,1,4.231,0,.9.9,0,0,1,.89.982,3.455,3.455,0,0,1-.548,2.029.786.786,0,0,1-.482.335,4.375,4.375,0,0,1-1.421.22A3.964,3.964,0,0,0,116.072,219.911Z" transform="translate(-107.75 -202.328)" fill="#e9bc97"/>
      <path id="Path_3628" data-name="Path 3628" d="M123.5,231.352a2.01,2.01,0,0,1,1.069,0A5.106,5.106,0,0,1,123.5,231.352Z" transform="translate(-115.178 -213.769)" fill="#f6c09a"/>
      <path id="Path_3629" data-name="Path 3629" d="M160.05,231.357a1.343,1.343,0,0,1,.881,0A4.137,4.137,0,0,1,160.05,231.357Z" transform="translate(-142.911 -213.771)" fill="#fcc2a1"/>
      <path id="Path_3630" data-name="Path 3630" d="M121.623,213.671H120.13v-.031h1.486Z" transform="translate(-112.621 -200.385)" fill="#f4be9a"/>
    </g>
    <path id="Path_3675" data-name="Path 3675" d="M8.435,7.1H4.6a.417.417,0,0,0-.3.122L2.752,8.776H2.431a1.254,1.254,0,1,0,0,.836h.495a.417.417,0,0,0,.3-.122L4.77,7.94H8.435a1.241,1.241,0,0,0,2,.518l1.7.947a1.238,1.238,0,0,0-.021.206,1.254,1.254,0,1,0,2.507,0,1.238,1.238,0,0,0-.021-.206l1.7-.947a1.243,1.243,0,0,0,.825.318,1.251,1.251,0,0,0,.418-2.431V4.52a1.25,1.25,0,1,0-1.243-2.113l-1.7-.947a1.229,1.229,0,0,0,.021-.206,1.254,1.254,0,1,0-2.507,0,1.239,1.239,0,0,0,.021.206l-1.7.947a1.241,1.241,0,0,0-2,.518H4.77L3.221,1.376a.417.417,0,0,0-.3-.122H2.431a1.254,1.254,0,1,0,0,.836h.322L4.3,3.639a.417.417,0,0,0,.3.122H8.435a1.253,1.253,0,0,0,.759.759v.495H2.431a1.254,1.254,0,1,0,0,.836H9.194v.495a1.253,1.253,0,0,0-.759.759ZM1.254,9.612a.418.418,0,1,1,.418-.418A.419.419,0,0,1,1.254,9.612Zm0-7.522a.418.418,0,1,1,.418-.418A.419.419,0,0,1,1.254,2.09Zm0,3.761a.418.418,0,1,1,.418-.418A.419.419,0,0,1,1.254,5.851ZM9.612,7.94a.418.418,0,1,1,.418-.418A.419.419,0,0,1,9.612,7.94Zm.825-3.661,1.7.947a1.026,1.026,0,0,0,0,.412l-1.7.947a1.256,1.256,0,0,0-.407-.241V4.52A1.236,1.236,0,0,0,10.437,4.279Zm5.872,2.307-1.7-.947a1.026,1.026,0,0,0,0-.412l1.7-.947a1.256,1.256,0,0,0,.407.241V6.346A1.236,1.236,0,0,0,16.309,6.586Zm-5.464.73,1.7-.947a1.256,1.256,0,0,0,.407.241V8.436a1.245,1.245,0,0,0-.407.241l-1.7-.947a1.028,1.028,0,0,0,0-.412Zm2.528-2.3a.418.418,0,1,1-.418.418A.419.419,0,0,1,13.373,5.015Zm.418,1.595a1.244,1.244,0,0,0,.407-.241l1.7.947a1.026,1.026,0,0,0,0,.412l-1.7.947a1.256,1.256,0,0,0-.407-.241Zm2.11-3.06L14.2,4.5a1.256,1.256,0,0,0-.407-.241V2.43a1.244,1.244,0,0,0,.407-.241l1.7.947a1.248,1.248,0,0,0-.021.206A1.238,1.238,0,0,0,15.9,3.549Zm-2.946.707a1.245,1.245,0,0,0-.407.241l-1.7-.947a1.239,1.239,0,0,0,.021-.206,1.239,1.239,0,0,0-.021-.206l1.7-.947a1.256,1.256,0,0,0,.407.241Zm.418,5.774a.418.418,0,1,1,.418-.418A.419.419,0,0,1,13.373,10.03Zm3.761-2.09a.418.418,0,1,1,.418-.418A.419.419,0,0,1,17.135,7.94Zm0-5.015a.418.418,0,1,1-.418.418A.419.419,0,0,1,17.135,2.925ZM13.373.836a.418.418,0,1,1-.418.418A.419.419,0,0,1,13.373.836ZM9.612,2.925a.418.418,0,1,1-.418.418A.419.419,0,0,1,9.612,2.925Z" transform="translate(2535.892 1636.198) rotate(90)" fill="#f42072"/>
  </g>
</svg>
