<svg xmlns="http://www.w3.org/2000/svg" xmlns:xlink="http://www.w3.org/1999/xlink" width="289" height="108.997" viewBox="0 0 289 108.997">
  <defs>
    <linearGradient id="linear-gradient" x1="0.5" y1="1" x2="0.5" gradientUnits="objectBoundingBox">
      <stop offset="0" stop-color="gray" stop-opacity="0.251"/>
      <stop offset="0.535" stop-color="gray" stop-opacity="0.122"/>
      <stop offset="1" stop-color="gray" stop-opacity="0.102"/>
    </linearGradient>
    <linearGradient id="linear-gradient-2" x1="0.5" y1="1" x2="0.5" y2="0" xlink:href="#linear-gradient"/>
  </defs>
  <g id="Group_1765" data-name="Group 1765" transform="translate(-47 -96)">
    <text id="Dr._AI" data-name="Dr. AI" transform="translate(47 157)" fill="#fff" font-size="18" font-family="OpenSans-Semibold, Open Sans" font-weight="600" letter-spacing="0.05em"><tspan x="0" y="0">Dr. AI</tspan></text>
    <g id="Group_1417" data-name="Group 1417" transform="translate(178.84 96)">
      <path id="Path_3510" data-name="Path 3510" d="M62.03,126.488c5.263,6.691,3.218,16.466-.126,24.295-1.12,2.621-2.386,5.394-1.914,8.205.578,3.437,3.645,5.951,6.866,7.283a20.436,20.436,0,0,0,18.293-1.507c4.662-2.9,8-7.617,12.743-10.385,7.936-4.633,18.036-2.883,26.653.308,6.1,2.258,12.761,5.194,18.819,2.834,4.262-1.66,7.209-5.7,8.814-9.985.775-2.068,1.338-4.307,2.818-5.946a10.508,10.508,0,0,1,3.2-2.25c10.741-5.326,24.309-2.474,34.742-8.381,7.046-3.99,11.558-11.515,13.555-19.363s1.765-16.076,1.258-24.157c-.36-5.743-1.007-11.875-4.677-16.307-3.882-4.689-10.544-6.433-16.566-5.541s-11.48,4.068-16.282,7.809c-6,4.676-11.567,10.5-18.936,12.393-5.018,1.29-10.3.584-15.472.34-8.652-.408-17.308.5-25.912,1.495-8.237.952-16.534,2-24.381,4.68-5.553,1.9-10.005,5.338-15.249,7.743-3.418,1.568-7.145,2-10.381,4-3.987,2.459-7.641,6.737-6.62,11.743C54.249,120.549,59.236,122.936,62.03,126.488Z" transform="translate(-53.105 -65.366)" fill="#fff" opacity="0.4"/>
      <path id="Path_3511" data-name="Path 3511" d="M604.886,209.6s8.46-2.506,9.019,4.621-2.236,18.865,0,22.638,10.214,9.224,6.015,9.712-6.295,1.187-5.037,3.7,7.825,4.891,6.428,6.707-2.1,4.052-.7,6.288,6.288,3.633,5.45,5.17-3.913,2.376-2.375,4.052,5.993,5.491,4.254,5.47" transform="translate(-550.439 -189.074)" fill="none" stroke="#535461" stroke-miterlimit="10" stroke-width="3"/>
      <rect id="Rectangle_579" data-name="Rectangle 579" width="21.465" height="9.955" rx="4.978" transform="translate(40.276 15.774)" fill="#f42072"/>
      <rect id="Rectangle_580" data-name="Rectangle 580" width="18.043" height="0.187" transform="translate(41.987 24.201)" opacity="0.1"/>
      <rect id="Rectangle_581" data-name="Rectangle 581" width="18.043" height="6.844" transform="translate(41.987 17.329)" opacity="0.3"/>
      <ellipse id="Ellipse_192" data-name="Ellipse 192" cx="2.489" cy="2.489" rx="2.489" ry="2.489" transform="translate(53.342 18.405)" fill="#fff"/>
      <ellipse id="Ellipse_193" data-name="Ellipse 193" cx="2.489" cy="2.489" rx="2.489" ry="2.489" transform="translate(43.698 18.405)" fill="#fff"/>
      <rect id="Rectangle_582" data-name="Rectangle 582" width="3.733" height="2.178" transform="translate(49.142 25.729)" fill="#f42072"/>
      <rect id="Rectangle_583" data-name="Rectangle 583" width="15.555" height="12.444" transform="translate(43.231 27.284)" fill="#f42072"/>
      <rect id="Rectangle_584" data-name="Rectangle 584" width="16.177" height="1.555" transform="translate(42.92 42.217)" fill="#f42072"/>
      <path id="Path_3512" data-name="Path 3512" d="M723.489,326.554v7.155h-2.8v-9.333h2.8Z" transform="translate(-667.036 -279.048)" fill="#f42072"/>
      <path id="Path_3513" data-name="Path 3513" d="M783.6,324.376v9.333h-2.8v-9.333Z" transform="translate(-735.545 -279.048)" fill="#f42072"/>
      <path id="Path_3514" data-name="Path 3514" d="M676.935,280.656v2.877a4.208,4.208,0,0,1,2.068,1,4.891,4.891,0,0,1,1.231,1.805,9.171,9.171,0,0,1,.606,2.756,15.758,15.758,0,0,1-.172,3.7h3.111a21.242,21.242,0,0,0-.081-4.462,11.842,11.842,0,0,0-1-3.537,7.181,7.181,0,0,0-3.309-3.473A6.112,6.112,0,0,0,676.935,280.656Z" transform="translate(-616.031 -250.572)" fill="#f42072"/>
      <rect id="Rectangle_585" data-name="Rectangle 585" width="2.8" height="2.178" transform="translate(53.653 45.328)" opacity="0.3"/>
      <rect id="Rectangle_586" data-name="Rectangle 586" width="2.8" height="2.8" transform="translate(53.653 49.372)" opacity="0.3"/>
      <rect id="Rectangle_587" data-name="Rectangle 587" width="2.8" height="0.933" transform="translate(53.653 53.727)" opacity="0.3"/>
      <rect id="Rectangle_588" data-name="Rectangle 588" width="2.8" height="2.178" transform="translate(45.253 45.328)" opacity="0.3"/>
      <rect id="Rectangle_589" data-name="Rectangle 589" width="2.8" height="2.8" transform="translate(45.253 49.372)" opacity="0.3"/>
      <rect id="Rectangle_590" data-name="Rectangle 590" width="2.8" height="0.933" transform="translate(45.253 53.727)" opacity="0.3"/>
      <path id="Path_3515" data-name="Path 3515" d="M708.921,280.656v2.877a4.208,4.208,0,0,1,2.068,1l.387-3.213A6.113,6.113,0,0,0,708.921,280.656Z" transform="translate(-648.017 -250.572)" opacity="0.3"/>
      <path id="Path_3516" data-name="Path 3516" d="M678.093,311.787a9.169,9.169,0,0,1,.606,2.756l2.857-.765a11.842,11.842,0,0,0-1-3.536Z" transform="translate(-613.889 -276.023)" opacity="0.3"/>
      <path id="Path_3517" data-name="Path 3517" d="M875.053,280.656v2.877a4.208,4.208,0,0,0-2.068,1,4.891,4.891,0,0,0-1.231,1.805,9.173,9.173,0,0,0-.606,2.756,15.762,15.762,0,0,0,.172,3.7h-3.111a21.234,21.234,0,0,1,.081-4.462,11.839,11.839,0,0,1,1-3.537,7.181,7.181,0,0,1,3.309-3.473A6.113,6.113,0,0,1,875.053,280.656Z" transform="translate(-833.941 -250.572)" fill="#f42072"/>
      <path id="Path_3518" data-name="Path 3518" d="M870.583,280.656v2.877a4.208,4.208,0,0,0-2.068,1l-.387-3.213A6.113,6.113,0,0,1,870.583,280.656Z" transform="translate(-829.471 -250.572)" opacity="0.3"/>
      <path id="Path_3519" data-name="Path 3519" d="M895.2,311.787a9.171,9.171,0,0,0-.606,2.756l-2.857-.765a11.84,11.84,0,0,1,1-3.537Z" transform="translate(-857.391 -276.023)" opacity="0.3"/>
      <rect id="Rectangle_591" data-name="Rectangle 591" width="3.733" height="0.258" transform="translate(49.142 25.729)" fill="#f42072" opacity="0.1"/>
      <path id="Path_3520" data-name="Path 3520" d="M852.874,276.485v5.21a1.085,1.085,0,0,0,.289-.738v-3.734A1.084,1.084,0,0,0,852.874,276.485Z" transform="translate(-809.919 -246.984)" opacity="0.1"/>
      <path id="Path_3521" data-name="Path 3521" d="M739.974,274.881v3.9a1.085,1.085,0,0,0,.29.66v-5.22A1.084,1.084,0,0,0,739.974,274.881Z" transform="translate(-681.244 -245.036)" opacity="0.1"/>
      <rect id="Rectangle_592" data-name="Rectangle 592" width="13.999" height="0.184" transform="translate(44.009 39.728)" opacity="0.1"/>
      <rect id="Rectangle_593" data-name="Rectangle 593" width="6.844" height="0.143" transform="translate(51.475 43.773)" opacity="0.1"/>
      <rect id="Rectangle_594" data-name="Rectangle 594" width="6.844" height="0.143" transform="translate(44.009 43.773)" opacity="0.1"/>
      <rect id="Rectangle_595" data-name="Rectangle 595" width="1.071" height="9.213" transform="translate(56.484 6.561)" fill="#f42072"/>
      <rect id="Rectangle_596" data-name="Rectangle 596" width="1.071" height="9.213" transform="translate(44.201 6.561)" fill="#f42072"/>
      <ellipse id="Ellipse_194" data-name="Ellipse 194" cx="1.214" cy="1.214" rx="1.214" ry="1.214" transform="translate(55.842 5.418)" opacity="0.1"/>
      <ellipse id="Ellipse_195" data-name="Ellipse 195" cx="1.214" cy="1.214" rx="1.214" ry="1.214" transform="translate(55.842 5.347)" fill="#f42072"/>
      <ellipse id="Ellipse_196" data-name="Ellipse 196" cx="1.214" cy="1.214" rx="1.214" ry="1.214" transform="translate(43.487 5.418)" opacity="0.1"/>
      <ellipse id="Ellipse_197" data-name="Ellipse 197" cx="1.214" cy="1.214" rx="1.214" ry="1.214" transform="translate(43.487 5.347)" fill="#f42072"/>
      <path id="Path_3522" data-name="Path 3522" d="M606.994,484.877a3.663,3.663,0,0,1,.756,1.744,8.594,8.594,0,0,0,3.215,4.521c1.164.863,2.726,1.818,2.45,3.106-.066.308-.24.595-.286.905-.2,1.343,1.855,2.05,2.649,3.226a3.931,3.931,0,0,1,.258,2.957,5.61,5.61,0,0,1-1.477,3.421,4.211,4.211,0,0,0-.781.745c-.422.655-.055,1.514-.439,2.185-.512.9-2.124.935-3.06.331a5.307,5.307,0,0,1-1.783-2.528,17.272,17.272,0,0,0-4.828-6.873c-2.233-1.757-5.482-3.12-5.865-5.677-.164-1.1.252-2.3-.384-3.264-.3-.457-.8-.795-1.143-1.231-1.013-1.3-.259-3.179,1.225-4.1C599.742,482.949,605.046,482.926,606.994,484.877Z" transform="translate(-537.031 -424.94)" fill="#dee3f3" opacity="0.5"/>
      <rect id="Rectangle_597" data-name="Rectangle 597" width="10.341" height="1.258" transform="translate(40.196 17.504) rotate(-162.649)" fill="#f42072"/>
      <path id="Path_3523" data-name="Path 3523" d="M822.056,461.588s5.411-1.082,6.854-2.525,7.936-3.968,8.658-2.164,9.74,7.936,3.607,9.019-14.43,1.443-16.234.721S822.056,461.588,822.056,461.588Z" transform="translate(-795.75 -401.647)" fill="#a8a8a8"/>
      <path id="Path_3524" data-name="Path 3524" d="M841.186,497.738c-6.133,1.082-14.43,1.443-16.234.721-1.374-.549-2.328-3.189-2.706-4.418l-.18.038s1.082,4.329,2.886,5.05,10.1.361,16.234-.721c1.77-.312,2.276-1.046,2.086-1.974C843.12,497.039,842.5,497.505,841.186,497.738Z" transform="translate(-795.76 -434.139)" opacity="0.2"/>
      <path id="Path_3525" data-name="Path 3525" d="M877.7,139.853a1.59,1.59,0,0,1,.448-.621c1.452-1.323,3.8-.922,5.6-1.731a2.4,2.4,0,0,1,1.292-.374c.63.1,1.215.816,1.764.5l-.039.12.039-.02-.4,1.23a4.468,4.468,0,0,1-.62,1.351,3.538,3.538,0,0,1-.856,5.885c-.019.041-.038.083-.056.124l-.052.022a4.132,4.132,0,0,0-.266.857,4.932,4.932,0,0,1,2.083,1.344l1.6-.055a5.24,5.24,0,0,0,2.879-.979l4.791-3.445a1.6,1.6,0,0,1,.918.406c.595-.62,1.1-1.268,1.057-1.647,0,0,2.228-4.17,3.038-2.085S899.4,145,899.4,145l-1.478,1.914a8.055,8.055,0,0,1,.11,1.015c-1.823,2.085-8.2,3.972-8.2,3.972l-.995.048-.006.049a3.384,3.384,0,0,1,.089.8c0,.038,0,.079,0,.119s0,.053,0,.079c-.051,3.326-.506,13.5-.506,13.5-.089-.04-.18-.076-.273-.11l.071.9a41.02,41.02,0,0,1,7.394,1.787c3.14,1.192,3.241,2.582,3.241,2.582v12.266c.9.46,2.312,1.065,3.039.741.789-.351,1.221-.056,1.3.252h0a.391.391,0,0,1,0,.185v0a.333.333,0,0,1-.03.079l0,.006a.314.314,0,0,1-.054.07c-.3.3-6.887,2.88-8.406,2.482a1.053,1.053,0,0,1-.138-.046c-.015-.006-.028-.014-.042-.021s-.057-.026-.083-.042-.03-.02-.045-.03-.046-.03-.067-.047-.028-.025-.042-.038-.039-.034-.058-.053-.025-.029-.038-.044-.035-.039-.051-.06-.022-.032-.033-.048-.031-.044-.045-.068-.018-.033-.028-.05-.027-.05-.04-.076-.015-.034-.023-.052-.024-.055-.035-.084-.012-.034-.018-.052-.021-.061-.03-.092c0-.016-.009-.033-.014-.05-.009-.034-.018-.067-.026-.1l-.01-.046c-.008-.037-.015-.074-.022-.111,0-.014,0-.028-.007-.042-.006-.04-.012-.08-.018-.121l0-.035c-.005-.044-.01-.087-.013-.131,0-.009,0-.018,0-.028q-.005-.071-.009-.142c0-.006,0-.013,0-.019q0-.076,0-.152v-.01a8.314,8.314,0,0,1,.2-1.761h0l-.368-10.45a56.978,56.978,0,0,1-5.96-.22l-.218,4.986s0,3.277-1.114,4.766c-.953,1.275-2.055,6.912-2.353,8.512a2.833,2.833,0,0,0,2.556,1.716s2.565-.222,2.421.484h0a.363.363,0,0,1-.016.054l0,0a.492.492,0,0,1-.028.059l0,0c-.01.018-.022.037-.035.056l-.008.012c-.015.021-.031.042-.05.064l0,.005c-.017.02-.036.04-.056.061l-.017.017c-.023.023-.047.046-.074.071-1.317,1.192-9.014,1.39-9.014,1.39v-.027c0-.008,0-.017,0-.028v0a13.131,13.131,0,0,1,.511-3.516h-.107s1.114-10.029,2.026-11.22a52.8,52.8,0,0,0-.3-8.6l-.1-.036c-2.553-.954-2.735-3.3-2.472-5.028-.483.155-.769.262-.769.262s.009-.075.025-.208l-.025.009s.049-.315.129-.808a34.391,34.391,0,0,1,.913-4.834c.061-.245.119-.455.173-.614a10.5,10.5,0,0,0,.446-2.063,24.436,24.436,0,0,0,.156-2.735,26.245,26.245,0,0,0-.28-3.649,22,22,0,0,1-.282-3.094,4.122,4.122,0,0,1,.061-.872,2.041,2.041,0,0,1,1.353-1.277c.04-.016.081-.03.121-.045-.015-.235-.035-.5-.061-.781a.667.667,0,0,1-.516.1,1.222,1.222,0,0,1-.629-.491,9.814,9.814,0,0,1-2.164-3.621,7.825,7.825,0,0,1-.19-1.865q0-.051,0-.1A2.03,2.03,0,0,1,877.7,139.853Z" transform="translate(-863.411 -127.09)" fill="url(#linear-gradient)"/>
      <path id="Path_3526" data-name="Path 3526" d="M1006.7,186.1s-1.36,2.04-1.069,3.011-3.206.389-3.206.389-.1-3.789-.777-4.663S1006.7,186.1,1006.7,186.1Z" transform="translate(-984.235 -167.958)" fill="#f7c4a7"/>
      <path id="Path_3527" data-name="Path 3527" d="M895.795,168.738s2.817-2.331,2.72-3.206c0,0,2.137-4.08,2.914-2.04s-1.457,4.177-1.457,4.177l-2.72,3.594Z" transform="translate(-864.347 -149.289)" fill="#f7c4a7"/>
      <path id="Path_3528" data-name="Path 3528" d="M885.463,466.285s2.623,1.651,3.691,1.166,1.457.291,1.166.583-6.606,2.817-8.063,2.429-.716-3.571-.716-3.571Z" transform="translate(-851.149 -410.261)" fill="#535461"/>
      <path id="Path_3529" data-name="Path 3529" d="M983.16,514.641s.631,2.672,2.817,2.623c0,0,3.3-.291,2.04.874s-8.646,1.36-8.646,1.36,0-3.983,1.36-4.857A2.079,2.079,0,0,1,983.16,514.641Z" transform="translate(-962.738 -451.526)" fill="#535461"/>
      <path id="Path_3530" data-name="Path 3530" d="M995.074,373.8l-.291,6.8s0,3.206-1.069,4.663S991.382,394,991.382,394h-3.691s1.069-9.811,1.943-10.977c0,0,.389-8.646-.971-10.589Z" transform="translate(-970.669 -329.526)" fill="#575988"/>
      <path id="Path_3531" data-name="Path 3531" d="M995.074,373.8l-.291,6.8s0,3.206-1.069,4.663S991.382,394,991.382,394h-3.691s1.069-9.811,1.943-10.977c0,0,.389-8.646-.971-10.589Z" transform="translate(-970.669 -329.526)" opacity="0.1"/>
      <path id="Path_3532" data-name="Path 3532" d="M911.831,335.381s-2.234,5.343,1.846,6.9,11.463,1.36,11.463,1.36l.389,11.269s4.566.583,4.663-.874V341.7s-.1-1.36-3.109-2.526a38.7,38.7,0,0,0-7.091-1.749L919.8,334.9Z" transform="translate(-895.101 -297.232)" fill="#575988"/>
      <path id="Path_3533" data-name="Path 3533" d="M984.188,212.242a4.649,4.649,0,0,0-2.282.323,1.975,1.975,0,0,0-1.3,1.25,14.374,14.374,0,0,0,.212,3.685,25.385,25.385,0,0,1,.118,6.44,6.872,6.872,0,0,1-.428,2.018c-.583,1.069-1.166,6.12-1.166,6.12s6.411-2.429,9.617-.971c0,0,.437-9.957.486-13.212.038-2.52-3.157-5.391-4.226-5.489C984.6,212.348,984.81,212.306,984.188,212.242Z" transform="translate(-963.878 -191.693)" opacity="0.1"/>
      <path id="Path_3534" data-name="Path 3534" d="M984.188,210.852a4.649,4.649,0,0,0-2.282.323,1.975,1.975,0,0,0-1.3,1.25,14.373,14.373,0,0,0,.212,3.685,25.385,25.385,0,0,1,.118,6.44,10.444,10.444,0,0,1-.428,2.018c-.437,1.311-1.166,6.12-1.166,6.12s6.411-2.429,9.617-.971c0,0,.437-9.957.486-13.212.038-2.52-3.157-5.391-4.226-5.489C984.6,210.958,984.81,210.916,984.188,210.852Z" transform="translate(-963.878 -190.497)" fill="#00f3d4"/>
      <path id="Path_3535" data-name="Path 3535" d="M980.363,226.391l6.9-.389s.439-3.381-.557-3.347l-6.826.238A2.455,2.455,0,0,0,980.363,226.391Z" transform="translate(-961.787 -200.676)" opacity="0.1"/>
      <path id="Path_3536" data-name="Path 3536" d="M917.793,198.361l7.868-.389s6.12-1.846,7.869-3.886c0,0-.1-3.594-2.04-3.789l-4.6,3.37a4.962,4.962,0,0,1-2.761.958l-6.826.238A2.455,2.455,0,0,0,917.793,198.361Z" transform="translate(-899.217 -172.84)" fill="#00f3d4"/>
      <path id="Path_3537" data-name="Path 3537" d="M1002.471,187.131a2.667,2.667,0,0,0-.826-1.6c-.68-.874,5.051,1.263,5.051,1.263a10.307,10.307,0,0,0-.775,1.429,3.483,3.483,0,0,1-1.46.319C1003.617,188.54,1003.075,187.63,1002.471,187.131Z" transform="translate(-984.235 -168.556)" opacity="0.1"/>
      <ellipse id="Ellipse_198" data-name="Ellipse 198" cx="3.497" cy="3.497" rx="3.497" ry="3.497" transform="translate(16.73 12.892)" fill="#f7c4a7"/>
      <path id="Path_3538" data-name="Path 3538" d="M1001.562,145.555a3.867,3.867,0,0,0,.72-1.474l.387-1.2c-.526.311-1.088-.39-1.692-.487a2.265,2.265,0,0,0-1.239.366c-1.729.791-3.982.4-5.374,1.693a1.554,1.554,0,0,0-.43.607,2.031,2.031,0,0,0-.078.685,7.806,7.806,0,0,0,.182,1.824,9.643,9.643,0,0,0,2.076,3.543,1.176,1.176,0,0,0,.6.48c.5.112.887-.429,1.08-.9a9.613,9.613,0,0,0,.564-1.95,2.555,2.555,0,0,1,.231-.824,7.615,7.615,0,0,1,1.494-1.452C1000.53,146.054,1001.149,146.008,1001.562,145.555Z" transform="translate(-979.126 -131.617)" opacity="0.1"/>
      <path id="Path_3539" data-name="Path 3539" d="M1001.562,144.86a3.867,3.867,0,0,0,.72-1.474l.387-1.2c-.526.311-1.088-.39-1.692-.487a2.265,2.265,0,0,0-1.239.366c-1.729.791-3.982.4-5.374,1.693a1.553,1.553,0,0,0-.43.607,2.031,2.031,0,0,0-.078.685,7.806,7.806,0,0,0,.182,1.824,9.644,9.644,0,0,0,2.076,3.543,1.176,1.176,0,0,0,.6.48c.5.112.887-.429,1.08-.9a9.613,9.613,0,0,0,.564-1.95,2.555,2.555,0,0,1,.231-.824,7.615,7.615,0,0,1,1.494-1.452C1000.53,145.359,1001.149,145.313,1001.562,144.86Z" transform="translate(-979.126 -131.019)" fill="#632652"/>
      <ellipse id="Ellipse_199" data-name="Ellipse 199" cx="0.291" cy="0.631" rx="0.291" ry="0.631" transform="translate(19.013 16.146)" fill="#f7c4a7"/>
      <path id="Path_3540" data-name="Path 3540" d="M1001.246,306.045s.194.583,1.166.486,3.789-.291,3.789,0" transform="translate(-983.689 -272.413)" opacity="0.1"/>
      <path id="Path_3541" data-name="Path 3541" d="M988.024,538.869a.823.823,0,0,0,.283-.405c.025.126-.053.29-.283.5-1.263,1.166-8.646,1.36-8.646,1.36s0-.034,0-.1C979.426,540.228,986.765,540.031,988.024,538.869Z" transform="translate(-962.745 -472.354)" fill="#fff" opacity="0.5"/>
      <path id="Path_3542" data-name="Path 3542" d="M882.25,478.962c1.457.389,7.771-2.137,8.063-2.429a.316.316,0,0,0,.081-.142.349.349,0,0,1-.081.336c-.292.291-6.606,2.817-8.063,2.429-.75-.2-.917-1.14-.9-2.005C881.361,477.958,881.556,478.777,882.25,478.962Z" transform="translate(-851.142 -418.955)" fill="#fff" opacity="0.5"/>
      <path id="Path_3543" data-name="Path 3543" d="M167.193,333.786a41.7,41.7,0,0,0,.625-5.736h0a7.684,7.684,0,0,1,5.408-7.017c.552-.17,1.16-.328,1.831-.471,5.887-1.25,7.675-.159,7.878-.015a7.548,7.548,0,0,0,.446-.973c.01-.034.019-.069.029-.1a7.536,7.536,0,0,1-2.014-4.541,4.969,4.969,0,0,1-1.556-3.49,4.8,4.8,0,0,1,1.168-3.06v-1.755a7.644,7.644,0,0,1,7.644-7.644h.62a7.644,7.644,0,0,1,7.644,7.644v1.895a4.745,4.745,0,0,1,1.057,2.921,4.942,4.942,0,0,1-1.495,3.427,7.538,7.538,0,0,1-2.1,4.688c-.041.287-.084.6-.126.922l10.532,2.227s4.061.167,6.675,5.563c2.213,4.568,6.619,16.311,7.919,19.807h0c.236.634.369,1,.369,1s-.043-.044-.126-.118l.126.341s-.064-.065-.185-.171c.184,1.463.211,3.974-1.706,4.287-1.607.262-5.745.37-8.872.414v0h-.217c-2.072.028-3.649.028-3.649.028v-.028H171.5v-.345a2.318,2.318,0,0,1,.185-.911l-.047-.056a1.845,1.845,0,0,0-.349.809.806.806,0,0,0,.016.085l-.02-.051a.866.866,0,0,0,.02.274s-4.314-11.116-4.268-17.753a11.243,11.243,0,0,1,.158-2.092Zm26.891-11.81a7.712,7.712,0,0,0,.107-.959v-.009C194.153,321.321,194.118,321.644,194.084,321.976Zm13.069,23.876V348.5l1.661.355Z" transform="translate(-80.67 -266.334)" fill="url(#linear-gradient-2)"/>
      <path id="Path_3544" data-name="Path 3544" d="M301.4,241.263h0a7.644,7.644,0,0,0-7.644,7.644v3.261h15.289v-3.261a7.644,7.644,0,0,0-7.645-7.645Z" transform="translate(-192.938 -207.549)" fill="#f42072" stroke="#f42072" stroke-width="1"/>
      <ellipse id="Ellipse_200" data-name="Ellipse 200" cx="8.714" cy="5.987" rx="8.714" ry="5.987" transform="translate(99.699 39.701)" fill="#e14b5a"/>
      <path id="Path_3545" data-name="Path 3545" d="M358.745,422.311s-1.818,9.515,0,12.081-5.56,3.582-5.56,3.582l-7.644-2.78-1.069-6.843s4.651-2.619,3.689-7.912Z" transform="translate(-244.746 -370.822)" fill="#f7c4a7"/>
      <path id="Path_3546" data-name="Path 3546" d="M455.213,645.92s-.481,2.085,2.138,2.459a14.814,14.814,0,0,0,4.661-.056l.578-5.237H456.5Z" transform="translate(-363.773 -562.357)" fill="#f7c4a7"/>
      <path id="Path_3547" data-name="Path 3547" d="M188.807,625.809s1.157,4.7-1.463,5.128-12.242.428-12.242.428V625.8l4.356.93,4.09-3.924Z" transform="translate(-51.107 -544.914)" fill="#f7c4a7"/>
      <path id="Path_3548" data-name="Path 3548" d="M200.429,452.974l10.237,2.165s3.9.16,6.415,5.346,7.965,19.993,7.965,19.993-4.651-4.7-10.1.321l-3.635-6.575.8,10.424H183.938v-4.918s-5.88,3.154-5.453,4.918c0,0-5.032-12.965-3.95-18.857a40.069,40.069,0,0,0,.6-5.513h0a7.385,7.385,0,0,1,5.2-6.744c.53-.163,1.115-.316,1.76-.453,6.041-1.283,7.591,0,7.591,0a27.311,27.311,0,0,1,1.149,5.533c-.027,2.218,3.154,3.689,3.154,3.689s4.7-1.123,4.918-2.031S200.8,454.043,200.429,452.974Z" transform="translate(-86.992 -398.411)" opacity="0.1"/>
      <path id="Path_3549" data-name="Path 3549" d="M200.429,451.444l10.237,2.165s3.9.16,6.415,5.346,7.965,19.993,7.965,19.993-4.651-4.7-10.1.321l-3.635-6.575.8,10.424H183.938V478.2s-5.88,3.154-5.453,4.918c0,0-5.032-12.965-3.95-18.857a40.068,40.068,0,0,0,.6-5.513h0a7.385,7.385,0,0,1,5.2-6.744c.53-.163,1.115-.316,1.76-.453,6.041-1.283,7.591,0,7.591,0a27.311,27.311,0,0,1,1.149,5.533c-.027,2.219,3.154,3.689,3.154,3.689s4.7-1.123,4.918-2.031S200.8,452.513,200.429,451.444Z" transform="translate(-86.992 -397.095)" fill="#00f3d4"/>
      <path id="Path_3550" data-name="Path 3550" d="M347.681,427.679a7.236,7.236,0,0,0,.279-3.8l10.585,1.871s-.153.8-.325,2a7.269,7.269,0,0,1-10.538-.074Z" transform="translate(-244.706 -373.784)" opacity="0.1"/>
      <path id="Path_3551" data-name="Path 3551" d="M334.291,367.266a7.27,7.27,0,1,0,14.539.176q0-.088,0-.176a7.272,7.272,0,0,0-4.077-6.534q-.325-.159-.671-.287a7.322,7.322,0,0,0-3.745-.347h0a7.265,7.265,0,0,0-6.029,6.686Q334.291,367.023,334.291,367.266Z" transform="translate(-233.122 -318.825)" fill="#f7c4a7"/>
      <g id="Group_1416" data-name="Group 1416" transform="translate(101.185 41.438)" opacity="0.1">
        <path id="Path_3552" data-name="Path 3552" d="M334.3,364.395l-.01-.006a7.268,7.268,0,0,1,4.748,6.821c0,.059,0,.118,0,.176a1.615,1.615,0,0,1-.652-.157c-1.773-.827-2.836-3.358-3.253-5.123A2.682,2.682,0,0,0,334.3,364.395Z" transform="translate(-324.514 -364.041)"/>
        <path id="Path_3553" data-name="Path 3553" d="M367.679,362.463a7.211,7.211,0,0,1,1.807-.558,2.332,2.332,0,0,0-1.3.815,3.324,3.324,0,0,0-.4.708,7.29,7.29,0,0,1,6.115.127c-.457,1-1.872,1.546-2.816,1.911q-1.551.6-3.139,1.1l.935-.759-2.111.336a3.657,3.657,0,0,1,.147-1.244,13.271,13.271,0,0,1-1.38.712,5.579,5.579,0,0,0-1.613,2.382,1.539,1.539,0,0,1-.471.6A7.273,7.273,0,0,1,367.679,362.463Z" transform="translate(-363.457 -361.905)"/>
      </g>
      <path id="Path_3554" data-name="Path 3554" d="M334.3,363.219l-.01-.006a7.268,7.268,0,0,1,4.748,6.821c0,.059,0,.118,0,.176a1.614,1.614,0,0,1-.652-.157c-1.773-.827-2.836-3.358-3.253-5.123A2.682,2.682,0,0,0,334.3,363.219Z" transform="translate(-223.329 -321.592)" fill="#632652"/>
      <path id="Path_3555" data-name="Path 3555" d="M367.679,361.288a7.209,7.209,0,0,1,1.807-.558,2.332,2.332,0,0,0-1.3.815,3.325,3.325,0,0,0-.4.708,7.29,7.29,0,0,1,6.115.127c-.457,1-1.872,1.546-2.816,1.911q-1.551.6-3.139,1.1l.935-.759-2.111.336a3.657,3.657,0,0,1,.147-1.244,13.277,13.277,0,0,1-1.38.712,5.579,5.579,0,0,0-1.613,2.382,1.538,1.538,0,0,1-.471.6A7.273,7.273,0,0,1,367.679,361.288Z" transform="translate(-262.272 -319.456)" fill="#632652"/>
      <path id="Path_3556" data-name="Path 3556" d="M344.506,360.859s-7.484-9.3-16.144,0l.748-2.085s4.063-5.934,6.949-4.651,5.72,2.192,5.72,2.192Z" transform="translate(-227.968 -313.616)" opacity="0.1"/>
      <path id="Path_3557" data-name="Path 3557" d="M344.506,359.684s-7.484-9.3-16.144,0l.748-2.085s4.063-5.934,6.949-4.651,5.72,2.192,5.72,2.192Z" transform="translate(-227.968 -312.605)" fill="#f42072" stroke="#f42072" stroke-width="1"/>
      <path id="Path_3558" data-name="Path 3558" d="M276.1,545.726a10.355,10.355,0,0,1-.642,8.126c-2.245,3.849,1.978,5.453,1.978,5.453" transform="translate(-153.418 -478.601)" opacity="0.1"/>
      <path id="Path_3559" data-name="Path 3559" d="M466.5,518.182s-2.78,3.528-.962,6.682,1.711,10.745,1.711,10.745" transform="translate(-369.798 -454.906)" opacity="0.1"/>
      <path id="Path_3560" data-name="Path 3560" d="M244.21,600.1h-30.9a2.566,2.566,0,0,0-2.566,2.566h36.03a2.566,2.566,0,0,0-2.566-2.566Z" transform="translate(-119.065 -516.243)" fill="#535461"/>
      <path id="Path_3561" data-name="Path 3561" d="M250.422,473.857h-21.6a5.45,5.45,0,0,0-5.45,5.45v12.779h32.5V479.307A5.45,5.45,0,0,0,250.422,473.857Z" transform="translate(-129.925 -407.641)" fill="#535461"/>
      <ellipse id="Ellipse_201" data-name="Ellipse 201" cx="1.924" cy="1.924" rx="1.924" ry="1.924" transform="translate(107.798 74.208)" fill="#fff"/>
      <path id="Path_3562" data-name="Path 3562" d="M346.711,351.871s-7.356-7.352-15.289-.134" transform="translate(-230.6 -308.99)" fill="#f42072" stroke="#f42072" stroke-miterlimit="10" stroke-width="1" opacity="0.1"/>
      <rect id="Rectangle_598" data-name="Rectangle 598" width="0.739" height="4.186" transform="translate(98.963 42.413)" fill="#6a5c99"/>
      <path id="Path_3563" data-name="Path 3563" d="M406.682,322.9h0a2.545,2.545,0,0,0-2.545,2.545v.164a2.545,2.545,0,0,0,2.545,2.545h0Z" transform="translate(-305.995 -277.779)" fill="#ffd037"/>
      <rect id="Rectangle_599" data-name="Rectangle 599" width="1.149" height="5.746" rx="0.575" transform="translate(100.03 44.875)" fill="#6a5c99"/>
      <rect id="Rectangle_600" data-name="Rectangle 600" width="0.739" height="4.186" transform="translate(117.306 42.495)" fill="#6a5c99"/>
      <path id="Path_3564" data-name="Path 3564" d="M0,5.253H0A2.545,2.545,0,0,0,2.545,2.709V2.545A2.545,2.545,0,0,0,0,0H0Z" transform="translate(116.321 45.204)" fill="#ffd037"/>
      <rect id="Rectangle_601" data-name="Rectangle 601" width="1.149" height="5.746" rx="0.575" transform="translate(115.828 44.957)" fill="#6a5c99"/>
      <path id="Path_3565" data-name="Path 3565" d="M317.144,307.3c1-2.08,3.179-4.595,7.875-4.8V302.5l.056,0h0l1.664.079v.008c4.665.215,6.834,2.72,7.831,4.793a10.782,10.782,0,0,1,1.031,4.489l-.574-.014-.574-.013a9.776,9.776,0,0,0-.935-4c-1.267-2.6-3.6-3.985-6.926-4.112h0l-1.471-.081h0c-3.329.128-5.659,1.511-6.926,4.112a9.776,9.776,0,0,0-.935,4l-.574.013-.574.014A10.782,10.782,0,0,1,317.144,307.3Z" transform="translate(-217.355 -269.366)" fill="#ffd037"/>
      <rect id="Rectangle_602" data-name="Rectangle 602" width="78.362" height="21.039" transform="translate(73.542 86.457)" fill="#d6d6e3"/>
      <rect id="Rectangle_603" data-name="Rectangle 603" width="78.362" height="2.731" transform="translate(73.542 87.873)" opacity="0.1"/>
      <rect id="Rectangle_604" data-name="Rectangle 604" width="88.874" height="2.731" transform="translate(68.286 86.153)" fill="#d6d6e3"/>
      <path id="Path_3566" data-name="Path 3566" d="M490.215,633.295s-3.354,6.148-11.738,4.472-4.332,15.511-4.332,15.511,1.372,8.2.406,8.152" transform="translate(-393.911 -553.933)" fill="none" stroke="#535461" stroke-miterlimit="10" stroke-width="3"/>
    </g>
  </g>
</svg>
