<svg xmlns="http://www.w3.org/2000/svg" width="306" height="119.106" viewBox="0 0 306 119.106">
  <g id="Group_1766" data-name="Group 1766" transform="translate(-47 -90)">
    <text id="Rx_Deliver" data-name="Rx Deliver" transform="translate(47 157)" fill="#fff" font-size="18" font-family="OpenSans-Semibold, Open Sans" font-weight="600" letter-spacing="0.05em"><tspan x="0" y="0">Rx Deliver</tspan></text>
    <g id="Group_1409" data-name="Group 1409" transform="translate(197.468 89.994)">
      <path id="Path_3343" data-name="Path 3343" d="M295.733,77.736a37.878,37.878,0,0,0-6.168-9.83l-85.594-.844,70.472-9.9a40.033,40.033,0,0,0-14.3-2.836,40.076,40.076,0,0,0-47.872-1.62,39.9,39.9,0,0,0-18.322-4.417c-19.018,0-34.865,13.173-38.419,30.639Z" transform="translate(-143.21 -45.55)" fill="#fff" opacity="0.5"/>
      <path id="Path_3344" data-name="Path 3344" d="M227.392,283.516a37,37,0,0,0-2.667-13.826L76.382,285.261a37.253,37.253,0,0,0-3.471,8.777l45.941,6.847L71.86,305.879c1.414,19.774,18.364,35.387,39.072,35.387a39.644,39.644,0,0,0,26.914-10.409A39.8,39.8,0,0,0,200.392,319.7a38.617,38.617,0,0,0,25.749-26.613l-58.094-9.01h59.34C227.389,283.893,227.392,283.7,227.392,283.516Z" transform="translate(-71.86 -236.681)" fill="#fff" opacity="0.5"/>
      <ellipse id="Ellipse_174" data-name="Ellipse 174" cx="3.802" cy="0.523" rx="3.802" ry="0.523" transform="translate(0.337 108.267)" fill="#6c63ff" opacity="0.1"/>
      <ellipse id="Ellipse_175" data-name="Ellipse 175" cx="3.802" cy="0.523" rx="3.802" ry="0.523" transform="translate(14.901 109.744)" fill="#6c63ff" opacity="0.1"/>
      <ellipse id="Ellipse_176" data-name="Ellipse 176" cx="3.802" cy="0.523" rx="3.802" ry="0.523" transform="translate(32.057 107.745)" fill="#6c63ff" opacity="0.1"/>
      <ellipse id="Ellipse_177" data-name="Ellipse 177" cx="2.703" cy="0.371" rx="2.703" ry="0.371" transform="translate(10.17 114.101)" fill="#6c63ff" opacity="0.1"/>
      <ellipse id="Ellipse_178" data-name="Ellipse 178" cx="2.703" cy="0.371" rx="2.703" ry="0.371" transform="translate(25.288 113.73)" fill="#6c63ff" opacity="0.1"/>
      <path id="Path_3359" data-name="Path 3359" d="M309.122,744.43a.843.843,0,0,1,.1.209c.892,1.048,1.366,2.026.509,2.051-.8.024-1.757,1.452-1.986,1.813.007.028.016.055.026.082,0,0,1.124-1.869,2.038-1.9S310.128,745.554,309.122,744.43Z" transform="translate(-273.016 -641.518)" opacity="0.1"/>
      <path id="Path_3360" data-name="Path 3360" d="M322.818,749.333c0,.234-.027.424-.059.424s-.059-.19-.059-.424.034-.124.066-.124S322.818,749.1,322.818,749.333Z" transform="translate(-285.765 -645.571)" fill="#ffd037"/>
      <path id="Path_3361" data-name="Path 3361" d="M323.385,751.157c-.206.112-.386.18-.4.147s.138-.147.345-.255.124-.031.14,0S323.591,751.045,323.385,751.157Z" transform="translate(-286.007 -647.115)" fill="#ffd037"/>
      <path id="Path_3363" data-name="Path 3363" d="M292.178,744.43a.817.817,0,0,0-.1.209c-.892,1.048-1.368,2.026-.511,2.051.8.024,1.758,1.452,1.988,1.813-.009.028-.018.055-.028.082,0,0-1.123-1.869-2.038-1.9S291.179,745.554,292.178,744.43Z" transform="translate(-258.764 -641.518)" opacity="0.1"/>
      <path id="Path_3364" data-name="Path 3364" d="M292.36,749.333c0,.234.026.424.059.424s.059-.19.059-.424-.032-.124-.065-.124S292.36,749.1,292.36,749.333Z" transform="translate(-259.892 -645.571)" fill="#ffd037"/>
      <path id="Path_3365" data-name="Path 3365" d="M289.4,751.157c.206.112.386.18.4.147s-.14-.147-.345-.255-.125-.031-.147,0S289.193,751.045,289.4,751.157Z" transform="translate(-257.255 -647.115)" fill="#ffd037"/>
      <path id="Path_3366" data-name="Path 3366" d="M293.46,767.592a5.2,5.2,0,0,0,1.854-.349c.428-.306,2.191-.671,2.3-.181s2.139,2.438.532,2.452A13.622,13.622,0,0,1,293.98,769C293.551,768.742,293.46,767.592,293.46,767.592Z" transform="translate(-260.83 -660.613)" fill="#a8a8a8"/>
      <path id="Path_3367" data-name="Path 3367" d="M298.173,773.792a13.633,13.633,0,0,1-4.166-.511c-.327-.2-.456-.911-.5-1.241h-.049s.091,1.15.52,1.411a13.618,13.618,0,0,0,4.164.511c.465,0,.624-.169.615-.414C298.693,773.7,298.518,773.789,298.173,773.792Z" transform="translate(-260.83 -665.063)" opacity="0.2"/>
      <ellipse id="Ellipse_179" data-name="Ellipse 179" cx="48.506" cy="2.2" rx="48.506" ry="2.2" transform="translate(41.666 114.712)" fill="#6c63ff" opacity="0.1"/>
      <path id="Path_3368" data-name="Path 3368" d="M619.95,389.429s3.092,5.85,3.332,6.685a1.128,1.128,0,0,0,1.042.833s3.08.736,3.817.835,7.118.638,7.118.638,1.62.05,1.816-.539c.18-.539,3.309-3.37,5.12-.9a1.8,1.8,0,0,1,.262,1.608c-.333,1.06-1.016,2.743-1.749,1.7-1.031-1.472-2.229-1.059-2.229-.274s-1.649.493-2.188.6c-.294.06-1.308.33-2.184.565a15.9,15.9,0,0,1-3.11.517c-1.739.113-4.3.208-5.211-.135a14.144,14.144,0,0,0-3.828-.535,1.259,1.259,0,0,1-.747-.268,11.646,11.646,0,0,1-2.835-3.223c-1.277-2.209-3.9-6.782-3.725-8.107S619.95,389.429,619.95,389.429Z" transform="translate(-534.72 -338.287)" fill="#efb7b9"/>
      <path id="Path_3369" data-name="Path 3369" d="M619.95,389.429s3.092,5.85,3.332,6.685a1.128,1.128,0,0,0,1.042.833s3.08.736,3.817.835,7.118.638,7.118.638,1.62.05,1.816-.539c.18-.539,3.309-3.37,5.12-.9a1.8,1.8,0,0,1,.262,1.608c-.333,1.06-1.016,2.743-1.749,1.7-1.031-1.472-2.229-1.059-2.229-.274s-1.649.493-2.188.6c-.294.06-1.308.33-2.184.565a15.9,15.9,0,0,1-3.11.517c-1.739.113-4.3.208-5.211-.135a14.144,14.144,0,0,0-3.828-.535,1.259,1.259,0,0,1-.747-.268,11.646,11.646,0,0,1-2.835-3.223c-1.277-2.209-3.9-6.782-3.725-8.107S619.95,389.429,619.95,389.429Z" transform="translate(-534.72 -338.287)" opacity="0.05"/>
      <path id="Path_3370" data-name="Path 3370" d="M829.2,539.5c-1.4,1.523-2.431,2.122-2.382.515.147-4.859-8.393-26.828-8.393-26.828l2.525-.191A65.415,65.415,0,0,1,829.2,539.5Z" transform="translate(-708.492 -444.165)" fill="none"/>
      <path id="Path_3371" data-name="Path 3371" d="M832.705,694.588a12.148,12.148,0,0,1-24.25,1.031c-.018-.2-.031-.395-.037-.589v-.01q-.009-.219-.009-.442a12.148,12.148,0,1,1,24.3,0Z" transform="translate(-699.956 -588.647)"/>
      <circle id="Ellipse_180" data-name="Ellipse 180" cx="6.626" cy="6.626" r="6.626" transform="translate(113.975 99.307)" fill="#dce0ed"/>
      <circle id="Ellipse_181" data-name="Ellipse 181" cx="3.976" cy="3.976" r="3.976" transform="translate(116.626 101.958)"/>
      <path id="Path_3372" data-name="Path 3372" d="M504.842,556.612l-29.252.589V552.89c.262-3.471,3.828-4.688,7.068-5.07a20.289,20.289,0,0,1,7.558.567,51.839,51.839,0,0,0,12.108,1.992,1.857,1.857,0,0,1,1.8,1.511c.093.493.184,1.031.269,1.561.065.415.127.825.183,1.206C504.734,555.755,504.842,556.612,504.842,556.612Z" transform="translate(-416.143 -473.748)" fill="#65617d"/>
      <path id="Path_3373" data-name="Path 3373" d="M467.088,550.866H406.321a2.393,2.393,0,0,1-2.216-1.433,1.662,1.662,0,0,1,.866-2.2,6.884,6.884,0,0,0,2.992-3.661,36.438,36.438,0,0,0,1.53-9.589c.256-4.84,2.008-7.233,3.9-8.393h0a7.726,7.726,0,0,1,5.127-.935l24.639.2a4.736,4.736,0,0,1,1.2.785c2.2,2.044-1.006,4.712-1.006,4.712a11.556,11.556,0,0,0-1.67,14.626h12.607a11.6,11.6,0,0,0,6.6-2.022,6.653,6.653,0,0,0,2.618-3.005c.194-.527.392-1.053.627-1.562,3.307-7.172-.682-18.84-2.4-23.2-.427-1.085-.714-1.718-.714-1.718l3.954-.294,2.5-.19h.025a65.466,65.466,0,0,1,8.246,26.5c.065.682.118,1.343.161,1.978a8.835,8.835,0,0,1-8.827,9.4Z" transform="translate(-355.052 -444.148)" fill="#f42072"/>
      <path id="Path_3374" data-name="Path 3374" d="M504.574,588.016H475.59V586.81h28.8C504.456,587.218,504.518,587.627,504.574,588.016Z" transform="translate(-416.143 -507.107)" opacity="0.1"/>
      <path id="Path_3375" data-name="Path 3375" d="M499.069,592.715H468.333a.589.589,0,0,1-.233-.047,7.725,7.725,0,0,1,5.127-.935l24.639.2A4.736,4.736,0,0,1,499.069,592.715Z" transform="translate(-409.755 -511.217)" opacity="0.1"/>
      <rect id="Rectangle_567" data-name="Rectangle 567" width="42.951" height="1.206" rx="0.603" transform="translate(47.22 79.99)" fill="#dce0ed"/>
      <path id="Path_3376" data-name="Path 3376" d="M829.2,539.5c-1.4,1.523-2.431,2.122-2.382.515.147-4.859-8.393-26.828-8.393-26.828l2.525-.191A65.415,65.415,0,0,1,829.2,539.5Z" transform="translate(-708.492 -444.165)" opacity="0.1"/>
      <path id="Path_3377" data-name="Path 3377" d="M832.692,693.334c-1.45.348-3.239.7-5.448,1.031q-1.232.181-2.65.347c-2.257.268-4.868.5-7.883.682q-1.281.077-2.661.14-2.584.118-5.532.18l-.037-.589v-.01c2.746-1.109,7.068-4.067,7.763-11.772a12.154,12.154,0,0,1,16.45,10Z" transform="translate(-700.016 -588.731)" opacity="0.1"/>
      <path id="Path_3378" data-name="Path 3378" d="M792.92,638.47s13.944-1.514,9.141-22.76c0,0,6.89,6.317,11.176,9.827s11.927,8.35,11.927,8.35S820.6,638.15,792.92,638.47Z" transform="translate(-686.747 -531.752)" fill="#6c63ff"/>
      <path id="Path_3379" data-name="Path 3379" d="M792.92,638.47s13.944-1.514,9.141-22.76c0,0,6.89,6.317,11.176,9.827s11.927,8.35,11.927,8.35S820.6,638.15,792.92,638.47Z" transform="translate(-686.747 -531.752)" fill="#e5075d"/>
      <circle id="Ellipse_182" data-name="Ellipse 182" cx="12.148" cy="12.148" r="12.148" transform="translate(56.772 93.786)"/>
      <circle id="Ellipse_183" data-name="Ellipse 183" cx="6.626" cy="6.626" r="6.626" transform="translate(62.294 99.307)" fill="#dce0ed"/>
      <circle id="Ellipse_184" data-name="Ellipse 184" cx="3.976" cy="3.976" r="3.976" transform="translate(64.944 101.958)"/>
      <path id="Path_3380" data-name="Path 3380" d="M471.249,657.913a13.918,13.918,0,1,0-27.829,0q0,.5.034.985h27.762Q471.249,658.411,471.249,657.913Z" transform="translate(-388.709 -555.629)" opacity="0.1"/>
      <path id="Path_3381" data-name="Path 3381" d="M473.719,659.3a13.4,13.4,0,1,0-26.8,0c0,.32.012.635.032.948h26.734C473.707,659.932,473.719,659.617,473.719,659.3Z" transform="translate(-391.694 -557.257)" fill="#6c63ff"/>
      <path id="Path_3382" data-name="Path 3382" d="M473.719,659.3c0,.219,0,.442-.016.654,0,.1-.01.2-.016.294H446.952c0-.1-.012-.2-.016-.294-.01-.216-.016-.442-.016-.654a13.4,13.4,0,1,1,26.8,0Z" transform="translate(-391.694 -557.257)" fill="#e5075d"/>
      <path id="Path_3383" data-name="Path 3383" d="M473.8,743c0,.1-.01.2-.016.294H447.046c0-.1-.012-.2-.016-.294Z" transform="translate(-391.788 -640.299)" opacity="0.1"/>
      <rect id="Rectangle_568" data-name="Rectangle 568" width="35.999" height="3.141" rx="1.57" transform="translate(49.364 103.283)" opacity="0.1"/>
      <rect id="Rectangle_569" data-name="Rectangle 569" width="35.999" height="3.141" rx="1.57" transform="translate(49.364 102.989)" fill="#dce0ed"/>
      <ellipse id="Ellipse_185" data-name="Ellipse 185" cx="1.764" cy="4.441" rx="1.764" ry="4.441" transform="translate(113.04 75.138) rotate(-24.33)" opacity="0.1"/>
      <ellipse id="Ellipse_186" data-name="Ellipse 186" cx="1.764" cy="4.441" rx="1.764" ry="4.441" transform="translate(113.187 74.991) rotate(-24.33)" fill="#dce0ed"/>
      <path id="Path_3384" data-name="Path 3384" d="M798.044,513v2.307h-4.491a7.736,7.736,0,0,1-1.249-.1c-.427-1.085-.714-1.718-.714-1.718l3.953-.294Z" transform="translate(-685.613 -444.165)" opacity="0.1"/>
      <path id="Path_3385" data-name="Path 3385" d="M768.052,446.744h-4.491a6.879,6.879,0,0,1-7.141-6.592v-.611a6.882,6.882,0,0,1,7.141-6.591l4.491.408Z" transform="translate(-655.622 -375.902)" fill="#f42072"/>
      <path id="Path_3386" data-name="Path 3386" d="M757.242,458.6s2.687,1.436,1.141,3.865c0,0-1.9,3.11-4.878,2.815L752.42,458.6A22.578,22.578,0,0,1,757.242,458.6Z" transform="translate(-652.211 -397.647)" fill="#6c63ff"/>
      <path id="Path_3387" data-name="Path 3387" d="M756.227,458.457a2.857,2.857,0,0,1,2.185,1.151,2.353,2.353,0,0,1-.009,2.843s-1.9,3.11-4.878,2.815l-1.085-6.681A31.683,31.683,0,0,1,756.227,458.457Z" transform="translate(-652.228 -397.636)" fill="#e5075d"/>
      <path id="Path_3388" data-name="Path 3388" d="M762.56,390.17h.866a2.742,2.742,0,0,1,2.742,2.742v7.9a2.742,2.742,0,0,1-2.742,2.742h-.866Z" transform="translate(-650.276 -332.714)" opacity="0.1"/>
      <path id="Path_3389" data-name="Path 3389" d="M763.56,390.17h.866a2.742,2.742,0,0,1,2.742,2.742v7.9a2.742,2.742,0,0,1-2.742,2.742h-.866Z" transform="translate(-651.129 -332.714)" fill="#dce0ed"/>
      <path id="Path_3390" data-name="Path 3390" d="M618.88,513.577s.694.253,1.62.607a36.668,36.668,0,0,1,4.27,1.848,32.518,32.518,0,0,0,5.426,1.723,17.669,17.669,0,0,0,4.573.564c1.567-.015,3.465-.029,3.989-.029a1.652,1.652,0,0,1,.274.021c.551.091.529.461.515.549v.019c-3.239,1.963-7.166,10.749-7.411,12.221a31.427,31.427,0,0,1-2.6,5.629c-.268.49-.442.8-.442.8l.982,1.128,2.846,1.277,2.7,1.178a19.01,19.01,0,0,0,2.9,0c.049-.147.049-1.668.049-1.668a8.038,8.038,0,0,1-.984-.748,16.278,16.278,0,0,1-1.814-1.854c-1.57-1.866,1.571-5.448,1.571-5.448l6.037-7.853s.49-.883,2.846-4.417,0-5.448,0-5.448l-4.146-1.721c-7.191-2.692-15.866-4.849-15.866-4.849l-.124-.016-1.839-.23Z" transform="translate(-538.334 -438.929)" fill="#efb7b9"/>
      <path id="Path_3391" data-name="Path 3391" d="M691.365,714.014s.515.608.13.663a6.412,6.412,0,0,1-1.4-.165l-6.424-3.387s-.7-.5-.864.479-.277.883-.277.883-.847,1.821,0,2.2,5.932,1.869,5.932,1.869,7.381,1.676,8.081-.258-1.252-1.6-1.252-1.6-2.43-.589-3.258-1.767C692.028,712.929,690.832,713.26,691.365,714.014Z" transform="translate(-592.291 -613.009)" fill="#444053"/>
      <path id="Path_3392" data-name="Path 3392" d="M646.218,513.676l-4.146-1.721c-7.191-2.692-15.866-4.849-15.866-4.849l-.124-.016-1.839-.23-5.363,6.717s.694.253,1.62.607a36.68,36.68,0,0,1,4.27,1.848,32.506,32.506,0,0,0,5.426,1.723,17.669,17.669,0,0,0,4.573.564c1.567-.015,3.465-.029,3.989-.029a1.645,1.645,0,0,1,.274.021c.551.091.529.461.515.549v.019c-3.239,1.963-7.166,10.749-7.411,12.221a31.426,31.426,0,0,1-2.6,5.629l-.107.2c-.214-.035-.48.041-.574.6-.166.975-.277.883-.277.883s-.847,1.821,0,2.2,5.928,1.869,5.928,1.869,7.381,1.676,8.081-.258-1.252-1.6-1.252-1.6-2.43-.589-3.259-1.767a1.622,1.622,0,0,0-.215.079c-.087-.071-.18-.147-.278-.233a16.272,16.272,0,0,1-1.814-1.854c-1.57-1.866,1.571-5.448,1.571-5.448l6.037-7.853s.49-.883,2.846-4.417S646.218,513.676,646.218,513.676Z" transform="translate(-538.334 -438.929)" opacity="0.05"/>
      <path id="Path_3393" data-name="Path 3393" d="M585.3,283.777l.224.283.125.158.78.982s1.863.6,3.5.985c1.7.4,3.151.577,2-.384a2.525,2.525,0,0,1-.5-2.665,11.027,11.027,0,0,1,.936-2.371q.087-.168.172-.327a19.645,19.645,0,0,1,1.213-1.96,34.834,34.834,0,0,0-3.253-2c-1.349-.7-2.456-1-1.754.378a3.232,3.232,0,0,1-.118,2.826c-.032.075-.068.147-.1.225a10.129,10.129,0,0,1-1.39,2.045A16.143,16.143,0,0,1,585.3,283.777Z" transform="translate(-509.698 -241.967)" fill="#efb7b9"/>
      <path id="Path_3394" data-name="Path 3394" d="M568.534,436.24l1,.911.964,3.711h-1.609l-1.777-2.312Z" transform="translate(-483.606 -372.001)" fill="#444053"/>
      <path id="Path_3395" data-name="Path 3395" d="M567.11,438.55l1.075,1.4.7.914H570.5l-.165-.635-.7-2.7-.1-.373-1-.911-1.364,2.212Z" transform="translate(-483.606 -372.001)" opacity="0.1"/>
      <path id="Path_3396" data-name="Path 3396" d="M567.11,438.55l1.075,1.4.7.914H570.5l-.165-.635-.7-2.7-.1-.373-1-.911-1.364,2.212Z" transform="translate(-483.606 -372.001)" opacity="0.1"/>
      <path id="Path_3397" data-name="Path 3397" d="M602.64,517.741s.693.253,1.62.607a36.671,36.671,0,0,1,4.27,1.848,32.517,32.517,0,0,0,5.426,1.723,17.672,17.672,0,0,0,4.573.565c1.567-.015,3.465-.029,3.989-.029a1.653,1.653,0,0,1,.274.021c.551.091.529.461.515.549v.019c-3.239,1.963-7.166,10.749-7.411,12.221a31.435,31.435,0,0,1-2.6,5.629c-.268.49-.442.8-.442.8l.982,1.128,2.845,1.275,2.7,1.178a19.018,19.018,0,0,0,2.9,0c.049-.147.049-1.668.049-1.668a8.042,8.042,0,0,1-.984-.748,16.272,16.272,0,0,1-1.814-1.854c-1.57-1.866,1.571-5.448,1.571-5.448l6.037-7.853s.49-.883,2.846-4.417,0-5.448,0-5.448l-3.778-2.16c-5.89-3.582-14.186-5.644-14.186-5.644l-.124-.016-1.839-.23Z" transform="translate(-524.485 -441.428)" fill="#efb7b9"/>
      <path id="Path_3398" data-name="Path 3398" d="M672,721.8l.982,1.128,2.846,1.277,2.7,1.178a19.018,19.018,0,0,0,2.9,0c.049-.147.049-1.668.049-1.668a8.036,8.036,0,0,1-.984-.748c-.3.163-.651.47-.317.944,0,0,.515.607.13.663a6.32,6.32,0,0,1-1.4-.165l-6.424-3.387-.037-.025Z" transform="translate(-583.632 -621.538)" opacity="0.1"/>
      <path id="Path_3399" data-name="Path 3399" d="M675.125,725.319s.515.607.128.663a6.285,6.285,0,0,1-1.4-.166l-6.423-3.387s-.7-.5-.866.479-.275.883-.275.883-.847,1.823,0,2.2,5.927,1.863,5.927,1.863,7.38,1.674,8.079-.258-1.252-1.6-1.252-1.6-2.43-.589-3.257-1.767C675.792,724.232,674.591,724.564,675.125,725.319Z" transform="translate(-578.443 -622.648)" fill="#444053"/>
      <path id="Path_3400" data-name="Path 3400" d="M605.3,279.3c.851.589,2.15,1.521,3.258,1.521a5.438,5.438,0,0,0,.854-.068,19.906,19.906,0,0,1,1.386-2.287s-6.479-4.516-5.006-1.62C606.278,277.808,605.8,278.281,605.3,279.3Z" transform="translate(-526.753 -241.956)" opacity="0.1"/>
      <path id="Path_3401" data-name="Path 3401" d="M591.43,240.736a5.292,5.292,0,0,0,2.416,4.447,4.86,4.86,0,0,0,.518.294,5.3,5.3,0,1,0-2.935-4.744Z" transform="translate(-514.926 -207.468)" fill="#efb7b9"/>
      <path id="Path_3402" data-name="Path 3402" d="M602.64,517.741s.693.253,1.62.607a7.809,7.809,0,0,1,1.427-1.1c.54-.2,2.307-1.228,2.259-1.523a2.582,2.582,0,0,1,1.422-1.62c.686-.2.294-1.227.294-1.227s1.325-.49,1.655-1.178,1.34-1.571,1-1.521a1.07,1.07,0,0,1-.418-.163l-1.839-.23Z" transform="translate(-524.485 -441.428)" opacity="0.1"/>
      <path id="Path_3403" data-name="Path 3403" d="M564.378,502.83s2.259,1.866,2.363,2.7,1.612.786,1.612.786a22.361,22.361,0,0,1,2.8-2.356c.539-.2,2.307-1.228,2.259-1.523a2.582,2.582,0,0,1,1.422-1.62c.686-.2.294-1.227.294-1.227s1.325-.49,1.655-1.178,1.34-1.571,1-1.521a2.5,2.5,0,0,1-.8-.381c-.484-.294-1.1-.694-1.6-1.031-.53-.359-.935-.645-.935-.645s-.231-.041-.627-.1c-2.137-.309-9.1-1.1-10.711,1.472a3.9,3.9,0,0,0-.479,1.1C561.9,500.047,564.378,502.83,564.378,502.83Z" transform="translate(-490.249 -428.283)" fill="#444053"/>
      <path id="Path_3404" data-name="Path 3404" d="M572.308,511.37a11.646,11.646,0,0,1-3.166,1.3C568.282,512.672,572.308,511.37,572.308,511.37Z" transform="translate(-495.817 -442.775)" opacity="0.1"/>
      <path id="Path_3405" data-name="Path 3405" d="M581.874,517.955s-3.434,1.154-3.434,2.061S578.119,517.587,581.874,517.955Z" transform="translate(-503.843 -448.366)" opacity="0.1"/>
      <path id="Path_3406" data-name="Path 3406" d="M657.349,482.81l-.049.066A.147.147,0,0,0,657.349,482.81Z" transform="translate(-571.097 -418.42)" opacity="0.1"/>
      <path id="Path_3407" data-name="Path 3407" d="M585.3,318.894l.224.283.125.158.78.982s1.863.6,3.5.985c1.7.4,3.151.577,2-.384a2.525,2.525,0,0,1-.5-2.665l-.052-.066s.052.992-.536,1.012c-.792.025-.8-.241-1.533-.549a4.927,4.927,0,0,1-2.176-1.578A16.143,16.143,0,0,1,585.3,318.894Z" transform="translate(-509.698 -277.085)" opacity="0.1"/>
      <path id="Path_3408" data-name="Path 3408" d="M563.39,486.571a1.7,1.7,0,0,0,1.263.029c1.521-.492,3.927-1.676,5.055-1.157a15.152,15.152,0,0,0,5.89.054c.334-.087.526-.194.5-.321a.884.884,0,0,1,.052-.431,7.957,7.957,0,0,1,.9-1.671l-.1-.373-1-.911L574.584,484c-2.137-.309-9.1-1.1-10.711,1.472A3.9,3.9,0,0,0,563.39,486.571Z" transform="translate(-491.014 -417.551)" opacity="0.1"/>
      <path id="Path_3409" data-name="Path 3409" d="M555.521,345.441a1.67,1.67,0,0,0,2.11.883c1.521-.49,3.927-1.676,5.055-1.157s6.529.371,6.382-.267,1.325-2.65,1.325-2.65-.8-.147-1.3-2.773c-.074-.383-.14-.819-.2-1.313a16.714,16.714,0,0,1-.085-3.054,7.209,7.209,0,0,1,1.194-4,3.3,3.3,0,0,0,.2-3.73c-.617-1.132-3.107-4.27-3.141-5.669a5.7,5.7,0,0,0-1.244-2.745s.052.992-.536,1.012c-.792.025-.8-.241-1.533-.549-1.073-.453-2.176-1.253-2.248-1.788a5.4,5.4,0,0,0-5.482,4.339c-.982,4.565-.638,7.068-.49,7.608s1.422,7.51.392,10.454A10.146,10.146,0,0,0,555.521,345.441Z" transform="translate(-484.139 -277.569)" fill="#04f9d9"/>
      <path id="Path_3410" data-name="Path 3410" d="M590.015,412.492a11.548,11.548,0,0,0,3.189,3.485,22.1,22.1,0,0,1,2.577.172c-.074-.383-.147-.819-.2-1.313a16.713,16.713,0,0,1-.085-3.054,1.112,1.112,0,0,1-.577-.713c-.246-.835-2.435-4.81-2.435-4.81s-5.123-1.325-5.3,0S588.738,410.283,590.015,412.492Z" transform="translate(-511.296 -352.639)" opacity="0.1"/>
      <path id="Path_3411" data-name="Path 3411" d="M587.252,389.429s3.092,5.85,3.332,6.685a1.128,1.128,0,0,0,1.043.833s3.08.736,3.817.835,7.122.638,7.122.638,1.62.05,1.816-.539c.18-.539,3.309-3.37,5.12-.9a1.8,1.8,0,0,1,.262,1.608c-.333,1.06-1.016,2.743-1.749,1.7-1.031-1.472-2.229-1.059-2.229-.274s-1.649.493-2.188.6c-.294.06-1.308.33-2.184.565a15.9,15.9,0,0,1-3.117.517c-1.739.113-4.3.208-5.211-.135a14.129,14.129,0,0,0-3.828-.535,1.259,1.259,0,0,1-.747-.268,11.646,11.646,0,0,1-2.833-3.223c-1.277-2.209-3.9-6.782-3.725-8.107S587.252,389.429,587.252,389.429Z" transform="translate(-506.835 -338.287)" fill="#efb7b9"/>
      <path id="Path_3412" data-name="Path 3412" d="M583.732,333.616a39.635,39.635,0,0,1,2.424,4.712c.767,1.963,1.7,5.4,1.7,5.4l-4.615-.54-.392-.638s-3.3,2.061-2.9,2.945a7.718,7.718,0,0,1-.785-3.828c.1-2.5-.355-6.971,0-8.05S582.646,332.781,583.732,333.616Z" transform="translate(-504.346 -290.58)" opacity="0.1"/>
      <path id="Path_3413" data-name="Path 3413" d="M579.173,339.673a7.717,7.717,0,0,0,.785,3.828c-.393-.883,2.9-2.945,2.9-2.945l.387.638,4.613.54s-.932-3.437-1.7-5.4a30.027,30.027,0,0,0-1.578-3.239c-.473-.858-.845-1.472-.845-1.472a5.2,5.2,0,0,0-3.057-.71,3.954,3.954,0,0,0-.5.06,1.389,1.389,0,0,0-.956.52.691.691,0,0,0-.059.13C578.814,332.7,579.267,337.169,579.173,339.673Z" transform="translate(-504.352 -288.881)" fill="#04f9d9"/>
      <path id="Path_3414" data-name="Path 3414" d="M566,437s1.951,2.687,2.54,2.761C568.536,439.767,566.032,439.209,566,437Z" transform="translate(-493.24 -379.356)" opacity="0.1"/>
      <path id="Path_3415" data-name="Path 3415" d="M566,463s3.681,3.718,4.859,3.755S566,463,566,463Z" transform="translate(-493.24 -401.527)" opacity="0.1"/>
      <path id="Path_3416" data-name="Path 3416" d="M566,473.54s2.356,2.761,2.5,2.761S565.956,475.344,566,473.54Z" transform="translate(-493.237 -410.515)" opacity="0.1"/>
      <path id="Path_3417" data-name="Path 3417" d="M580.33,250a3.265,3.265,0,0,0,1.081-.362c.127-.066.252-.14.374-.218a8.847,8.847,0,0,0,1.343-1.1,5.717,5.717,0,0,0,1.633-2.279,4.1,4.1,0,0,0,.138-.636c.168-1.132.026-2.382.836-3.153a1.926,1.926,0,0,1,.517-.349c1.149-.546,2.814-.193,3.671-1.178.545-.624.532-1.492.95-2.17a4.559,4.559,0,0,1,.816-.82,5.3,5.3,0,1,0-7.308,7.362c-.032.075-.068.147-.1.225a14.042,14.042,0,0,1-3.214,3.87l.224.283A1.442,1.442,0,0,0,580.33,250Z" transform="translate(-505.46 -207.392)" opacity="0.1"/>
      <path id="Path_3418" data-name="Path 3418" d="M433.294,214.644c-1,1.143-3.092.477-4.189,1.524-.963.917-.58,2.518-.973,3.789a5.726,5.726,0,0,1-1.633,2.279c-.987.96-2.248,1.935-3.6,1.659-.8-.163-1.583-.761-2.356-.486a2.755,2.755,0,0,0-.947.764,6.524,6.524,0,0,1-3.618,1.871,1.548,1.548,0,0,1-.82-.038c-.412-.168-.635-.618-1.01-.858-.736-.471-1.682.012-2.446.433a17.114,17.114,0,0,1-14.059,1.012l1.191-.589c-.253-.517-.938-.63-1.374-1.009-.9-.779-.37-2.337.58-3.051s2.179-.963,3.163-1.63a.82.82,0,0,0,.423-.555.884.884,0,0,0-.16-.492,5.135,5.135,0,0,1-.987-2.97c.18-1.62,1.948-2.615,3.572-2.728s3.232.375,4.859.4a3.185,3.185,0,0,0,1.711-.352,5.177,5.177,0,0,0,1.489-1.935,7.9,7.9,0,0,1,3.166-2.918c1.472-.744,3.139-1,4.671-1.62a35.667,35.667,0,0,1,4.622-2.019,9.083,9.083,0,0,1,6.971,1.512c.988.641,4.143,2.7,4.123,4.011-.016.78-1.031,1.2-1.415,1.816C433.825,213.153,433.839,214.02,433.294,214.644Z" transform="translate(-349.125 -181.456)" fill="#965d7b"/>
      <g id="Group_1408" data-name="Group 1408" transform="translate(47.877 28.612)" opacity="0.1">
        <path id="Path_3419" data-name="Path 3419" d="M421.457,287.152a.9.9,0,0,1,.16.492.5.5,0,0,1-.052.178,6.209,6.209,0,0,1-.956-2.422A9.366,9.366,0,0,0,421.457,287.152Z" transform="translate(-417.135 -278.69)"/>
        <path id="Path_3420" data-name="Path 3420" d="M397.327,333.838c.434.378,1.119.492,1.374,1.009l-.421.209a4.738,4.738,0,0,1-.805-.482,1.386,1.386,0,0,1-.459-1.144A1.264,1.264,0,0,0,397.327,333.838Z" transform="translate(-397.01 -319.648)"/>
        <path id="Path_3421" data-name="Path 3421" d="M415.312,254.608c.764-.421,1.711-.9,2.446-.433.374.24.6.691,1.01.858a1.542,1.542,0,0,0,.819.038,6.529,6.529,0,0,0,3.619-1.871,2.711,2.711,0,0,1,.947-.764c.769-.275,1.552.322,2.356.486,1.349.275,2.609-.7,3.6-1.659a5.713,5.713,0,0,0,1.631-2.279c.395-1.271.012-2.871.975-3.789,1.1-1.047,3.191-.381,4.189-1.524.543-.624.532-1.492.95-2.17.353-.573,1.269-.979,1.4-1.67a1.281,1.281,0,0,1,.163.589c-.016.78-1.031,1.2-1.415,1.816-.418.679-.406,1.546-.95,2.17-1,1.143-3.092.477-4.189,1.524-.963.917-.58,2.518-.975,3.789A5.723,5.723,0,0,1,430.253,252c-.988.96-2.248,1.935-3.6,1.659-.8-.163-1.584-.761-2.356-.486a2.728,2.728,0,0,0-.947.764,6.529,6.529,0,0,1-3.619,1.871,1.542,1.542,0,0,1-.819-.038c-.412-.168-.636-.618-1.01-.858-.736-.471-1.682.012-2.446.433a17.114,17.114,0,0,1-14.059,1.012l.823-.408A17.147,17.147,0,0,0,415.312,254.608Z" transform="translate(-400.754 -239.83)"/>
      </g>
      <path id="Path_3422" data-name="Path 3422" d="M740.015,594.7l1.238-.6v-.234a6.887,6.887,0,0,0-1.754.278C740.051,594.246,740.029,594.616,740.015,594.7Z" transform="translate(-641.193 -513.109)" opacity="0.1"/>
      <ellipse id="Ellipse_187" data-name="Ellipse 187" cx="2.983" cy="3.63" rx="2.983" ry="3.63" transform="translate(96.915 60.795)" fill="#f42072"/>
      <path id="Path_3423" data-name="Path 3423" d="M364.371,405.42l-4.8,4.73-15.766-.275,4.335-4.454Z" transform="translate(-293.186 -345.719)" fill="#fff"/>
      <path id="Path_3424" data-name="Path 3424" d="M455.676,421.6V405.42l-4.8,4.73v15.832Z" transform="translate(-384.49 -345.719)" fill="#fff"/>
      <path id="Path_3425" data-name="Path 3425" d="M343.81,435.67v16.107h15.766V435.945Z" transform="translate(-293.186 -371.514)" fill="#dda2a6"/>
      <path id="Path_3426" data-name="Path 3426" d="M343.81,435.67v16.107h15.766V435.945Z" transform="translate(-293.186 -371.514)" fill="#fff"/>
      <path id="Path_3430" data-name="Path 3430" d="M461.906,426.2l-.214-6.37-1.232,1.216.215,6.385Z" transform="translate(-392.659 -358.007)" fill="#f42072"/>
      <path id="Path_3431" data-name="Path 3431" d="M356.664,416.49l15.15.2.509.287-1.232,1.216-.426-.25-15.006-.426Z" transform="translate(-303.291 -355.159)" fill="#f42072"/>
    </g>
  </g>
</svg>
