<svg xmlns="http://www.w3.org/2000/svg" xmlns:xlink="http://www.w3.org/1999/xlink" width="295.632" height="89.018" viewBox="0 0 295.632 89.018">
  <defs>
    <linearGradient id="linear-gradient" x1="0.5" y1="1" x2="0.5" gradientUnits="objectBoundingBox">
      <stop offset="0" stop-color="gray" stop-opacity="0.251"/>
      <stop offset="0.54" stop-color="gray" stop-opacity="0.122"/>
      <stop offset="1" stop-color="gray" stop-opacity="0.102"/>
    </linearGradient>
  </defs>
  <g id="Group_1765" data-name="Group 1765" transform="translate(-40 -105)">
    <g id="Group_1407" data-name="Group 1407" transform="translate(197.948 105)">
      <rect id="Rectangle_566" data-name="Rectangle 566" width="137.684" height="1.006" transform="translate(0 88.011)" fill="#fff"/>
      <path id="Path_3248" data-name="Path 3248" d="M787.484,649.989c0,.774-4.511,3.03-9.87,3.03s-9.534-2.256-9.534-3.03,4.343-.525,9.707-.525S787.484,649.214,787.484,649.989Z" transform="translate(-678.402 -579.743)" fill="#504f60"/>
      <path id="Path_3249" data-name="Path 3249" d="M787.484,653.72c0,.774-4.511,3.03-9.87,3.03s-9.534-2.256-9.534-3.03" transform="translate(-678.402 -583.474)" opacity="0.2"/>
      <path id="Path_3250" data-name="Path 3250" d="M502.134,531.84a5.99,5.99,0,0,0,2.605-.088c.131-.041.275-.131.262-.262a.317.317,0,0,0-.059-.131,8.106,8.106,0,0,1-.787-1.5.131.131,0,0,0-.049-.068.123.123,0,0,0-.084,0c-.384.1-.716.349-1.1.455a1.561,1.561,0,0,1-.6.045c-.173-.02-.409-.163-.567-.144C501.849,530.72,502.067,531.255,502.134,531.84Z" transform="translate(-447.018 -475.796)" fill="#6c63ff"/>
      <path id="Path_3251" data-name="Path 3251" d="M623.675,514.685a4.552,4.552,0,0,0,1.506-1.414.245.245,0,0,0,.041-.122.252.252,0,0,0-.049-.118,4.874,4.874,0,0,0-1.224-1.321,3.572,3.572,0,0,0-.682.63c-.144.152-.543.394-.547.626,0,.131.152.283.223.394q.144.213.273.433A5.139,5.139,0,0,1,623.675,514.685Z" transform="translate(-552.111 -460.093)" fill="#6c63ff"/>
      <path id="Path_3252" data-name="Path 3252" d="M471.732,539.8a.583.583,0,0,1-.1.38.517.517,0,0,1-.22.131c-1.216.435-2.624-.108-3.837.321-.249.088-.485.215-.736.3a4,4,0,0,1-.918.163c-.429.041-.861.067-1.291.079a3.1,3.1,0,0,1-.973-.085,1.169,1.169,0,0,1-.746-.592.568.568,0,0,1-.037-.421.452.452,0,0,1,.08-.131,1.15,1.15,0,0,1,.286-.232l.447-.289a3,3,0,0,1,.678-.359c.177-.058.365-.083.544-.131a3.7,3.7,0,0,0,1.555-1.161l.609-.649a.613.613,0,0,1,.211-.169.587.587,0,0,1,.262-.025,3.509,3.509,0,0,1,1.659.556,2.152,2.152,0,0,0,.409.241,1.461,1.461,0,0,0,1.144-.142c.156-.084.122-.131.188-.281s.226-.245.365-.109a.386.386,0,0,1,.087.165,4.654,4.654,0,0,1,.081,1.352.6.6,0,0,0,.026.21,1.184,1.184,0,0,0,.119.194.446.446,0,0,1,.025.05,1.334,1.334,0,0,1,.088.634Z" transform="translate(-413.207 -481.997)" fill="#514e7f"/>
      <path id="Path_3253" data-name="Path 3253" d="M471.732,554.627a.584.584,0,0,1-.1.38.515.515,0,0,1-.22.131c-1.216.436-2.624-.108-3.837.321-.249.088-.485.215-.736.3a4,4,0,0,1-.918.163c-.429.041-.861.067-1.291.079a3.1,3.1,0,0,1-.973-.085,1.169,1.169,0,0,1-.746-.592.568.568,0,0,1-.037-.421.453.453,0,0,1,.08-.131c.071.148.122.345.167.416a.852.852,0,0,0,.569.411,1.414,1.414,0,0,0,.525-.067,26.416,26.416,0,0,0,3.332-.69,7.692,7.692,0,0,1,1.091-.42,8.574,8.574,0,0,1,1.181-.1c.622-.05,1.224-.237,1.837-.336A1.334,1.334,0,0,1,471.732,554.627Z" transform="translate(-413.207 -496.827)" fill="#464353"/>
      <path id="Path_3254" data-name="Path 3254" d="M605.61,519.869a2.212,2.212,0,0,1-.672,1.2,7.814,7.814,0,0,0-.941,1.028,8.283,8.283,0,0,1-.866,1.485,2.377,2.377,0,0,1-.525.374,3.665,3.665,0,0,1-.676.311,5.041,5.041,0,0,1-1.909.1,1.717,1.717,0,0,1-.606-.117,1.834,1.834,0,0,1-.252-.155,1.2,1.2,0,0,1-.394-.394.394.394,0,0,1-.038-.286.671.671,0,0,1,.182-.278,4.334,4.334,0,0,1,.462-.416,2.761,2.761,0,0,0,.6-.525,1.694,1.694,0,0,0,.232-.525,4.654,4.654,0,0,0,.169-1,3.176,3.176,0,0,1,.07-.672c.1-.346.354-.656.325-1.014a.253.253,0,0,1,.013-.154.214.214,0,0,1,.121-.075,2.14,2.14,0,0,1,.627-.146.73.73,0,0,1,.582.228c.089.108.148.262.279.3a.443.443,0,0,0,.2.008,1.671,1.671,0,0,0,.918-.282,1.145,1.145,0,0,0,.38-.836c0-.119-.054-.244.131-.262.139-.018.249.131.32.223a3.107,3.107,0,0,1,.614,1.118.331.331,0,0,1,.117-.022.508.508,0,0,1,.418.214A.833.833,0,0,1,605.61,519.869Z" transform="translate(-531.261 -465.357)" fill="#514e7f"/>
      <path id="Path_3255" data-name="Path 3255" d="M605.938,528.48a2.211,2.211,0,0,1-.672,1.2,7.834,7.834,0,0,0-.941,1.028,8.282,8.282,0,0,1-.866,1.485,2.372,2.372,0,0,1-.525.374,3.662,3.662,0,0,1-.676.311,5.041,5.041,0,0,1-1.909.1,1.717,1.717,0,0,1-.606-.117,1.826,1.826,0,0,1-.252-.155,1.2,1.2,0,0,1-.394-.394.959.959,0,0,1,.394-.094c.283.016.491.283.762.366.387.117.773-.156,1.165-.249a7.882,7.882,0,0,0,.778-.131,1.923,1.923,0,0,0,.576-.349,2.927,2.927,0,0,0,.615-.593,3.81,3.81,0,0,0,.361-.72,10.29,10.29,0,0,1,.729-1.4.988.988,0,0,1,.148-.194,2.059,2.059,0,0,1,.2-.146,1.525,1.525,0,0,0,.463-.845,1.48,1.48,0,0,1,.1-.282.508.508,0,0,1,.418.214A.833.833,0,0,1,605.938,528.48Z" transform="translate(-531.589 -473.968)" fill="#464353"/>
      <path id="Path_3256" data-name="Path 3256" d="M438.151,200.531a2.782,2.782,0,0,1,.787.918A18.949,18.949,0,0,1,440.119,205c.345-.348,1.705-.4,2.054-.752.146-.146.931-.872,1.049-1.042s.994-.525,1.09-.7c.358-.641-2.54-3.072-2.168-3.706a.165.165,0,0,0,.03-.1.163.163,0,0,0-.049-.077,4.346,4.346,0,0,0-.838-.573,1.329,1.329,0,0,1-.639-.761,2.755,2.755,0,0,0-.741.5q-.8.683-1.568,1.394c-.2.186-.589.434-.682.7C437.548,200.172,437.96,200.375,438.151,200.531Z" transform="translate(-391.309 -186.919)" fill="#a1616a"/>
      <path id="Path_3257" data-name="Path 3257" d="M453.12,214.13a8.533,8.533,0,0,0-1.241,1.015,2.47,2.47,0,0,0-.787,1.265c-.037.2-.031.394-.062.592-.131.859-.874,1.489-1.2,2.293a3.973,3.973,0,0,0-.209.767,9.075,9.075,0,0,0-.151,1.506c-.008.489.472.826.648,1.283a7.831,7.831,0,0,1,.312,1.394,16.523,16.523,0,0,0,.787,2.584c.647,1.787,2.743,6.726,3.39,8.514,1.982-.5,7.258-1.64,9.013-2.688.585-.349-4.06-4.286-3.434-4.557a.233.233,0,0,0,.176-.329c-.626-2.736-2.583-4.985-3.471-7.649a23.209,23.209,0,0,0-1.282-2.593c-.38-.8-.584-1.676-1.039-2.433a1.534,1.534,0,0,0-.332-.413,1.956,1.956,0,0,0-.366-.222C453.612,214.332,453.371,214.257,453.12,214.13Z" transform="translate(-401.587 -201.55)" fill="#04a18c"/>
      <circle id="Ellipse_159" data-name="Ellipse 159" cx="3.102" cy="3.102" r="3.102" transform="translate(43.844 7.097)" fill="#a1616a"/>
      <path id="Path_3258" data-name="Path 3258" d="M466.4,205.265a1.04,1.04,0,0,1,1.166-.168.564.564,0,0,1,.346.56l1.539.024a3.09,3.09,0,0,1,.729.067,1.06,1.06,0,0,1,.609.382c.018.025.039.055.071.059a.113.113,0,0,0,.071-.024,1.335,1.335,0,0,1,.766-.131,4.139,4.139,0,0,1,2.252.989.728.728,0,0,1,.262.327c.054.174-.01.394.131.518a18.471,18.471,0,0,0,.826,4.2,1.883,1.883,0,0,0,.466.669,2.7,2.7,0,0,1,.5.742c.281.729-.106,1.587.167,2.319a3.973,3.973,0,0,0,.525.833,2.154,2.154,0,0,1,.449,1.076c.012.176-.01.353,0,.525a3.18,3.18,0,0,0,.131.7q.168.635.352,1.269a2.879,2.879,0,0,0,1.07,1.781,8.738,8.738,0,0,1-4.438-.017,2.3,2.3,0,0,1-.554-.277,3.189,3.189,0,0,1-.972-1.566,7.4,7.4,0,0,1-.542-2.021,2.32,2.32,0,0,0-.093-.656,1.868,1.868,0,0,0-.871-.821,4.181,4.181,0,0,1-1.049-.816,1.631,1.631,0,0,1-.425-1.225c.026-.216.112-.425.119-.643a.5.5,0,0,0-.3-.525c-1.074-.325-1.587-1.6-1.826-2.694a8.648,8.648,0,0,1-.138-1.718l-.014-1.119a1.477,1.477,0,0,1-.483-1.061,1.261,1.261,0,0,0-.007-.352.969.969,0,0,0-.247-.374A3.336,3.336,0,0,1,466.4,205.265Z" transform="translate(-416.297 -193.608)" fill="#464353"/>
      <path id="Path_3259" data-name="Path 3259" d="M439.779,228.023a8.6,8.6,0,0,1-.034,1.042c-.03.131-.083.262-.121.384a2.256,2.256,0,0,0,.143,1.46,8.132,8.132,0,0,0,.746,1.292,2.1,2.1,0,0,1,.239.447,2.314,2.314,0,0,1,.092.51,15.852,15.852,0,0,0,.365,2.062,51.937,51.937,0,0,0,2.2,6.078.5.5,0,0,0,.3.2.545.545,0,0,0,.255-.052l.787-.3a.514.514,0,0,0,.182-.1.47.47,0,0,0,.113-.31,53.617,53.617,0,0,0-1.829-6.3,48.222,48.222,0,0,1-1.917-5.477,3.98,3.98,0,0,0-.563-1.751c-.159-.173-.1-.1-.3-.009a2.155,2.155,0,0,0-.278.146.911.911,0,0,0-.388.681Z" transform="translate(-392.981 -212.819)" fill="#464353"/>
      <path id="Path_3260" data-name="Path 3260" d="M556.62,320.79" transform="translate(-494.682 -294.218)" fill="#464353"/>
      <path id="Path_3261" data-name="Path 3261" d="M458.188,224.979c.211,1.116.429,2.23.645,3.346l3.08-.807a2.165,2.165,0,0,0-.262-.918c-.281-.7-.287-1.489-.514-2.213-.172-.551-.471-1.057-.632-1.612-.093-.323-.14-.656-.232-.983a7.139,7.139,0,0,0-.362-.938,5.872,5.872,0,0,0-.672-1.245,1.958,1.958,0,0,0-1.038.673,1.453,1.453,0,0,0-.192.656c-.054.691.2,1.387.114,2.074A6.1,6.1,0,0,0,458.188,224.979Z" transform="translate(-409 -206.311)" fill="#04e8ca"/>
      <path id="Path_3262" data-name="Path 3262" d="M476.874,329.637a3.679,3.679,0,0,1-.282,2,15.463,15.463,0,0,0-.627,3,2.6,2.6,0,0,1-.155.76c-.1.219-.262.4-.375.613a3.077,3.077,0,0,0-.235,1.844c.045.413.112.825.194,1.232a3.115,3.115,0,0,1,.08,1.5c.244-.054.409.262.394.51a1.361,1.361,0,0,0,.024.739c.3.11.3.525.3.846a7.116,7.116,0,0,0,.21,1.653q.685,3.293,1.453,6.567a5.07,5.07,0,0,0,3.461.226.694.694,0,0,0,.438-.441.769.769,0,0,0-.042-.338l-.5-1.823a3.349,3.349,0,0,1-.18-1.349c.049-.337.2-.7.03-1-.056-.1-.146-.182-.211-.279-.262-.384-.125-.9-.1-1.364a1.082,1.082,0,0,0-.021-.312,1.559,1.559,0,0,0-.15-.342,5.237,5.237,0,0,1-.577-2.605.644.644,0,0,0-.046-.34,1.106,1.106,0,0,1-.085-.139.381.381,0,0,1,.028-.251,2.3,2.3,0,0,1-.4-.394.565.565,0,0,0,.1-.884.3.3,0,0,0,.14-.508c-.064-.045-.15-.064-.2-.131-.071-.1-.013-.232.045-.336l.306-.552c.228-.411.279-.918.525-1.312a9.83,9.83,0,0,0,.808-1.844l.883-2.436.594.516a1.879,1.879,0,0,1,.488.556,2.4,2.4,0,0,1,.159.666c.218,1.322,1.049,2.469,1.358,3.771a2.484,2.484,0,0,0,.281.842,1.84,1.84,0,0,1,.16.241,1.281,1.281,0,0,1,.067.4,1.867,1.867,0,0,0,.787,1.338c.293.2.656.338.815.656a1.222,1.222,0,0,0,.131.279c.142.171.447.19.508.4.034.119-.029.262.038.367a.348.348,0,0,0,.146.109l.854.426c.955.478,1.443,1.574,2.147,2.373a5.114,5.114,0,0,1,.643.85c.3.544.445,1.228.959,1.574a1.451,1.451,0,0,1,.373.277c.161.212.1.51.117.778s.219.586.474.505a1.867,1.867,0,0,0,0,.99,4.985,4.985,0,0,0,3.025-1.225,1.193,1.193,0,0,0,.492-.826.3.3,0,0,0-.037-.164.468.468,0,0,0-.193-.146c-.8-.433-1.039-1.436-1.443-2.251a19.513,19.513,0,0,0-1.312-2.006c-.95-1.436-1.6-3.175-3.034-4.123a2.065,2.065,0,0,1-.842-.739c-.088-.193-.1-.413-.168-.613a.532.532,0,0,0-.449-.394,2.749,2.749,0,0,0,.1-.952,1.2,1.2,0,0,0-.047-.411,2,2,0,0,0-.211-.407,3.9,3.9,0,0,1-.54-2.1,3.441,3.441,0,0,0-.037-1.132c-.058-.182-.159-.349-.228-.525a3.278,3.278,0,0,1-.164-.986l-.079-1.261a6.2,6.2,0,0,0-.163-1.246c-.262-.979-.525-5.078-1.423-5.54s-2.443,2.693-3.454,2.755a4.5,4.5,0,0,0-1.312.253,6.39,6.39,0,0,0-1.787,1.181l-1.86,1.562A6.853,6.853,0,0,1,476.874,329.637Z" transform="translate(-423.91 -296.119)" fill="#464353"/>
      <path id="Path_3263" data-name="Path 3263" d="M414.924,163.877a2.339,2.339,0,0,1,1.805-.88,4.2,4.2,0,0,1,2,.5,2.465,2.465,0,0,0,.582.239c.328.067.693-.022.989.131a1.185,1.185,0,0,1,.436,1.181,2.168,2.168,0,0,0,.118,1.312,3.035,3.035,0,0,1,.227.342,1.132,1.132,0,0,1-.018.729,4.736,4.736,0,0,1-.376-.481.443.443,0,0,0-.543-.14c-.169.114-.167.321-.176.508s-.056.409-.232.47a.377.377,0,0,1-.394-.153c-.3-.367-.18-.954-.477-1.324-.169-.21-.451-.312-.607-.533-.123-.173-.155-.394-.262-.58s-.358-.323-.525-.194a.71.71,0,0,0-.14.188.807.807,0,0,1-.958.289,1.6,1.6,0,0,0-.415-.18.513.513,0,0,0-.474.262,1.025,1.025,0,0,0-.131.548,1.263,1.263,0,0,1-.1.752.778.778,0,0,1-.21.2.653.653,0,0,1-.727.075.546.546,0,0,1-.163-.509,4.124,4.124,0,0,1,.155-.538c.115-.407-.035-.864.091-1.248A3.983,3.983,0,0,1,414.924,163.877Z" transform="translate(-370.888 -157.123)" fill="#464353"/>
      <path id="Path_3264" data-name="Path 3264" d="M432.755,203.245a.478.478,0,0,0,.029.285.453.453,0,0,0,.155.148,3.183,3.183,0,0,0,1.461.474.445.445,0,0,1,.2.052.355.355,0,0,1,.085.407,1.059,1.059,0,0,0-.093.433c.038.274.363.394.638.434a1.483,1.483,0,0,0,1.11-.216,1.714,1.714,0,0,0,.458-.686c.753-1.73,1.017-3.643,1.779-5.368a1.138,1.138,0,0,0,.114-.359.354.354,0,0,0-.142-.331c-.142-.088-.362-.038-.458-.176-.047-.07-.042-.164-.084-.237-.088-.156-.319-.131-.476-.222-.123-.066-.209-.2-.346-.227a.435.435,0,0,0-.358.155,4.613,4.613,0,0,0-.931,1.568,18.371,18.371,0,0,1-1.333,2.471,1.441,1.441,0,0,0-.417-.817c-.235-.047-.535.365-.662.518A3.3,3.3,0,0,0,432.755,203.245Z" transform="translate(-387.057 -187.236)" fill="#04e8ca"/>
      <path id="Path_3265" data-name="Path 3265" d="M459.463,200.32a.628.628,0,0,0-.487.244,1.388,1.388,0,0,0-.2.656A5.7,5.7,0,0,1,458,203.3" transform="translate(-408.999 -189.551)" opacity="0.1"/>
      <path id="Path_3266" data-name="Path 3266" d="M464.763,204.31a.749.749,0,0,0-.636.382,2.144,2.144,0,0,0-.16.648,3.556,3.556,0,0,1-.636,1.363" transform="translate(-413.63 -193.018)" opacity="0.1"/>
      <path id="Path_3267" data-name="Path 3267" d="M225.849,359.071v-1.629a4.523,4.523,0,0,0-4.523-4.522H156.983a4.523,4.523,0,0,0-4.523,4.522v3Z" transform="translate(-143.54 -322.133)" fill="#dedede"/>
      <path id="Path_3268" data-name="Path 3268" d="M323.361,271.837s-.184,11.394,1.837,15.143,2.886,20.059,2.886,20.059,21.178,2.191,35.936-2.624,46.16-6.783,46.16-6.783l-5.292-35.667s-26.143-1.677-41.015,5.416S323.361,271.837,323.361,271.837Z" transform="translate(-292.018 -242.961)" fill="#8dd070"/>
      <path id="Path_3269" data-name="Path 3269" d="M323.361,271.837s-.184,11.394,1.837,15.143,2.886,20.059,2.886,20.059,21.178,2.191,35.936-2.624,46.16-6.783,46.16-6.783l-5.292-35.667s-26.143-1.677-41.015,5.416S323.361,271.837,323.361,271.837Z" transform="translate(-292.018 -242.961)" fill="#fff"/>
      <path id="Path_3270" data-name="Path 3270" d="M358.257,292.679s-.662,9.4,1,12.406S361,321.5,361,321.5s19.059.884,32.617-3.731,42.047-7.608,42.047-7.608l-3.238-29.168s-23.573-.243-37.331,6.253S358.257,292.679,358.257,292.679Z" transform="translate(-322.227 -259.64)" fill="#8b8a9f"/>
      <ellipse id="Ellipse_160" data-name="Ellipse 160" cx="4.948" cy="10.612" rx="4.948" ry="10.612" transform="translate(65.121 32.338) rotate(-7.1)" opacity="0.1"/>
      <path id="Path_3271" data-name="Path 3271" d="M341.764,130.66s-25.4,6.428-37.375,17.742-37.19,16.672-37.19,16.672,3.321,10.9,6.394,13.849,8.9,18.208,8.9,18.208,20.827-4.416,33.395-13.53,41.856-20.625,41.856-20.625Z" transform="translate(-243.228 -129.029)" opacity="0.2"/>
      <path id="Path_3272" data-name="Path 3272" d="M264.29,152.643s3.32,10.9,6.39,13.85,8.9,18.206,8.9,18.206,20.83-4.414,33.4-13.529,41.854-20.622,41.854-20.622L338.853,118.23s-25.4,6.428-37.373,17.742S264.29,152.643,264.29,152.643Z" transform="translate(-240.7 -118.23)" fill="#8dd070"/>
      <path id="Path_3273" data-name="Path 3273" d="M264.29,152.643s3.32,10.9,6.39,13.85,8.9,18.206,8.9,18.206,20.83-4.414,33.4-13.529,41.854-20.622,41.854-20.622L338.853,118.23s-25.4,6.428-37.373,17.742S264.29,152.643,264.29,152.643Z" transform="translate(-240.7 -118.23)" fill="#fff"/>
      <path id="Path_3274" data-name="Path 3274" d="M308,175.384s2.255,9.152,4.759,11.5,6.69,15.086,6.69,15.086,18.41-5.008,29.9-13.561,37.687-20.132,37.687-20.132L375,141.5s-22.509,7-33.611,17.406S308,175.384,308,175.384Z" transform="translate(-278.676 -138.447)" fill="#8b8a9f"/>
      <ellipse id="Ellipse_161" data-name="Ellipse 161" cx="4.948" cy="10.612" rx="4.948" ry="10.612" transform="translate(56.8 27.342) rotate(-24.97)" opacity="0.1"/>
      <path id="Path_3275" data-name="Path 3275" d="M227.612,381.782V427.04a3.913,3.913,0,0,1-3.914,3.913H156.4a3.913,3.913,0,0,1-3.912-3.913V377.22a6.911,6.911,0,0,0,3.912.656h67.3a3.914,3.914,0,0,1,3.914,3.907Z" transform="translate(-143.566 -343.246)" opacity="0.1"/>
      <path id="Path_3276" data-name="Path 3276" d="M227.612,386.164v45.257a3.914,3.914,0,0,1-3.914,3.913H156.4a3.913,3.913,0,0,1-3.912-3.913V381.6a6.933,6.933,0,0,0,3.912.656h67.3A3.914,3.914,0,0,1,227.612,386.164Z" transform="translate(-143.566 -347.051)" fill="#fff"/>
      <path id="Path_3277" data-name="Path 3277" d="M582.794,543.936v14.473H568.757a7.237,7.237,0,1,1,0-14.474Z" transform="translate(-498.939 -488.091)" opacity="0.1"/>
      <path id="Path_3278" data-name="Path 3278" d="M584.254,541v14.476H570.217a7.237,7.237,0,1,1,0-14.474Z" transform="translate(-500.208 -485.541)" fill="#01d7bb"/>
      <circle id="Ellipse_162" data-name="Ellipse 162" cx="2.822" cy="2.822" r="2.822" transform="translate(67.861 60.26)" opacity="0.1"/>
      <circle id="Ellipse_163" data-name="Ellipse 163" cx="2.822" cy="2.822" r="2.822" transform="translate(68.052 59.877)" fill="#fff"/>
      <path id="Path_3279" data-name="Path 3279" d="M850.021,526.637c.112,1.208-.8,2.381-.537,3.564.058.253.167.492.206.748a2.874,2.874,0,0,1-.708,1.956l-3.437,5.043a3.128,3.128,0,0,1-.491.606c-.656.585-1.642.525-2.505.7a4.282,4.282,0,0,0-1.679.742.108.108,0,0,0-.016.147,1.443,1.443,0,0,0,1.249.586c.091.119,0,.294-.131.379-.185.131-.438.163-.475.475a.515.515,0,0,0,.063.315.977.977,0,0,0,.6.418,3.57,3.57,0,0,0,3.366-1.145c.891-.87,1.53-1.968,2.4-2.853.484-.489,1.034-.909,1.532-1.384a17.542,17.542,0,0,0,2.513-3.252,3.629,3.629,0,0,0,.544-1.107c.094-.4.05-.809.156-1.2a4.415,4.415,0,0,1,.824-1.347,4.458,4.458,0,0,0,.937-2.9,2.781,2.781,0,0,0-1.7-2.407,1.509,1.509,0,0,0-.951-.058,2.26,2.26,0,0,0-.968.77l-.656.754a1.767,1.767,0,0,0-.38.577.6.6,0,0,0,.131.641" transform="translate(-741.611 -471.302)" fill="#fbbebe"/>
      <path id="Path_3280" data-name="Path 3280" d="M850.021,526.637c.112,1.208-.8,2.381-.537,3.564.058.253.167.492.206.748a2.874,2.874,0,0,1-.708,1.956l-3.437,5.043a3.128,3.128,0,0,1-.491.606c-.656.585-1.642.525-2.505.7a4.282,4.282,0,0,0-1.679.742.108.108,0,0,0-.016.147,1.443,1.443,0,0,0,1.249.586c.091.119,0,.294-.131.379-.185.131-.438.163-.475.475a.515.515,0,0,0,.063.315.977.977,0,0,0,.6.418,3.57,3.57,0,0,0,3.366-1.145c.891-.87,1.53-1.968,2.4-2.853.484-.489,1.034-.909,1.532-1.384a17.542,17.542,0,0,0,2.513-3.252,3.629,3.629,0,0,0,.544-1.107c.094-.4.05-.809.156-1.2a4.415,4.415,0,0,1,.824-1.347,4.458,4.458,0,0,0,.937-2.9,2.781,2.781,0,0,0-1.7-2.407,1.509,1.509,0,0,0-.951-.058,2.26,2.26,0,0,0-.968.77l-.656.754a1.767,1.767,0,0,0-.38.577.6.6,0,0,0,.131.641" transform="translate(-741.611 -471.302)" opacity="0.05"/>
      <path id="Path_3281" data-name="Path 3281" d="M910.835,767.9a3.979,3.979,0,0,1-2.558.379c-.14-.017-.307-.028-.394.081-.131.157.024.394.184.516a3.784,3.784,0,0,0,1.757.723,11.56,11.56,0,0,0,1.718.114,29.042,29.042,0,0,0,4.7-.172.664.664,0,0,0,.262-.076.48.48,0,0,0,.194-.3,1.171,1.171,0,0,0-.408-1.118,3.424,3.424,0,0,0-1.1-.588l-1.364-.531a3.506,3.506,0,0,0-1.181-.429C911.995,766.547,911.377,767.578,910.835,767.9Z" transform="translate(-799.824 -681.459)" fill="#3f3d56"/>
      <path id="Path_3282" data-name="Path 3282" d="M910.835,767.9a3.979,3.979,0,0,1-2.558.379c-.14-.017-.307-.028-.394.081-.131.157.024.394.184.516a3.784,3.784,0,0,0,1.757.723,11.56,11.56,0,0,0,1.718.114,29.042,29.042,0,0,0,4.7-.172.664.664,0,0,0,.262-.076.48.48,0,0,0,.194-.3,1.171,1.171,0,0,0-.408-1.118,3.424,3.424,0,0,0-1.1-.588l-1.364-.531a3.506,3.506,0,0,0-1.181-.429C911.995,766.547,911.377,767.578,910.835,767.9Z" transform="translate(-799.824 -681.459)" opacity="0.05"/>
      <path id="Path_3283" data-name="Path 3283" d="M931.136,587.815a3.63,3.63,0,0,0-1.015,2.563,5.71,5.71,0,0,0,.565,1.414,9.98,9.98,0,0,1,.572,1.989c.213.989.426,1.981.556,2.986.148,1.135-.548,4.418-.613,5.561a1.175,1.175,0,0,1-.24.771c-.075.079-.174.142-.209.244a.417.417,0,0,0,.046.289A3.175,3.175,0,0,0,932.5,605.2a13.491,13.491,0,0,0,3.289.865.656.656,0,0,0,.31-.041.6.6,0,0,0,.239-.274c.571-1.091.022-4.972.03-6.2.008-1.027.251-2.048.206-3.074-.037-.824-.262-1.629-.337-2.45a14.462,14.462,0,0,1,.363-4.029c.189-1.021.379-2.041.622-3.049a5.851,5.851,0,0,1,.656-1.77c.262-.424.631-.778.937-1.181a5.329,5.329,0,0,0,1.049-3.9,10.223,10.223,0,0,0-2.14.569,6.666,6.666,0,0,0-1.907,1.227,16.043,16.043,0,0,0-1.2,1.486q-.838,1.022-1.656,2.058Q932.031,586.616,931.136,587.815Z" transform="translate(-819.169 -519.488)" fill="#464353"/>
      <path id="Path_3284" data-name="Path 3284" d="M931.136,587.508a3.632,3.632,0,0,0-1.015,2.563,5.7,5.7,0,0,0,.565,1.415,9.966,9.966,0,0,1,.572,1.987c.213.99.426,1.982.556,2.986.148,1.136-.548,4.418-.613,5.561a1.179,1.179,0,0,1-.24.773c-.075.077-.174.14-.209.243a.416.416,0,0,0,.046.289A3.213,3.213,0,0,0,932.5,604.9a12.671,12.671,0,0,0,3.289.615.656.656,0,0,0,.31-.041.593.593,0,0,0,.239-.273c.571-1.091.022-4.722.03-5.956.008-1.028.251-2.048.206-3.075-.037-.824-.262-1.629-.337-2.449a14.466,14.466,0,0,1,.363-4.03c.189-1.019.379-2.04.622-3.049a5.851,5.851,0,0,1,.656-1.77c.262-.424.631-.778.937-1.181a5.326,5.326,0,0,0,1.049-3.9,10.223,10.223,0,0,0-2.14.569,6.7,6.7,0,0,0-1.907,1.228,15.849,15.849,0,0,0-1.2,1.485q-.838,1.022-1.656,2.06Q932.031,586.308,931.136,587.508Z" transform="translate(-819.169 -519.227)" opacity="0.05"/>
      <circle id="Ellipse_164" data-name="Ellipse 164" cx="3.184" cy="3.184" r="3.184" transform="translate(102.464 45.318)" fill="#fbbebe"/>
      <path id="Path_3285" data-name="Path 3285" d="M891.577,482.916a4.123,4.123,0,0,0,2.643,1.844l-.24.872a8.27,8.27,0,0,1-2.037,4.122,1.916,1.916,0,0,0-.323-1.49,5.619,5.619,0,0,0-1.081-1.129l-1.833-1.587a.553.553,0,0,1-.131-.155.465.465,0,0,1,0-.349,4.253,4.253,0,0,1,1.443-1.671,5,5,0,0,0,.725-.845C891.11,482.006,891.337,482.53,891.577,482.916Z" transform="translate(-783.062 -434.549)" fill="#fbbebe"/>
      <path id="Path_3286" data-name="Path 3286" d="M852.594,446.64l-.072-.6c.5.131.98-.3,1.3-.739s.619-.963,1.108-1.148a2.3,2.3,0,0,1,1.792.43,5.667,5.667,0,0,0,2.056.669,1.353,1.353,0,0,1,.34.055,1.182,1.182,0,0,1,.6,1.017,3.976,3.976,0,0,0,.222,1.244c.131.285.375.5.525.777.394.753.013,1.783.424,2.521l-1.021-.935c-.093-.085-.224-.174-.328-.1-.081.058-.088.182-.121.282a.536.536,0,0,1-.727.262,2.084,2.084,0,0,1-.656-.594,3.981,3.981,0,0,0-1.619-1.228,2.078,2.078,0,0,0-1.705.113c-.476.269-.825.9-1.409.918-.8.03-1.133-1.46-1.5-2.049a.721.721,0,0,0,.21-.9C852.064,446.61,852.582,446.548,852.594,446.64Z" transform="translate(-751.14 -401.34)" fill="#464353"/>
      <path id="Path_3287" data-name="Path 3287" d="M550.821,316.674a6.192,6.192,0,0,0-.707.742,1.486,1.486,0,0,0-.325.954.488.488,0,0,0,.092.279.236.236,0,0,0,.262.08.353.353,0,0,0,.131-.115,6.326,6.326,0,0,1,.441-.478c.056-.056.131-.115.207-.094a.221.221,0,0,1,.089.059.6.6,0,0,1,.185.289.68.68,0,0,1-.2.559,1.431,1.431,0,0,0-.342.506.224.224,0,0,0,0,.163.244.244,0,0,0,.1.087,1.464,1.464,0,0,0,1.238.081c.262-.106.5-.289.766-.383a1.773,1.773,0,0,0,.338-.131.7.7,0,0,0,.3-.45,1.852,1.852,0,0,0,.02-.552,6.352,6.352,0,0,0-.451-2.077.263.263,0,0,0-.076-.11.243.243,0,0,0-.131-.035,3.119,3.119,0,0,0-1.211-.083.856.856,0,0,0-.286.254C551.2,316.285,550.821,316.586,550.821,316.674Z" transform="translate(-488.746 -289.986)" fill="#a1616a"/>
      <path id="Path_3288" data-name="Path 3288" d="M525.655,238.213c0-.32-.394-1.093.232-1.144,0-.342-.484-.555-.394-.918.029-.121.131-.219.143-.342.039-.35-.593-.54-.488-.876.039-.131.178-.207.209-.337.071-.3-.471-.438-.481-.749,0-.1.059-.2.054-.308,0-.131-.114-.231-.177-.345-.164-.293-.084-.745-.383-.9.2.017.262-.277.181-.457s-.248-.336-.249-.535a.808.808,0,0,0,0-.218c-.055-.192-.369-.207-.421-.394a1.676,1.676,0,0,1-.007-.215c-.021-.148-.173-.243-.316-.285a1.29,1.29,0,0,1-.422-.151c-.092-.07-.2-.185-.3-.131-.037.022-.055.064-.083.1-.118.138-.344.077-.492-.024a2.021,2.021,0,0,1-.749-1.352c-.093-.521-.091-1.059-.207-1.574a3.359,3.359,0,0,0-.142-.472,2.488,2.488,0,0,1-.22-.47c-.024-.3.6-.1.838-.066a3.73,3.73,0,0,1,.681.131,7.278,7.278,0,0,1,.7.306c.947.418,2.091.47,2.852,1.173a2.39,2.39,0,0,0,.787.639,3.559,3.559,0,0,1,.441.114c.361.169.417.648.614.994a1.948,1.948,0,0,1,.161.289,1.112,1.112,0,0,1,.052.367l.028.909a33.523,33.523,0,0,1-.073,4.564,3.741,3.741,0,0,0,.017,1.494c.039.131.094.255.131.387a2.361,2.361,0,0,1,.05.472l.021.589a.184.184,0,0,1-.029.131.189.189,0,0,1-.159.038c-.82-.073-1.649-.535-2.423-.256" transform="translate(-463.687 -211.822)" fill="#464353"/>
      <ellipse id="Ellipse_165" data-name="Ellipse 165" cx="9.702" cy="1.402" rx="9.702" ry="1.402" transform="translate(89.681 68.843)" fill="#504f60"/>
      <path id="Path_3289" data-name="Path 3289" d="M705.842,238.55c-.171-.731-.277-1.372-.277-1.372a2.828,2.828,0,0,0-.318-1.392v-.2h0v-1.469a5.014,5.014,0,0,1,.371-.77,5.793,5.793,0,0,0,0-2.154,9.531,9.531,0,0,1-.742-3.9c.237-1.514-2.012-6.722-2.012-6.722a6.641,6.641,0,0,1,.211-1.488,1.133,1.133,0,0,0,.029-.312v-.026a11.561,11.561,0,0,0-.824-2.869l.106-3.565a10.482,10.482,0,0,0-.317-4.926c-.287-.985-.471-1.774-.588-2.382-.013-.068-.026-.131-.037-.2,1.691-.262,2.983-.472,2.983-.472s-.981-4.1-1.644-4.824a9.481,9.481,0,0,1-1.192-2.976s-.345-2.9.213-3.745a5.632,5.632,0,0,0,.636-2.309s1.271-.918,1.431-1.334a6.807,6.807,0,0,0,.424-1.821c0-.487-.159-.918-.106-1.181s-.371-1.232-.159-1.694a1.241,1.241,0,0,0,.084-.445.059.059,0,0,0,0-.013h0a6.233,6.233,0,0,0-.112-1.2,3.417,3.417,0,0,0-1.259-.673l-.028-.11-.072-.289a1.39,1.39,0,0,0-.125-.073v-.1l-.012-.417.2-.937c.394-1.629-1.783-1.872-1.783-1.872a1.148,1.148,0,0,0-.617-.54c-.437-.153-.072,2.45.131,2.624a10.263,10.263,0,0,1,.858,1.343h0l.037.066a.918.918,0,0,0-.1.1l.083.565.013.087a2.346,2.346,0,0,0-.348.592,1.276,1.276,0,0,1,.319.918,2.942,2.942,0,0,0,.131,1.128c-.024-.028-.3-.329-.582-.256s-1.06.308-1.06.308-.582.1-.525.231-.394.693-.394.693L697.3,184.69c-.016-.045-.033-.089-.046-.131a3.606,3.606,0,0,1-.131-.656,3.579,3.579,0,0,0,.5-.159,1.081,1.081,0,0,0,.433-.278,1.679,1.679,0,0,0,.253-.676,9.927,9.927,0,0,1,.581-1.3,4.213,4.213,0,0,0,.3-2.332,1.522,1.522,0,0,0-.24-.682c-.256-.352-.72-.495-1.057-.775s-.555-.71-.948-.918a1.881,1.881,0,0,0-1.189-.1,6.406,6.406,0,0,0-2.221.808,1.156,1.156,0,0,1-.742.244.97.97,0,0,1-.535-.394.14.14,0,0,1,.007-.021.134.134,0,0,1-.017-.021,2.767,2.767,0,0,0-.244,1.173,1.444,1.444,0,0,0,.008.188v.119h0a.3.3,0,0,1-.012.083.6.6,0,0,1-.147.211,1.41,1.41,0,0,0-.131.174.216.216,0,0,1,.021-.064.933.933,0,0,0-.163.495.5.5,0,0,0,.118.354,1.705,1.705,0,0,0,.256.2,2.99,2.99,0,0,0-.047.525,3.032,3.032,0,0,0,1.477,2.586c.018.043.035.088.052.131a3.736,3.736,0,0,1,.285,1.705.8.8,0,0,1-.018.123c-.007.041-.039.043-.056.066h0s-2.588.026-3.2-.525-1.537,1.347-1.537,1.347-.927.18-1.114,0-1.271-.025-1.271-.025a2.339,2.339,0,0,0-1.617-.59,4.748,4.748,0,0,0-1.181-.656h0l-.029-.01h0a1.322,1.322,0,0,0-.584-.073,11.784,11.784,0,0,1-1.644-1.616c-.371-.567-2.138-2.659-2.146-2.668v-.1l-.02-.3a1.09,1.09,0,0,1-.159.013c-.009-.03-.022-.066-.035-.106a5.868,5.868,0,0,0-.375-.862s0-.384.112-.481a6.636,6.636,0,0,0-.046-1.507s-1.147-2.68-2.174-.68c0,0-1.941,1.295-.312,2.8,0,0,.656.315.742.564.06.161.281.614.429.918l.067.131-.018.016.024.252.01.1c-.307.174-.516.348-.464.477a2.871,2.871,0,0,1,.185.693s2.254,2.823,2.545,4.029c0,0,6.043,3.592,8.031,3.848l-.352,1.791a14.278,14.278,0,0,0-.079,1.463c.026.384-.239,2.129-.239,2.129a14.238,14.238,0,0,1-.636,2.925,4.928,4.928,0,0,0-.239,1.9,12.973,12.973,0,0,1-.393,2.18,5.571,5.571,0,0,0-.08,2.182s-1.006,2.309,1.4.744c0,0,1.181-.073,2.548-.121v.131c0,.176,0,.366-.009.565-.018,1.322-.026,3.148.034,4.523.106,2.437.849,7.261.849,7.261v2.428a3.309,3.309,0,0,0-.071.693,4.508,4.508,0,0,0,.656,2.426l.186,1.616a6.3,6.3,0,0,1,.443,1.705.9.9,0,0,1-.018.153,1.031,1.031,0,0,0-.021.248,13.962,13.962,0,0,0,.417,2.492s.026,1.77.291,1.873c.227.088-.3,1.019-.46,1.287a.364.364,0,0,1-.009-.05l-.033.052a1.258,1.258,0,0,0-.083.449.643.643,0,0,0,.294.622c.5.308.774.564.346.666a4.459,4.459,0,0,0-.467.1.2.2,0,0,0-.022-.059.281.281,0,0,0-.174.31,1.312,1.312,0,0,0,.156.6,6.5,6.5,0,0,0,.718,1.312l.2-.022a.988.988,0,0,1-.118.219.845.845,0,0,1-.3.262.926.926,0,0,1-.363.125,1.023,1.023,0,0,0-.75.365.783.783,0,0,0,.092,1.217l1.9.656s3.261.424,3.088-.308-.278-1.372-.278-1.372a2.892,2.892,0,0,0-.262-1.3,1.693,1.693,0,0,0-.115-.192l.115-.012a6.005,6.005,0,0,1,.556-1.924c.073-.071.091-.131.073-.168.033-.088-.051-.139-.157-.169l-.024.064a1.547,1.547,0,0,0-.316-.035s-.106-.846.239-1.154a.327.327,0,0,0,.067-.252,1.356,1.356,0,0,0-.037-.345.181.181,0,0,1-.012.021,12.428,12.428,0,0,0-.761-1.99,2.433,2.433,0,0,1,.186-1.077,27.131,27.131,0,0,0-.028-4.182,12.656,12.656,0,0,0-.159-2.744,3.08,3.08,0,0,1,.291-1.9v-.068l-.03-.3a.077.077,0,0,0,0,.018c-.054-.5-.155-1.394-.23-1.809-.106-.59.028-3.411.028-3.411l.476-1.207.849,2.079.9,2.771a2.367,2.367,0,0,1,.457,1.181v.087a1.5,1.5,0,0,0-.01.185,1.648,1.648,0,0,0,.274.988,4.272,4.272,0,0,0,.61,1.641,1.473,1.473,0,0,1,.371.975,17.037,17.037,0,0,0,.656,2.23,3.316,3.316,0,0,1,.186,1.29h0v.068s.063.68.06,1.249v.2a.052.052,0,0,0,0-.014,1.975,1.975,0,0,1-.055.462l-.008.026a.336.336,0,0,1,.009-.1,4.818,4.818,0,0,0-.131,1.181,3.057,3.057,0,0,0,.505,1.968c.716.821,1.166.719,1.166.719s-.344,1.026-.769,1.232a.2.2,0,0,0-.045.029.437.437,0,0,0-.01-.06.5.5,0,0,0-.131.383,2.751,2.751,0,0,0,.525,1.52.857.857,0,0,0,.358.21.573.573,0,0,1-.067.041,1.424,1.424,0,0,1-.146.07.765.765,0,0,1-.216.056,1.01,1.01,0,0,0-.75.365.781.781,0,0,0,.092,1.216l1.9.656S706.012,239.28,705.842,238.55Z" transform="translate(-598.111 -168.236)" fill="url(#linear-gradient)"/>
      <path id="Path_3290" data-name="Path 3290" d="M796.434,639.657,794.6,639a.8.8,0,0,1-.089-1.217.981.981,0,0,1,.727-.365.871.871,0,0,0,.35-.125.839.839,0,0,0,.291-.262,1.355,1.355,0,0,0,.209-.71s2.015-.59,2.566,0a1.49,1.49,0,0,1,.244.358,3,3,0,0,1,.262,1.3s.1.64.269,1.372S796.434,639.657,796.434,639.657Z" transform="translate(-701.154 -568.131)" fill="#2d293d"/>
      <path id="Path_3291" data-name="Path 3291" d="M864.874,632.74l-1.837-.656a.8.8,0,0,1-.089-1.216.969.969,0,0,1,.725-.365.681.681,0,0,0,.21-.056,1.39,1.39,0,0,0,.142-.07,1.161,1.161,0,0,0,.5-.975s2.014-.59,2.566,0a1.455,1.455,0,0,1,.193.262,2.915,2.915,0,0,1,.307,1.393s.1.641.262,1.372S864.874,632.74,864.874,632.74Z" transform="translate(-760.616 -562.119)" fill="#2d293d"/>
      <path id="Path_3292" data-name="Path 3292" d="M809.333,636.31a1.491,1.491,0,0,1,.244.358h0l-3.017.35a1.355,1.355,0,0,0,.209-.71S808.782,635.72,809.333,636.31Z" transform="translate(-711.835 -568.12)" opacity="0.1"/>
      <path id="Path_3293" data-name="Path 3293" d="M875.1,629.685v.565c-.47.773-2.74.6-3.4.216a1.41,1.41,0,0,0,.142-.07,1.162,1.162,0,0,0,.5-.975s2.014-.59,2.566,0A1.457,1.457,0,0,1,875.1,629.685Z" transform="translate(-768.43 -562.136)" opacity="0.1"/>
      <path id="Path_3294" data-name="Path 3294" d="M798.787,415.942a5.141,5.141,0,0,0-.358.77v2.027c-.514.846-3.181.564-3.542.1s-.737-1.663-.332-1.872.744-1.232.744-1.232-.437.1-1.129-.719-.487-2.642-.358-3.078a9.092,9.092,0,0,0,0-1.9,3.814,3.814,0,0,0-.178-1.36,16.929,16.929,0,0,1-.641-2.23,1.51,1.51,0,0,0-.359-.975,4.39,4.39,0,0,1-.59-1.642,1.683,1.683,0,0,1-.256-1.1,2.241,2.241,0,0,0-.437-1.334l-.872-2.772-.821-2.078-.462,1.206s-.131,2.822-.025,3.411.262,2.155.262,2.155a3.164,3.164,0,0,0-.282,1.9,12.955,12.955,0,0,1,.147,2.747,27.989,27.989,0,0,1,.025,4.181,2.5,2.5,0,0,0-.18,1.078s1.049,2.256.719,2.565-.231,1.154-.231,1.154.718,0,.411.308a6.182,6.182,0,0,0-.539,1.924l-3.1.363a6.455,6.455,0,0,1-.694-1.312c-.411-.954.076-.846.489-.95s.152-.358-.336-.666-.2-1-.2-1,.744-1.257.487-1.359-.282-1.873-.282-1.873a11.4,11.4,0,0,1-.384-2.668,5.1,5.1,0,0,0-.411-1.923l-.18-1.616a4.447,4.447,0,0,1-.564-3.054v-2.492s-.719-4.822-.821-7.26c-.066-1.561-.047-3.691-.026-5.02.013-.745.026-1.24.026-1.24l11.082-1.154a9.264,9.264,0,0,0,.2,1.646c.114.609.291,1.4.569,2.382a10.824,10.824,0,0,1,.308,4.924l-.1,3.567s.975,2.385.77,3.206a6.839,6.839,0,0,0-.207,1.49s2.18,5.208,1.949,6.722a9.789,9.789,0,0,0,.718,3.9A5.9,5.9,0,0,1,798.787,415.942Z" transform="translate(-691.758 -350.83)" fill="#464353"/>
      <path id="Path_3295" data-name="Path 3295" d="M852.05,509.72l3.374-.45S853.513,511.221,852.05,509.72Z" transform="translate(-751.357 -457.973)" opacity="0.05"/>
      <path id="Path_3296" data-name="Path 3296" d="M869.975,484.14s.115,1.194-.615,1.642C869.36,485.782,870.668,485.578,869.975,484.14Z" transform="translate(-766.397 -436.14)" opacity="0.1"/>
      <path id="Path_3297" data-name="Path 3297" d="M846.056,455.2s-2.82,2.322-3.846,2.129S846.056,455.2,846.056,455.2Z" transform="translate(-742.685 -410.996)" opacity="0.1"/>
      <path id="Path_3298" data-name="Path 3298" d="M805.548,521s-2.142.487-2.206,1.347S805.548,521,805.548,521Z" transform="translate(-709.037 -468.165)" opacity="0.1"/>
      <path id="Path_3299" data-name="Path 3299" d="M808.39,602.56s-3.026.564-2.167.948a14.687,14.687,0,0,0,2.271.693S809.471,604.252,808.39,602.56Z" transform="translate(-711.408 -539.025)" opacity="0.05"/>
      <g id="Group_1405" data-name="Group 1405" transform="translate(91.694 36.194)" opacity="0.05">
        <path id="Path_3300" data-name="Path 3300" d="M800,611.548a.6.6,0,0,1-.277-.438l-.031.054s-.282.693.206,1c.055.035.109.071.157.1.091-.017.188-.03.281-.054C800.75,612.112,800.489,611.856,800,611.548Z" transform="translate(-797.492 -582.648)"/>
        <path id="Path_3301" data-name="Path 3301" d="M831.362,609.4c.084-.076.081-.273.03-.525a1.475,1.475,0,0,0-.172.742A.64.64,0,0,1,831.362,609.4Z" transform="translate(-824.953 -580.71)"/>
        <path id="Path_3302" data-name="Path 3302" d="M827.395,515.59a3.5,3.5,0,0,0-.2.943,3.8,3.8,0,0,1,.235-.648Z" transform="translate(-821.452 -499.658)"/>
        <path id="Path_3303" data-name="Path 3303" d="M881.216,503.471a1.2,1.2,0,0,0,.028-.281c-.038.192-.064.369-.084.525C881.177,503.635,881.2,503.559,881.216,503.471Z" transform="translate(-868.342 -488.885)"/>
        <path id="Path_3304" data-name="Path 3304" d="M827.722,581.341a1.641,1.641,0,0,0,.076-.571,1.938,1.938,0,0,0-.148.72.689.689,0,0,1,.072-.15Z" transform="translate(-821.852 -556.288)"/>
        <path id="Path_3305" data-name="Path 3305" d="M803.8,622a10.182,10.182,0,0,0-.353,1.574l-3.1.358a6.453,6.453,0,0,1-.694-1.312,2.4,2.4,0,0,1-.088-.226c-.186.085-.262.278-.016.841a6.558,6.558,0,0,0,.7,1.312l3.1-.359a6.171,6.171,0,0,1,.538-1.924C804.038,622.115,803.941,622.038,803.8,622Z" transform="translate(-797.298 -592.109)"/>
        <path id="Path_3306" data-name="Path 3306" d="M785.856,419.424s.025,1.77.282,1.872h0c.131-.293.216-.571.1-.617-.262-.1-.282-1.873-.282-1.873a11.4,11.4,0,0,1-.384-2.668,5.1,5.1,0,0,0-.411-1.923l-.18-1.616a4.447,4.447,0,0,1-.564-3.054v-2.492s-.719-4.822-.821-7.26c-.066-1.561-.047-3.691-.026-5.02,0-.24.008-.453.012-.632l-.088.009s-.014.493-.026,1.24c-.021,1.329-.041,3.459.026,5.019.1,2.437.82,7.261.82,7.261v2.492a4.45,4.45,0,0,0,.565,3.053l.178,1.616a5.132,5.132,0,0,1,.411,1.924A11.416,11.416,0,0,0,785.856,419.424Z" transform="translate(-783.448 -394.14)"/>
        <path id="Path_3307" data-name="Path 3307" d="M867.359,623.389a3,3,0,0,1-.492-1.219c-.316.286.047,1.4.394,1.836.358.462,3.026.744,3.542-.1v-.488C870.1,624.1,867.7,623.825,867.359,623.389Z" transform="translate(-855.819 -592.257)"/>
        <path id="Path_3308" data-name="Path 3308" d="M898.759,609.247a5.185,5.185,0,0,0-.359.77v.363a5.4,5.4,0,0,1,.262-.514,1.575,1.575,0,0,0,.113-.636Z" transform="translate(-883.321 -581.014)"/>
        <path id="Path_3309" data-name="Path 3309" d="M862.888,587.341a5.061,5.061,0,0,0,.253-.61s-.437.1-1.129-.719a3.644,3.644,0,0,1-.46-2.462c-.131.437-.334,2.258.358,3.079A1.826,1.826,0,0,0,862.888,587.341Z" transform="translate(-851.19 -558.703)"/>
        <path id="Path_3310" data-name="Path 3310" d="M832.411,475.621a13.681,13.681,0,0,1,.051,1.52,2.076,2.076,0,0,1,.052-.237,8.91,8.91,0,0,0,0-1.9,3.793,3.793,0,0,0-.18-1.36,16.552,16.552,0,0,1-.635-2.233,1.51,1.51,0,0,0-.359-.975,4.389,4.389,0,0,1-.59-1.642,1.689,1.689,0,0,1-.262-1.1,2.234,2.234,0,0,0-.435-1.334l-.872-2.771-.821-2.078-.463,1.207s0,.152-.016.394l.375-.98.821,2.074.872,2.771a2.234,2.234,0,0,1,.436,1.334,1.688,1.688,0,0,0,.262,1.1,4.374,4.374,0,0,0,.59,1.642,1.5,1.5,0,0,1,.358.975,16.868,16.868,0,0,0,.642,2.23A3.793,3.793,0,0,1,832.411,475.621Z" transform="translate(-822.051 -452.672)"/>
      </g>
      <path id="Path_3311" data-name="Path 3311" d="M862.142,193.276l-.193.937.012.417.008.307-1.07.11-.119-.222h0a9.941,9.941,0,0,0-.83-1.343c-.2-.165-.551-2.771-.131-2.616a1.119,1.119,0,0,1,.6.539S862.521,191.647,862.142,193.276Z" transform="translate(-757.935 -181.332)" fill="#ffcdd3"/>
      <path id="Path_3312" data-name="Path 3312" d="M869.64,219.077l-1.07.11-.119-.222h0a.943.943,0,0,1,1.181-.194Z" transform="translate(-765.606 -205.472)" opacity="0.1"/>
      <path id="Path_3313" data-name="Path 3313" d="M869.5,220.228l-1.411.327-.03-.21-.08-.565a.971.971,0,0,1,1.367-.186l.071.287Z" transform="translate(-765.198 -206.116)" fill="#01d7bb"/>
      <path id="Path_3314" data-name="Path 3314" d="M682.755,180.239l-1.507.808-.131-.283c-.143-.3-.357-.753-.416-.918-.089-.249-.718-.564-.718-.564-1.574-1.507.3-2.8.3-2.8.994-2,2.1.68,2.1.68a6.792,6.792,0,0,1,.046,1.507c-.109.094-.109.481-.109.481a5.919,5.919,0,0,1,.363.862C682.73,180.151,682.755,180.239,682.755,180.239Z" transform="translate(-601.316 -168.192)" fill="#ffcdd3"/>
      <path id="Path_3315" data-name="Path 3315" d="M694.428,208.483l-1.507.808-.131-.283c.213-.178.967-.787,1.215-.762a1.816,1.816,0,0,0,.357.009C694.4,208.395,694.428,208.483,694.428,208.483Z" transform="translate(-612.989 -196.436)" opacity="0.1"/>
      <path id="Path_3316" data-name="Path 3316" d="M694.851,209.623l-1.694.834-.034-.363-.024-.252s.981-.841,1.271-.808a1.541,1.541,0,0,0,.442,0l.02.3Z" transform="translate(-613.258 -197.121)" fill="#01d7bb"/>
      <path id="Path_3317" data-name="Path 3317" d="M806.654,218.81s-7.383.833-6,.384a1.845,1.845,0,0,0,1.422-1.6,3.845,3.845,0,0,0-.274-1.705,7.445,7.445,0,0,0-.656-1.334s5.641-3.1,4.514-.282a4.548,4.548,0,0,0-.32,1.337,3.775,3.775,0,0,0,.146,1.354A4.032,4.032,0,0,0,806.654,218.81Z" transform="translate(-706.552 -200.644)" fill="#ffcdd3"/>
      <path id="Path_3318" data-name="Path 3318" d="M810.05,214.242a4.548,4.548,0,0,0-.32,1.337,2.6,2.6,0,0,1-1.863.417,3.333,3.333,0,0,1-1.671-.138,7.433,7.433,0,0,0-.656-1.334S811.179,211.42,810.05,214.242Z" transform="translate(-710.949 -200.618)" opacity="0.1"/>
      <circle id="Ellipse_166" data-name="Ellipse 166" cx="3.053" cy="3.053" r="3.053" transform="translate(93.766 9.47)" fill="#ffcdd3"/>
      <path id="Path_3319" data-name="Path 3319" d="M806.654,242.341s-7.383.833-6,.384a1.845,1.845,0,0,0,1.422-1.6,4.118,4.118,0,0,1,1.574-.838,2.209,2.209,0,0,1,1.338-.022,1.9,1.9,0,0,1,.487.226A4.031,4.031,0,0,0,806.654,242.341Z" transform="translate(-706.552 -224.175)" opacity="0.1"/>
      <path id="Path_3320" data-name="Path 3320" d="M870.032,223.179l-1.412.327-.03-.21a1.249,1.249,0,0,1,1.358-.464Z" transform="translate(-765.728 -209.067)" opacity="0.1"/>
      <path id="Path_3321" data-name="Path 3321" d="M695.008,211.636l-1.694.834-.034-.363a12.356,12.356,0,0,1,1.705-.757Z" transform="translate(-613.415 -199.134)" opacity="0.1"/>
      <path id="Path_3322" data-name="Path 3322" d="M794.909,387.616c-2.861.456-6.928,1.039-7.573.842a18.916,18.916,0,0,0-3.736-.094c.013-.745.026-1.24.026-1.24l11.082-1.154A9.258,9.258,0,0,0,794.909,387.616Z" transform="translate(-691.887 -350.848)" opacity="0.1"/>
      <path id="Path_3323" data-name="Path 3323" d="M716.348,235.9s-9.415,1.616-10.425,1.312-6.2.025-6.2.025c-2.335,1.565-1.36-.744-1.36-.744a5.738,5.738,0,0,1,.077-2.18,13.324,13.324,0,0,0,.387-2.183,5.084,5.084,0,0,1,.231-1.9,14.632,14.632,0,0,0,.617-2.924s.256-1.745.231-2.129.076-1.463.076-1.463l.334-1.8c-1.924-.256-7.774-3.848-7.774-3.848-.282-1.206-2.462-4.027-2.462-4.027a2.972,2.972,0,0,0-.18-.693c-.154-.411,2.155-1.232,2.155-1.232s1.718,2.1,2.078,2.668a11.437,11.437,0,0,0,1.59,1.616,1.237,1.237,0,0,1,.564.073l.03.009h0a4.571,4.571,0,0,1,1.148.656,2.23,2.23,0,0,1,1.565.59s1.049-.155,1.232.025,1.077,0,1.077,0,.9-1.9,1.488-1.347,3.095.525,3.095.525a3.623,3.623,0,0,1,1.653-.918,2.219,2.219,0,0,1,1.338-.022,1.7,1.7,0,0,1,.525.262l1.523,1.488s.435-.565.384-.693.513-.231.513-.231.744-.231,1.026-.308.54.228.564.256a3.067,3.067,0,0,1-.131-1.128,1.333,1.333,0,0,0-.308-.918c.9-2.206,2.924-.359,2.924-.359a4.232,4.232,0,0,1,.026,1.667c-.2.462.2,1.436.154,1.694s.1.693.1,1.181a7.21,7.21,0,0,1-.411,1.821c-.148.411-1.385,1.334-1.385,1.334a5.792,5.792,0,0,1-.617,2.309c-.539.846-.2,3.74-.2,3.74a9.665,9.665,0,0,0,1.154,2.977C715.4,231.8,716.348,235.9,716.348,235.9Z" transform="translate(-610.473 -199.803)" fill="#3f3d56"/>
      <path id="Path_3324" data-name="Path 3324" d="M778.433,254.338s-.282-.846-.539-.918a5.935,5.935,0,0,1-.744-.333l.165-.316s.963.262,1.118.547A2.176,2.176,0,0,1,778.433,254.338Z" transform="translate(-686.283 -235.121)" opacity="0.1"/>
      <path id="Path_3325" data-name="Path 3325" d="M732.155,246.01c-.051.262-2.335.487-2.335.487l1.154-1.157h0l.029.01h0A4.574,4.574,0,0,1,732.155,246.01Z" transform="translate(-645.161 -228.666)" opacity="0.1"/>
      <circle id="Ellipse_167" data-name="Ellipse 167" cx="0.205" cy="0.205" r="0.205" transform="translate(80.183 13.619)" fill="#575988"/>
      <circle id="Ellipse_168" data-name="Ellipse 168" cx="0.205" cy="0.205" r="0.205" transform="translate(80.445 14.03)" fill="#575988"/>
      <circle id="Ellipse_169" data-name="Ellipse 169" cx="0.205" cy="0.205" r="0.205" transform="translate(80.702 14.409)" fill="#575988"/>
      <circle id="Ellipse_170" data-name="Ellipse 170" cx="0.205" cy="0.205" r="0.205" transform="translate(80.971 14.818)" fill="#575988"/>
      <circle id="Ellipse_171" data-name="Ellipse 171" cx="0.167" cy="0.167" r="0.167" transform="translate(105.191 14.834)" fill="#575988"/>
      <circle id="Ellipse_172" data-name="Ellipse 172" cx="0.167" cy="0.167" r="0.167" transform="translate(105.217 15.213)" fill="#575988"/>
      <circle id="Ellipse_173" data-name="Ellipse 173" cx="0.167" cy="0.167" r="0.167" transform="translate(105.239 15.591)" fill="#575988"/>
      <path id="Path_3326" data-name="Path 3326" d="M787,317.719c-.025-.03,5.759,7.273,10.248,3.053C797.251,320.773,790.158,321.735,787,317.719Z" transform="translate(-694.84 -291.55)" opacity="0.1"/>
      <path id="Path_3327" data-name="Path 3327" d="M761.7,346.66s3.461.094,3.823,1.09v1.036a.664.664,0,0,1-.644,0c-.349-.189-2.441-1.251-3.179-.74Z" transform="translate(-672.859 -316.694)" opacity="0.1"/>
      <path id="Path_3328" data-name="Path 3328" d="M762.19,346.66s3.31.091,3.656,1.04v.986a.635.635,0,0,1-.617,0c-.333-.178-2.334-1.192-3.039-.7Z" transform="translate(-673.285 -316.694)" fill="#3f3d56"/>
      <path id="Path_3329" data-name="Path 3329" d="M776.1,289.38a11.133,11.133,0,0,0,1.342,2.3,9.033,9.033,0,0,0,2.1,2.029S776.158,289.855,776.1,289.38Z" transform="translate(-685.37 -266.928)" opacity="0.1"/>
      <path id="Path_3330" data-name="Path 3330" d="M767.47,258.73s.577,2.492,2.065,3.339Z" transform="translate(-677.873 -240.299)" opacity="0.1"/>
      <path id="Path_3331" data-name="Path 3331" d="M760.379,260.645c-.014-.046-.513,1.968,1.918,3.087C762.3,263.732,761.264,263.381,760.379,260.645Z" transform="translate(-671.667 -241.962)" opacity="0.1"/>
      <path id="Path_3332" data-name="Path 3332" d="M875.9,247.9a17.314,17.314,0,0,1,1.536,1.154S876.635,247.847,875.9,247.9Z" transform="translate(-772.082 -230.888)" opacity="0.1"/>
      <path id="Path_3333" data-name="Path 3333" d="M799.416,189.147a.481.481,0,0,0,.525.476,6.1,6.1,0,0,0,2.755-.262,1.05,1.05,0,0,0,.42-.278,1.726,1.726,0,0,0,.244-.676,9.823,9.823,0,0,1,.563-1.3,4.342,4.342,0,0,0,.3-2.328,1.573,1.573,0,0,0-.234-.681c-.247-.353-.7-.5-1.023-.777s-.537-.71-.918-.918a1.763,1.763,0,0,0-1.152-.1,6.045,6.045,0,0,0-2.149.807,1.1,1.1,0,0,1-.719.244.962.962,0,0,1-.525-.405,2.842,2.842,0,0,0-.219,1.331.572.572,0,0,1-.007.2.6.6,0,0,1-.143.211.777.777,0,0,0-.146.959c.1.117.25.181.346.3.172.214.114.525.11.8a.41.41,0,0,0,.068.27.394.394,0,0,0,.377.09,1.025,1.025,0,0,1,.4-.038.673.673,0,0,1,.349.262A4.931,4.931,0,0,1,799.416,189.147Z" transform="translate(-703.422 -173.858)" fill="#2d293d"/>
      <g id="Group_1406" data-name="Group 1406" transform="translate(93.455 9.065)" opacity="0.1">
        <path id="Path_3334" data-name="Path 3334" d="M803.224,205.743a1.049,1.049,0,0,1-.42.278,6.19,6.19,0,0,1-2.755.262.483.483,0,0,1-.526-.477,4.784,4.784,0,0,0-.778-1.805.674.674,0,0,0-.349-.269,1.076,1.076,0,0,0-.4.038.394.394,0,0,1-.376-.089.411.411,0,0,1-.068-.27c0-.275.062-.584-.11-.8-.1-.119-.248-.184-.346-.3a.6.6,0,0,1-.059-.611.7.7,0,0,0-.043.817c.1.117.251.181.346.3.172.215.114.525.11.8a.408.408,0,0,0,.067.27.394.394,0,0,0,.378.09,1.024,1.024,0,0,1,.4-.038.673.673,0,0,1,.349.262,4.8,4.8,0,0,1,.778,1.806.656.656,0,0,0,.227.416.636.636,0,0,0,.289.063,6.086,6.086,0,0,0,2.755-.262,1.039,1.039,0,0,0,.42-.278.8.8,0,0,0,.131-.247A.065.065,0,0,1,803.224,205.743Z" transform="translate(-796.877 -199.815)"/>
        <path id="Path_3335" data-name="Path 3335" d="M799.943,188.81a.449.449,0,0,0,.093-.155.571.571,0,0,0,0-.2,2.844,2.844,0,0,1,.143-1.1l-.017-.02a2.821,2.821,0,0,0-.219,1.33.948.948,0,0,1,0,.15Z" transform="translate(-799.533 -187.33)"/>
      </g>
      <path id="Path_3336" data-name="Path 3336" d="M812.08,248.437s3.813.506,4.156-.067" transform="translate(-716.631 -231.298)" opacity="0.1"/>
      <path id="Path_3337" data-name="Path 3337" d="M868.59,236.85s2.12,0,2.586.8" transform="translate(-765.728 -221.289)" opacity="0.1"/>
      <path id="Path_3338" data-name="Path 3338" d="M940.433,764.844a3.362,3.362,0,0,1-2.289.855c-.215,0-.513.041-.514.256a.361.361,0,0,0,.063.176,2.105,2.105,0,0,0,1.181.927,4.171,4.171,0,0,0,1.429.09l1.4-.072c.262-.014.525-.027.787-.06s.548-.087.823-.131a10.76,10.76,0,0,1,2.035-.094.616.616,0,0,0,.5-.131c.108-.131.052-.382.012-.578-.084-.405,0-.83-.077-1.237a2.172,2.172,0,0,0-1.426-1.519,3,3,0,0,0-2.34-.114A15.407,15.407,0,0,0,940.433,764.844Z" transform="translate(-825.711 -678.427)" fill="#3f3d56"/>
      <path id="Path_3339" data-name="Path 3339" d="M951,575.45c.123.586.691,1.035.707,1.633a2.551,2.551,0,0,1-.575,1.293,8.628,8.628,0,0,0-.586,1.328,20.272,20.272,0,0,1-1.721,3.424,2.74,2.74,0,0,0-.62,1.695,2.537,2.537,0,0,0,.3.811l.984,1.955a5.654,5.654,0,0,1,.5,1.234c.085.371.093.756.143,1.133.155,1.2.718,2.406.384,3.568-.029.1-.131.22-.211.151a3.738,3.738,0,0,1,.561,1.907,2.658,2.658,0,0,0,.009,1.073,1.175,1.175,0,0,1,.153.422,2.694,2.694,0,0,1-.056.29.639.639,0,0,0,.491.6c.264.088.551.081.817.161a5.014,5.014,0,0,1,1.312.9,2.793,2.793,0,0,0,1.511.492.381.381,0,0,0,.223-.045.361.361,0,0,0,.123-.27,1.5,1.5,0,0,0-.54-1.3.59.59,0,0,1-.2-.21.507.507,0,0,1-.018-.235,17.675,17.675,0,0,0-.058-3.227,4.9,4.9,0,0,1-.051-1.027,4.192,4.192,0,0,0,.083-.854,4.542,4.542,0,0,0-.262-.819,5.9,5.9,0,0,1-.131-1.523,13.362,13.362,0,0,0-.432-2.624,1.985,1.985,0,0,0-.408-.947c-.2-.214-.535-.419-.458-.7a.833.833,0,0,1,.188-.279,1.122,1.122,0,0,0,.234-.855.384.384,0,0,0,.442-.207,6.916,6.916,0,0,0,3.461-3.935,1.3,1.3,0,0,1,.155-.352,1.583,1.583,0,0,1,.634-.411,4.814,4.814,0,0,0,1.665-1.7,3,3,0,0,0,.731-2.119l.041-1.541a.832.832,0,0,0-.029-.3.752.752,0,0,0-.167-.244,2.963,2.963,0,0,0-1.635-.881c-.42-.075-.849-.06-1.274-.1a15.841,15.841,0,0,0-2.461-.262,3.939,3.939,0,0,0-3.058,2.14C951.685,575.091,951.46,575.442,951,575.45Z" transform="translate(-834.89 -512.941)" fill="#464353"/>
      <path id="Path_3340" data-name="Path 3340" d="M905.3,495.8a1.722,1.722,0,0,1-.094.7.49.49,0,0,1-.576.3c.067-.151-.11-.323-.276-.3a.516.516,0,0,0-.363.312,1.161,1.161,0,0,0-.1.712,2.888,2.888,0,0,1,.181.895c-.037.252-.222.5-.123.736a1.191,1.191,0,0,0,.237.285.8.8,0,0,1-.085,1.1l2.482.05a1.753,1.753,0,0,0,.308,1.207,7.609,7.609,0,0,0,5.672,3.7.493.493,0,0,0-.119.754.7.7,0,0,0,.8.046,5.664,5.664,0,0,0,.682-.512,2.1,2.1,0,0,1,1.4-.378c.311.03.613.131.925.147.918.049,1.705-.613,2.59-.883a5.976,5.976,0,0,0,1.915-.6.763.763,0,0,0,.357-.739,1.235,1.235,0,0,0-.262-.434,7.505,7.505,0,0,1-.718-1.345,8.041,8.041,0,0,0-1.793-2.4,16.052,16.052,0,0,0-1.779-1.349,3.036,3.036,0,0,0-.48-.29,5.385,5.385,0,0,1-.656-.262,3.5,3.5,0,0,1-.683-.769,10.249,10.249,0,0,0-1.854-1.289,4.4,4.4,0,0,0-1.251-.847c-.236-.072-.487-.077-.723-.148-.536-.163-.927-.639-1.453-.832a5.832,5.832,0,0,0-1.312-.167,3.07,3.07,0,0,1-1.371-.522,1.626,1.626,0,0,0-.437-.255c-.665-.2-.719,1.036-.787,1.465A14.136,14.136,0,0,0,905.3,495.8Z" transform="translate(-796.383 -443.309)" fill="#04e8ca"/>
      <path id="Path_3341" data-name="Path 3341" d="M858.831,536.61c.112,1.209-.8,2.381-.535,3.565.056.252.165.492.2.748a2.867,2.867,0,0,1-.708,1.955l-3.437,5.044a3.176,3.176,0,0,1-.491.606,5.081,5.081,0,0,1-2.506.7,4.33,4.33,0,0,0-1.679.742.109.109,0,0,0-.021.151,1.443,1.443,0,0,0,1.247.586c.09.118,0,.294-.125.379-.184.131-.438.161-.475.475a.524.524,0,0,0,.063.315.98.98,0,0,0,.6.417,3.567,3.567,0,0,0,3.366-1.145c.891-.87,1.53-1.968,2.4-2.852.484-.491,1.034-.909,1.532-1.384a17.53,17.53,0,0,0,2.513-3.252,3.6,3.6,0,0,0,.544-1.107c.093-.4.05-.811.156-1.2A4.409,4.409,0,0,1,862.31,540a4.451,4.451,0,0,0,.937-2.9,2.781,2.781,0,0,0-1.7-2.407,1.526,1.526,0,0,0-.951-.058,2.252,2.252,0,0,0-.968.771l-.656.753a1.757,1.757,0,0,0-.369.578.6.6,0,0,0,.131.643" transform="translate(-749.261 -479.97)" fill="#fbbebe"/>
      <path id="Path_3342" data-name="Path 3342" d="M918.281,511.889a1.88,1.88,0,0,0-1.267.394,1.8,1.8,0,0,0-.32.5,4.99,4.99,0,0,0-.634,1.994,9.116,9.116,0,0,0,.23,1.666,6.374,6.374,0,0,1-.143,1.4,9.717,9.717,0,0,0,1.808-.7,6.055,6.055,0,0,1,1.059-.55,3.185,3.185,0,0,1,1.956.38c.028-.359-.243-.987-.214-1.347a1.5,1.5,0,0,1,.08-.446,2.714,2.714,0,0,1,.272-.432,1.766,1.766,0,0,0-.159-2.069,2.881,2.881,0,0,0-1.847-.787,7.988,7.988,0,0,0-1.29-.045" transform="translate(-806.97 -460.21)" fill="#04e8ca"/>
    </g>
    <text id="Rx_Discount" data-name="Rx Discount" transform="translate(40 162)" fill="#fff" font-size="18" font-family="OpenSans-Semibold, Open Sans" font-weight="600" letter-spacing="0.05em"><tspan x="0" y="0">Rx Discount</tspan></text>
  </g>
</svg>
