<svg xmlns="http://www.w3.org/2000/svg" width="306" height="106.927" viewBox="0 0 306 106.927">
  <g id="Group_1767" data-name="Group 1767" transform="translate(-47 -90)">
    <text id="My_Health" data-name="My Health" transform="translate(47 157)" fill="#fff" font-size="18" font-family="OpenSans-Semibold, Open Sans" font-weight="600" letter-spacing="0.05em"><tspan x="0" y="0">My Health</tspan></text>
    <g id="Group_1415" data-name="Group 1415" transform="translate(189.77 89.995)">
      <path id="Path_3432" data-name="Path 3432" d="M93.163,150.007c-1.229,3.721,2.384,7.067,5.227,9.762a38.289,38.289,0,0,1,9.01,13.13,21.144,21.144,0,0,1,1.864,9.456c-.653,9.173-9.291,15.284-16.193,21.361a10.012,10.012,0,0,0-2.525,2.949c-1.829,3.759,1.28,8.091,4.7,10.488,12.2,8.533,29.8,5.995,41.628-3.039,6.126-4.679,11.391-11.042,18.815-13.122,4.746-1.323,9.784-.7,14.7-.288a156.461,156.461,0,0,0,22.138.262c2.589-.16,5.3-.41,7.465-1.832,5.491-3.6,4.564-12.127,8.526-17.36,2.848-3.761,7.715-5.211,11.951-7.289a37.389,37.389,0,0,0,15.656-14.527c3.4-5.788,5.163-12.369,6.881-18.856,1.3-4.874,2.6-9.979,1.5-14.9s-5.431-9.522-10.456-9.09c-3.858.331-6.928,3.38-10.643,4.471-8.9,2.621-17.542-6.483-26.776-5.6-5.814.552-10.5,4.961-14.047,9.6s-6.545,9.866-11.226,13.361c-7.281,5.441-17.257,5.633-26.171,3.871s-17.466-5.23-26.478-6.385c-5.31-.68-9.379,2.484-14.161,4.223C100.157,142.244,94.788,145.086,93.163,150.007Z" transform="translate(-90 -115.91)" fill="#fff" opacity="0.42"/>
      <ellipse id="Ellipse_188" data-name="Ellipse 188" cx="11.64" cy="3.537" rx="11.64" ry="3.537" transform="translate(10.437 99.859)" fill="#01d7bb" opacity="0.1"/>
      <ellipse id="Ellipse_189" data-name="Ellipse 189" cx="31.089" cy="2.063" rx="31.089" ry="2.063" transform="translate(101.054 56.099)" fill="#01d7bb" opacity="0.1"/>
      <g id="Group_1410" data-name="Group 1410" transform="translate(102.233 10.95)">
        <path id="Path_3433" data-name="Path 3433" d="M699.746,68.4h0a1.626,1.626,0,0,1,1.626,1.626v45.208H698.12V70.024A1.626,1.626,0,0,1,699.746,68.4Z" transform="translate(-688.632 -68.4)" fill="#fff"/>
        <path id="Path_3434" data-name="Path 3434" d="M922.634,68.4h0a1.626,1.626,0,0,1,1.626,1.626v45.208H921V70.024a1.626,1.626,0,0,1,1.634-1.624Z" transform="translate(-875.845 -68.4)" fill="#fff"/>
        <rect id="Rectangle_570" data-name="Rectangle 570" width="3.252" height="57.905" rx="1.626" transform="translate(57.905 6.854) rotate(90)" fill="#fff"/>
        <rect id="Rectangle_571" data-name="Rectangle 571" width="2.548" height="12.213" rx="1.274" transform="translate(5.974 2.372)" fill="#fff"/>
        <rect id="Rectangle_572" data-name="Rectangle 572" width="2.548" height="9.93" rx="1.274" transform="translate(3.426 3.514)" fill="#fff"/>
        <rect id="Rectangle_573" data-name="Rectangle 573" width="2.548" height="12.213" rx="1.274" transform="translate(51.929 14.585) rotate(180)" fill="#fff"/>
        <rect id="Rectangle_574" data-name="Rectangle 574" width="2.548" height="9.93" rx="1.274" transform="translate(54.477 13.442) rotate(180)" fill="#fff"/>
      </g>
      <g id="Group_1411" data-name="Group 1411" transform="translate(125.218 29.872)">
        <path id="Path_3435" data-name="Path 3435" d="M785.214,186.64h6.648a2.72,2.72,0,0,1,2.72,2.72v11.42H782.5V189.36A2.72,2.72,0,0,1,785.214,186.64Z" transform="translate(-782.494 -186.64)" fill="#fff"/>
        <rect id="Rectangle_575" data-name="Rectangle 575" width="1.768" height="5.894" transform="translate(5.156 13.114)" fill="#fff"/>
        <rect id="Rectangle_576" data-name="Rectangle 576" width="1.768" height="5.894" transform="translate(1.619 19.744)" fill="#fff"/>
        <rect id="Rectangle_577" data-name="Rectangle 577" width="1.768" height="5.894" transform="translate(8.987 19.744)" fill="#fff"/>
        <rect id="Rectangle_578" data-name="Rectangle 578" width="12.082" height="1.621" transform="translate(0 18.565)" fill="#fff"/>
      </g>
      <ellipse id="Ellipse_190" data-name="Ellipse 190" cx="66.303" cy="4.862" rx="66.303" ry="4.862" transform="translate(9.407 87.631)" fill="#01d7bb" opacity="0.1"/>
      <path id="Path_3436" data-name="Path 3436" d="M670.36,567.132s4.567,2.063,6.777,2.063a28.993,28.993,0,0,1,3.681,1.179c1.323.591,6.483.883,6.483.883s6.041,2.21,6.777,3.242,2.946-3.681,2.946-3.681l-1.179-2.946L673.6,563.6Z" transform="translate(-577.484 -491.953)" fill="#ffb9b9"/>
      <path id="Path_3437" data-name="Path 3437" d="M670.36,567.132s4.567,2.063,6.777,2.063a28.993,28.993,0,0,1,3.681,1.179c1.323.591,6.483.883,6.483.883s6.041,2.21,6.777,3.242,2.946-3.681,2.946-3.681l-1.179-2.946L673.6,563.6Z" transform="translate(-577.484 -491.953)" opacity="0.05"/>
      <path id="Path_3438" data-name="Path 3438" d="M811.23,599.891s2.8,3.681,1.621,5.894-.736,2.21,0,2.357,4.862,1.032,5.3-2.21,1.327-10.461,1.327-10.461l-6.049-.591S815.061,600.332,811.23,599.891Z" transform="translate(-695.811 -518.227)" fill="#737a9d"/>
      <path id="Path_3439" data-name="Path 3439" d="M593.94,542.917l12.671,5.894s3.978-3.095,3.681-4.714l-14.734-3.537Z" transform="translate(-513.293 -472.6)" fill="#4c4c78"/>
      <path id="Path_3440" data-name="Path 3440" d="M593.94,542.917l12.671,5.894s3.978-3.095,3.681-4.714l-14.734-3.537Z" transform="translate(-513.293 -472.6)" opacity="0.1"/>
      <path id="Path_3441" data-name="Path 3441" d="M750.791,548.2l-1.331,3.241-3.089.733a19.726,19.726,0,0,0-2.767-1.933,11,11,0,0,0-5.921-1.751s-8.251-1.327-8.693-1.92c0,0-5.3-1.179-6.483-1.032a8.31,8.31,0,0,1-2.9-.781c-1.192-.48-2.258-.987-2.258-.987l3.831-6.041a10.286,10.286,0,0,0,1.376.48,28.376,28.376,0,0,0,7.907.986c6.188,0,14.734,6.336,14.734,6.336s.085.029.23.072c.64.194,2.464.65,3.306-.072C749.759,544.666,750.791,548.2,750.791,548.2Z" transform="translate(-616.954 -470.222)" fill="#ffb9b9"/>
      <path id="Path_3442" data-name="Path 3442" d="M888.6,588.494l-1.331,3.241-3.089.733a19.726,19.726,0,0,0-2.767-1.933c4.494.338,1.81-4.623,1.81-4.623h.01c.64.194,2.464.65,3.306-.072C887.565,584.957,888.6,588.494,888.6,588.494Z" transform="translate(-754.76 -510.514)" opacity="0.1"/>
      <path id="Path_3443" data-name="Path 3443" d="M881.52,590.071s3.564,5,2.064,7.813-.938,2.813,0,3,6.191,1.314,6.753-2.813c.432-3.173.053-9.264-.146-11.908A1.263,1.263,0,0,0,888.819,585l-5.212.48S886.4,590.634,881.52,590.071Z" transform="translate(-754.852 -509.926)" fill="#737a9d"/>
      <path id="Path_3444" data-name="Path 3444" d="M262.71,523.714l.147,7.22,1.621,1.178h5.6l1.031-1.472v-6.926l-1.621-1.474h-5.3Z" transform="translate(-220.667 -438.662)" fill="#01d7bb"/>
      <path id="Path_3445" data-name="Path 3445" d="M353.593,648.28s1.032,6.63,0,7.22l-.736-.147-.147-7.072Z" transform="translate(-310.667 -563.081)" fill="#fff" opacity="0.2"/>
      <path id="Path_3446" data-name="Path 3446" d="M433.713,638.409l1.179-1.179h5.6l1.179,1.179s1.474,4.273.294,7.072l-1.33,1.327h-5.6l-1.327-1.179Z" transform="translate(-378.705 -553.8)" fill="#01d7bb"/>
      <path id="Path_3447" data-name="Path 3447" d="M262.71,523.714l.147,7.22,1.621,1.178h5.6l1.031-1.472v-6.926l-1.621-1.474h-5.3Z" transform="translate(-220.667 -438.662)" fill="#f1fffd" opacity="0.96"/>
      <path id="Path_3448" data-name="Path 3448" d="M433.713,638.409l1.179-1.179h5.6l1.179,1.179s1.474,4.273.294,7.072l-1.33,1.327h-5.6l-1.327-1.179Z" transform="translate(-378.705 -553.8)" fill="#fff" opacity="0.93"/>
      <path id="Path_3449" data-name="Path 3449" d="M435.037,644.894s1.179,5.158,0,6.924H433.71V644.6Z" transform="translate(-378.705 -559.99)" fill="#fff" opacity="0.2"/>
      <path id="Path_3450" data-name="Path 3450" d="M405.19,491.76s.589,5.747.589,6.483a49.812,49.812,0,0,0,.589,10.314c.883,4.713-.589,10.607-.589,10.607h4.862L412.7,503.25l-1.474-8.4-.589-2.652Z" transform="translate(-354.749 -431.609)" fill="#ffb9b9"/>
      <path id="Path_3451" data-name="Path 3451" d="M405.19,491.76s.589,5.747.589,6.483a49.812,49.812,0,0,0,.589,10.314c.883,4.713-.589,10.607-.589,10.607h4.862L412.7,503.25l-1.474-8.4-.589-2.652Z" transform="translate(-354.749 -431.609)" opacity="0.05"/>
      <path id="Path_3452" data-name="Path 3452" d="M382.251,400.024s-6.483.147-1.327,10.9a50.958,50.958,0,0,1,1.327,5.158c0,.738,6.63.736,7.361,0s-1.179-6.777-1.179-9.578S386.524,399.141,382.251,400.024Z" transform="translate(-332.694 -354.46)" fill="#cbcdda"/>
      <path id="Path_3453" data-name="Path 3453" d="M382.251,400.024s-6.483.147-1.327,10.9a50.958,50.958,0,0,1,1.327,5.158c0,.738,6.63.736,7.361,0s-1.179-6.777-1.179-9.578S386.524,399.141,382.251,400.024Z" transform="translate(-332.694 -354.46)" fill="#00f3d4"/>
      <path id="Path_3454" data-name="Path 3454" d="M333.877,361s5.6,6.041,10.314,1.621L343.6,378.24s-7.662-9.282-12.962-8.546Z" transform="translate(-292.129 -321.774)" fill="#ffb9b9"/>
      <path id="Path_3455" data-name="Path 3455" d="M722.517,538.278c-.224,1.727-.928,5.363-2.949,6.54-1.192-.48-2.258-.987-2.258-.987l3.831-6.041A10.3,10.3,0,0,0,722.517,538.278Z" transform="translate(-616.921 -470.273)" opacity="0.1"/>
      <path id="Path_3456" data-name="Path 3456" d="M583.735,459.873s-.442,7.22-3.978,7.809L558.4,463.828a6.448,6.448,0,0,1-2.839-1.28,14.671,14.671,0,0,1-2.546-2.445,2.031,2.031,0,0,1-.51-1.264c.147-1.621,6.63-5.452,4.42-12.229a4.039,4.039,0,0,1,1.037-.6c1.845-.767,6.092-1.33,12.223,5.015C570.181,451.037,581.526,460.173,583.735,459.873Z" transform="translate(-478.483 -392.802)" fill="#4c4c78"/>
      <path id="Path_3457" data-name="Path 3457" d="M296.78,527.4l.147,7.22,1.619,1.179h5.6l1.032-1.474V527.4l-1.621-1.472h-5.3Z" transform="translate(-249.285 -441.762)" fill="#f1fffd"/>
      <path id="Path_3458" data-name="Path 3458" d="M387.663,652s1.032,6.63,0,7.221l-.736-.147L386.78,652Z" transform="translate(-339.285 -566.206)" fill="#fff" opacity="0.2"/>
      <path id="Path_3459" data-name="Path 3459" d="M488.06,641.169l1.179-1.179h5.6l1.179,1.179s1.474,4.273.294,7.072l-1.327,1.327h-5.6l-1.327-1.179Z" transform="translate(-424.357 -556.118)" fill="#f1fffd"/>
      <path id="Path_3460" data-name="Path 3460" d="M489.377,647.654s1.179,5.158,0,6.924H488.05V647.36Z" transform="translate(-424.349 -562.309)" fill="#fff" opacity="0.2"/>
      <path id="Path_3461" data-name="Path 3461" d="M433.076,664.86h7.971a1.2,1.2,0,0,1,1.13,1.253h0a1.2,1.2,0,0,1-1.13,1.253h-7.971a1.209,1.209,0,0,1-1.12-1.4h0A1.177,1.177,0,0,1,433.076,664.86Z" transform="translate(-377.224 -577.008)" fill="#fff"/>
      <path id="Path_3462" data-name="Path 3462" d="M557.353,459.356A41.338,41.338,0,0,1,553,461.8a2.031,2.031,0,0,1-.51-1.264c.147-1.621,6.63-5.452,4.42-12.229a4.038,4.038,0,0,1,1.037-.6,4.5,4.5,0,0,0,1.026-.141S560.3,457.293,557.353,459.356Z" transform="translate(-478.474 -394.491)" opacity="0.1"/>
      <path id="Path_3463" data-name="Path 3463" d="M375.651,369.86A32.834,32.834,0,0,0,380,373.47c1.972,1.291-1.547-11.714-1.547-11.714s2.183-1.76,3.465-2.805a4.391,4.391,0,0,1,3.053-.992c2.949.19,8.352,1.431,12.711,7.409,6.336,8.693,12.082,6.924,12.082,6.924s1.327,9.725-1.621,11.788-6.188,2.8-5.6,3.978-2.652-5.747-10.019-6.924-15.472-6.336-15.323-8.84C377.2,372.292,375.062,370.6,375.651,369.86Z" transform="translate(-329.851 -319.213)" fill="#00f3d4"/>
      <path id="Path_3464" data-name="Path 3464" d="M340.22,366.437a7.405,7.405,0,0,0-.112-1.271c-1.93-.96-1.656-2.266-1.656-2.266l-3.242,8.693a6.864,6.864,0,0,1,3.8.8C340.733,371.031,340.22,368.787,340.22,366.437Z" transform="translate(-295.967 -323.37)" opacity="0.1"/>
      <circle id="Ellipse_191" data-name="Ellipse 191" cx="7.368" cy="7.368" r="7.368" transform="translate(30.403 35.545)" fill="#ffb9b9"/>
      <path id="Path_3465" data-name="Path 3465" d="M267.38,330.06a1.893,1.893,0,0,1-.741,1.12,1.4,1.4,0,0,1-1.57-.224,2.647,2.647,0,0,1-.778-1.469,4.932,4.932,0,0,1,.08-2.408c.192-.664.523-1.28.663-1.96.149-.723.074-1.48.24-2.2a6.739,6.739,0,0,1,1.5-2.576,2.66,2.66,0,0,1,1.733-1.152l3.084-.93a10.421,10.421,0,0,1,1.8-.429,6.22,6.22,0,0,1,2.335.2,5.378,5.378,0,0,1,1.693.755,6.263,6.263,0,0,1,1.336,1.352c1.631,2.132,2.56,5.619,4.242,7.717-.664.2-1.328-.48-1.992-.272a.467.467,0,0,1-.3.024.491.491,0,0,1-.219-.243,5.1,5.1,0,0,0-2.607-2.231c-.816-.309-1.92-.307-2.367.442a2.657,2.657,0,0,0-.1,1.728,1.743,1.743,0,0,1-.4,1.64,1.716,1.716,0,0,1-.861.291,9.487,9.487,0,0,1-4.266-.418c-.48-.16-.968-.661-1.475-.5C267.72,328.536,267.561,329.479,267.38,330.06Z" transform="translate(-236.304 -285.486)" opacity="0.1"/>
      <path id="Path_3466" data-name="Path 3466" d="M266.37,329.058a1.893,1.893,0,0,1-.741,1.12,1.4,1.4,0,0,1-1.57-.224,2.647,2.647,0,0,1-.778-1.469,4.932,4.932,0,0,1,.08-2.408c.192-.664.523-1.28.663-1.96.149-.723.074-1.48.24-2.2a6.738,6.738,0,0,1,1.5-2.576,2.66,2.66,0,0,1,1.733-1.152l3.084-.93a10.421,10.421,0,0,1,1.8-.427,6.22,6.22,0,0,1,2.335.2,5.379,5.379,0,0,1,1.693.755,6.262,6.262,0,0,1,1.336,1.352c1.631,2.132,2.56,5.619,4.242,7.717-.664.2-1.328-.48-1.992-.272a.467.467,0,0,1-.3.024.491.491,0,0,1-.222-.243,5.1,5.1,0,0,0-2.607-2.231c-.816-.309-1.92-.307-2.367.442a2.657,2.657,0,0,0-.1,1.728,1.743,1.743,0,0,1-.4,1.64,1.716,1.716,0,0,1-.861.291,9.486,9.486,0,0,1-4.266-.418c-.48-.16-.968-.661-1.475-.5C266.71,327.535,266.551,328.477,266.37,329.058Z" transform="translate(-235.456 -284.646)" fill="#b96b6b"/>
      <g id="Group_1412" data-name="Group 1412" transform="translate(45.687 42.141)" opacity="0.1">
        <path id="Path_3467" data-name="Path 3467" d="M394.179,379.22l-.5.4s2.063,7.622,2.144,10.616C396.877,389.955,394.851,381.8,394.179,379.22Z" transform="translate(-390.767 -379.22)"/>
        <path id="Path_3468" data-name="Path 3468" d="M408.368,445.419c-2.946,2.063-6.188,2.8-5.6,3.978s-2.652-5.747-10.019-6.924c-6.912-1.106-14.471-5.713-15.259-8.347-1.1-.944-1.908-1.746-1.908-1.746-.589.736,1.547,2.431,1.547,2.431-.147,2.5,7.957,7.662,15.323,8.84s10.608,8.1,10.019,6.924,2.652-1.92,5.6-3.978a5.059,5.059,0,0,0,1.612-3.247A3.823,3.823,0,0,1,408.368,445.419Z" transform="translate(-375.478 -423.873)"/>
      </g>
      <path id="Path_3469" data-name="Path 3469" d="M441.677,486.25c-.442.589-.736,6.63-.736,6.63s1.76,8.693-3.681,7.809-.736-7.072-.736-7.072l-.736-8.546c-2.8-7.361-2.21-12.671-2.21-12.671l-.523-4.812-.214-1.965,6.336-1.474a11,11,0,0,0,.056,3.337c.242,2.615.68,5.8.68,5.8C441.233,474.757,442.118,485.659,441.677,486.25Z" transform="translate(-377.974 -408.417)" fill="#ffb9b9"/>
      <path id="Path_3470" data-name="Path 3470" d="M414.471,380.692s-6.483.147-1.327,10.9a50.957,50.957,0,0,1,1.327,5.158c0,.738,6.63.736,7.361,0s-1.179-6.777-1.179-9.578S418.744,379.807,414.471,380.692Z" transform="translate(-359.757 -338.221)" opacity="0.1"/>
      <path id="Path_3471" data-name="Path 3471" d="M439.193,467.487a18.735,18.735,0,0,1-6.179.1l-.214-1.965,6.336-1.474A11.2,11.2,0,0,0,439.193,467.487Z" transform="translate(-377.94 -408.417)" opacity="0.1"/>
      <path id="Path_3472" data-name="Path 3472" d="M412.631,380.692s-6.483.147-1.327,10.9a50.958,50.958,0,0,1,1.327,5.158c0,.738,6.63.736,7.361,0s-1.179-6.777-1.179-9.578S416.9,379.807,412.631,380.692Z" transform="translate(-358.212 -338.221)" fill="#00f3d4"/>
      <g id="Group_1413" data-name="Group 1413" transform="translate(6.554 65.534)">
        <path id="Path_3473" data-name="Path 3473" d="M46.4,409.5l-4.692.1-.765,1.053v3.639l.957.671h4.5l.959-1.053v-3.447Z" transform="translate(-40.94 -409.498)" fill="#fff"/>
        <path id="Path_3474" data-name="Path 3474" d="M139.822,525.976s-4.31.671-4.692,0l.1-.48,4.6-.1Z" transform="translate(-134.459 -525.4)" fill="#fff" opacity="0.2"/>
        <path id="Path_3475" data-name="Path 3475" d="M138.789,591.23l.767.767v3.639l-.767.767s-2.776.96-4.6.192l-.863-.863v-3.639l.767-.863Z" transform="translate(-132.948 -580.695)" fill="#fff"/>
        <path id="Path_3476" data-name="Path 3476" d="M142.62,592.093s-3.351.767-4.5,0v-.863h4.692Z" transform="translate(-136.971 -580.695)" fill="#fff" opacity="0.2"/>
        <path id="Path_3477" data-name="Path 3477" d="M147.519,555.5v5.18a.778.778,0,0,1-.815.734h0a.778.778,0,0,1-.815-.734V555.5a.788.788,0,0,1,.909-.73h0A.766.766,0,0,1,147.519,555.5Z" transform="translate(-143.498 -550.068)" fill="#fff"/>
        <path id="Path_3478" data-name="Path 3478" d="M93.349,410.42l-4.692.1-.767,1.053v3.639l.959.671h4.5l.957-1.053v-3.447Z" transform="translate(-80.377 -410.271)" fill="#fff"/>
        <path id="Path_3479" data-name="Path 3479" d="M186.772,526.906s-4.31.671-4.692,0l.1-.48,4.6-.1Z" transform="translate(-173.896 -526.181)" fill="#fff" opacity="0.2"/>
        <path id="Path_3480" data-name="Path 3480" d="M185.739,592.152l.767.766v3.639l-.767.767s-2.776.96-4.6.192l-.863-.863v-3.641l.767-.863Z" transform="translate(-172.384 -581.468)" fill="#fff"/>
        <path id="Path_3481" data-name="Path 3481" d="M189.58,593.013s-3.351.767-4.5,0v-.863h4.692Z" transform="translate(-176.416 -581.468)" fill="#fff" opacity="0.2"/>
        <path id="Path_3482" data-name="Path 3482" d="M194.449,556.423v5.18a.778.778,0,0,1-.815.735h0a.778.778,0,0,1-.815-.735v-5.18a.788.788,0,0,1,.909-.73h0a.767.767,0,0,1,.72.73Z" transform="translate(-182.917 -550.841)" fill="#fff"/>
        <path id="Path_3483" data-name="Path 3483" d="M158.194,427.74l-3.863.078-.631.867v3l.789.551h3.7l.787-.867v-2.837Z" transform="translate(-135.655 -424.819)" fill="#fff"/>
        <path id="Path_3484" data-name="Path 3484" d="M251,544.122s-3.548.552-3.863,0l.078-.394L251,543.65Z" transform="translate(-228.545 -540.729)" fill="#fff" opacity="0.2"/>
        <path id="Path_3485" data-name="Path 3485" d="M250.164,597.83l.631.63v3l-.631.631s-2.285.789-3.783.16l-.711-.709v-3l.631-.709Z" transform="translate(-227.31 -586.239)" fill="#fff"/>
        <path id="Path_3486" data-name="Path 3486" d="M253.315,598.539s-2.759.63-3.7,0v-.709h3.863Z" transform="translate(-230.619 -586.239)" fill="#fff" opacity="0.2"/>
        <path id="Path_3487" data-name="Path 3487" d="M257.351,568.4v4.265a.64.64,0,0,1-.671.6h0a.64.64,0,0,1-.671-.6V568.4a.648.648,0,0,1,.749-.6h0A.631.631,0,0,1,257.351,568.4Z" transform="translate(-235.995 -561.006)" fill="#fff"/>
        <path id="Path_3488" data-name="Path 3488" d="M196.844,428.49l-3.863.08-.631.866v3l.789.552h3.7l.789-.867v-2.837Z" transform="translate(-168.12 -425.449)" fill="#fff"/>
        <path id="Path_3489" data-name="Path 3489" d="M289.663,544.882s-3.548.552-3.863,0l.078-.394,3.783-.078Z" transform="translate(-261.018 -541.368)" fill="#fff" opacity="0.2"/>
        <path id="Path_3490" data-name="Path 3490" d="M288.822,598.573l.63.63v3l-.63.63s-2.285.789-3.783.16l-.709-.709v-3l.63-.709Z" transform="translate(-259.783 -586.861)" fill="#fff"/>
        <path id="Path_3491" data-name="Path 3491" d="M291.975,599.279s-2.759.63-3.7,0v-.709h3.861Z" transform="translate(-263.093 -586.861)" fill="#fff" opacity="0.2"/>
        <path id="Path_3492" data-name="Path 3492" d="M295.961,569.158v4.265a.64.64,0,0,1-.671.6h0a.64.64,0,0,1-.671-.6v-4.265a.648.648,0,0,1,.749-.6h0A.631.631,0,0,1,295.961,569.158Z" transform="translate(-268.427 -561.644)" fill="#fff"/>
      </g>
      <g id="Group_1414" data-name="Group 1414" transform="translate(14.967 90.174)" opacity="0.8">
        <path id="Path_3493" data-name="Path 3493" d="M187.3,703.644a2.833,2.833,0,0,0-3.361,1.231,3.645,3.645,0,0,0,.048,3.509,5.153,5.153,0,0,0,4.993,2.829c2.375-.126,3.164-1.94,3.378-3.625a3.724,3.724,0,0,0-4.945-3.986Z" transform="translate(-183.515 -699.542)" fill="#01d7bb"/>
        <path id="Path_3494" data-name="Path 3494" d="M184.471,708.207a3.645,3.645,0,0,1-.048-3.509,2.832,2.832,0,0,1,3.361-1.231l.117-.042a3.69,3.69,0,0,1,2.664.059,3.69,3.69,0,0,0-3.146-.3l-.117.042a2.833,2.833,0,0,0-3.361,1.231,3.645,3.645,0,0,0,.048,3.509,5.525,5.525,0,0,0,2.56,2.428A5.622,5.622,0,0,1,184.471,708.207Z" transform="translate(-183.515 -699.188)" fill="#fff" opacity="0.1"/>
        <path id="Path_3495" data-name="Path 3495" d="M199.86,711s.84.661,2.881,0" transform="translate(-197.244 -705.938)" opacity="0.2"/>
        <path id="Path_3496" data-name="Path 3496" d="M198.74,681s1.44,3.9,1.322,4.926l1.141-.12s-1.92-3.423-1.44-4.8Z" transform="translate(-196.304 -680.739)" fill="#01d7bb"/>
        <path id="Path_3497" data-name="Path 3497" d="M198.74,681s1.44,3.9,1.322,4.926l1.141-.12s-1.92-3.423-1.44-4.8Z" transform="translate(-196.304 -680.739)" opacity="0.2"/>
        <path id="Path_3498" data-name="Path 3498" d="M212.115,679.95s-2.269-1.16-3.284-.2-1.171,3.409-1.171,3.409A3.958,3.958,0,0,0,212.115,679.95Z" transform="translate(-203.796 -679.369)" fill="#01d7bb"/>
        <path id="Path_3499" data-name="Path 3499" d="M212.115,679.95s-2.269-1.16-3.284-.2-1.171,3.409-1.171,3.409A3.958,3.958,0,0,0,212.115,679.95Z" transform="translate(-203.796 -679.369)" fill="#fff" opacity="0.1"/>
        <path id="Path_3500" data-name="Path 3500" d="M207.66,686.2s.6-2.844,4.455-3.2" transform="translate(-203.796 -682.419)" fill="none" stroke="#01d7bb" stroke-miterlimit="10" stroke-width="1"/>
      </g>
      <path id="Path_3501" data-name="Path 3501" d="M247.122,725.734a2.833,2.833,0,0,0-3.361,1.231,3.645,3.645,0,0,0,.048,3.509A5.153,5.153,0,0,0,248.8,733.3c2.375-.126,3.164-1.94,3.378-3.625a3.724,3.724,0,0,0-4.945-3.986Z" transform="translate(-218.795 -627.923)" fill="#01d7bb"/>
      <path id="Path_3502" data-name="Path 3502" d="M244.321,730.308a3.646,3.646,0,0,1-.048-3.509,2.832,2.832,0,0,1,3.361-1.231l.117-.042a3.69,3.69,0,0,1,2.664.059,3.69,3.69,0,0,0-3.146-.3l-.117.042a2.833,2.833,0,0,0-3.361,1.231,3.646,3.646,0,0,0,.048,3.509,5.525,5.525,0,0,0,2.56,2.428A5.622,5.622,0,0,1,244.321,730.308Z" transform="translate(-218.82 -627.578)" fill="#fff" opacity="0.1"/>
      <path id="Path_3503" data-name="Path 3503" d="M259.71,733.09s.84.661,2.881,0" transform="translate(-232.55 -634.319)" opacity="0.2"/>
      <path id="Path_3504" data-name="Path 3504" d="M258.58,703.07s1.44,3.9,1.322,4.926l1.141-.12s-1.92-3.423-1.44-4.8Z" transform="translate(-231.6 -609.103)" fill="#01d7bb"/>
      <path id="Path_3505" data-name="Path 3505" d="M258.58,703.07s1.44,3.9,1.322,4.926l1.141-.12s-1.92-3.423-1.44-4.8Z" transform="translate(-231.6 -609.103)" opacity="0.2"/>
      <path id="Path_3506" data-name="Path 3506" d="M271.965,702.05s-2.269-1.16-3.284-.2-1.171,3.409-1.171,3.409A3.96,3.96,0,0,0,271.965,702.05Z" transform="translate(-239.101 -607.759)" fill="#01d7bb"/>
      <path id="Path_3507" data-name="Path 3507" d="M271.965,702.05s-2.269-1.16-3.284-.2-1.171,3.409-1.171,3.409A3.96,3.96,0,0,0,271.965,702.05Z" transform="translate(-239.101 -607.759)" fill="#fff" opacity="0.1"/>
      <path id="Path_3508" data-name="Path 3508" d="M267.51,708.341s.6-2.844,4.455-3.2" transform="translate(-239.101 -610.842)" fill="none" stroke="#01d7bb" stroke-miterlimit="10" stroke-width="1"/>
      <path id="Path_3509" data-name="Path 3509" d="M127.578,648.2s.222-.248-.2-.347v-.408h.251a2.154,2.154,0,0,0-1.706-2.106v-.495h.066v-.64h-1.616v.64h.046v.5a2.154,2.154,0,0,0-1.677,2.1h.224v.392s-.531.251,0,.7.448.783.448.783-.224.839-.671.951v7.8a1.733,1.733,0,0,0,1.733,1.733h1.37a1.733,1.733,0,0,0,1.727-1.732v-7.8s-.783-.587-.64-.951a8.8,8.8,0,0,1,.64-1.119Z" transform="translate(-117.494 -559.654)" fill="#01d7bb"/>
    </g>
  </g>
</svg>
