<svg xmlns="http://www.w3.org/2000/svg" width="45.603" height="32.333" viewBox="0 0 45.603 32.333">
  <g id="brand5" transform="translate(-33.999 -599.094)">
    <path id="Path_6082" data-name="Path 6082" d="M131.038,318.274v-.859h.022a1.494,1.494,0,0,0,.427.055.66.66,0,0,0,.726-.531l.205-.547-1.83-4.681h1.131l.9,2.5c.15.421.316,1,.316,1h.022s.155-.58.311-1l.86-2.5h1.1l-1.958,5.283c-.366,1.028-.732,1.34-1.569,1.34h-.122a2.421,2.421,0,0,1-.538-.055Zm-36.228,0v-6.563h1.026v.629h.028a1.781,1.781,0,0,1,1.486-.755c1.264,0,2.1,1,2.1,2.538s-.832,2.527-2.107,2.527a1.672,1.672,0,0,1-1.442-.689h-.028v2.319Zm1.015-4.129c0,.941.416,1.619,1.331,1.619.76,0,1.2-.629,1.2-1.619,0-.963-.377-1.684-1.231-1.684C96.219,312.46,95.825,313.215,95.825,314.145Zm30.056-.033a2.354,2.354,0,0,1,2.385-2.527,2,2,0,0,1,2.146,1.712h-1.065a1.017,1.017,0,0,0-1.059-.864c-.887,0-1.348.689-1.348,1.668,0,.962.449,1.663,1.331,1.663a1,1,0,0,0,1.109-.957h1.042a1.956,1.956,0,0,1-2.135,1.827h-.022A2.362,2.362,0,0,1,125.881,314.112Zm-4.969,1.094c0-1.094.871-1.384,2-1.548.732-.12,1.142-.175,1.142-.6,0-.41-.333-.667-.921-.667-.649,0-.965.257-.993.815h-1.015c.028-.875.638-1.6,2-1.6,1.309,0,1.98.536,1.98,1.652v2.095c0,.35.072.492.416.438h.022v.673a1.039,1.039,0,0,1-.5.1c-.577.011-.893-.186-.987-.678a1.716,1.716,0,0,1-1.508.722C121.6,316.611,120.912,316.135,120.912,315.206Zm2.2-.875c-.7.153-1.109.279-1.109.837,0,.525.355.678.815.678a1.123,1.123,0,0,0,1.248-1.061v-.755A3.283,3.283,0,0,1,123.108,314.331Zm-18.089.875c0-1.094.871-1.384,2-1.548.726-.12,1.142-.175,1.142-.6,0-.41-.333-.667-.921-.667-.649,0-.97.257-.993.815H105.23c.022-.875.638-1.6,2-1.6,1.309,0,1.98.536,1.98,1.652v2.095c0,.35.072.492.416.438h.022v.673a1.039,1.039,0,0,1-.5.1c-.588.011-.893-.186-.987-.678a1.717,1.717,0,0,1-1.514.722C105.7,316.611,105.019,316.135,105.019,315.206Zm2.2-.875c-.7.153-1.109.279-1.109.837,0,.525.355.678.81.678a1.122,1.122,0,0,0,1.253-1.061v-.755A3.287,3.287,0,0,1,107.215,314.331Zm11.961,2.188v-3.139a.775.775,0,0,0-.8-.875,1.043,1.043,0,0,0-1.015,1.143v2.86H116.3v-3.139c0-.574-.3-.875-.776-.875a1.066,1.066,0,0,0-1.026,1.138V316.5h-1.065v-4.785h1.026v.667h.022a1.635,1.635,0,0,1,1.42-.782,1.382,1.382,0,0,1,1.309.848h.022a1.7,1.7,0,0,1,1.475-.848,1.473,1.473,0,0,1,1.547,1.641v3.281Zm-15.893.005v-3.1a.857.857,0,0,0-.943-.908,1.122,1.122,0,0,0-1.131,1.187v2.816h-1.065v-6.672h1.065v2.5h.022a1.654,1.654,0,0,1,1.464-.755,1.57,1.57,0,0,1,1.653,1.7v3.227Zm6.976-.011v-4.8H111.3v.793h.011a1.409,1.409,0,0,1,1.3-.82,1.055,1.055,0,0,1,.3.027v.957h-.022a.855.855,0,0,0-.261-.022,1.273,1.273,0,0,0-1.309,1.405v2.461Zm25.2-5.567a1.053,1.053,0,0,1,.309-.772,1.084,1.084,0,0,1,.778-.316,1.091,1.091,0,0,1,0,2.182A1.053,1.053,0,0,1,135.463,310.946Zm.238,0a.84.84,0,0,0,.848.9.9.9,0,1,0-.848-.9Zm1.142.64-.322-.509h-.189v.5h-.2v-1.192h.46c.294,0,.444.1.444.345a.3.3,0,0,1-.316.328l.344.53Zm-.521-.684h.238c.15,0,.277-.011.277-.186,0-.153-.139-.164-.266-.164h-.25Zm-9.632-6.36h3.338c.177.793.632,1.066,1.569,1.066.832,0,1.287-.29,1.287-.755,0-.667-.61-.711-1.885-1.039a10.71,10.71,0,0,1-2.884-1.017,2.766,2.766,0,0,1-1.22-2.428c0-2.04,1.63-3.369,4.47-3.369,2.756,0,4.37,1.192,4.558,3.325h-3.244c-.111-.634-.549-.93-1.381-.93-.721,0-1.081.235-1.081.711,0,.558.555.667,1.586.93a10.635,10.635,0,0,1,3.055,1,2.71,2.71,0,0,1,1.364,2.461c0,2.286-1.664,3.631-4.769,3.631-2.867,0-4.547-1.329-4.763-3.588Zm-19.858-1.974c0-3.445,2.1-5.567,5.423-5.567,3.105,0,4.924,1.548,5.124,4.282h-3.261a1.632,1.632,0,0,0-1.819-1.641c-1.348,0-2,.973-2,2.926,0,1.914.721,2.9,2.113,2.9a1.715,1.715,0,0,0,1.8-1.75h3.216v.016c-.189,2.767-2.041,4.392-5.113,4.392-3.416,0-5.49-2.133-5.49-5.562ZM92.487,301.9a1.56,1.56,0,0,1,0-2.209l2.246-2.209a1.541,1.541,0,0,1,1.109-.465,1.6,1.6,0,0,1,1.131.465L98.82,299.3l1.836-1.821a1.585,1.585,0,0,1,2.24,0l2.246,2.193a1.56,1.56,0,0,1,0,2.209l-6.322,6.245Zm27.793,5.95-3.588-10.538h3.494l1.8,6.8,1.93-6.8h3.372l-3.6,10.538Z" transform="translate(-58.029 302.094)" fill="#c00"/>
    <text id="at" transform="translate(36.444 628.427)" fill="#707070" font-size="9" font-family="Roboto-Medium, Roboto" font-weight="500"><tspan x="0" y="0">at</tspan></text>
    <g id="CVS-Inside-Target" transform="translate(45.07 619.31)">
      <path id="Path_6083" data-name="Path 6083" d="M6.059,0a6.059,6.059,0,1,0,6.059,6.059A6.058,6.058,0,0,0,6.059,0Zm0,10.015a3.966,3.966,0,1,1,3.966-3.966A3.968,3.968,0,0,1,6.059,10.015Z" fill="#c00"/>
      <circle id="Ellipse_337" data-name="Ellipse 337" cx="1.991" cy="1.991" r="1.991" transform="translate(4.068 4.098)" fill="#c00"/>
    </g>
  </g>
</svg>
