<svg xmlns="http://www.w3.org/2000/svg" xmlns:xlink="http://www.w3.org/1999/xlink" width="51.042" height="46.793" viewBox="0 0 51.042 46.793">
  <defs>
    <filter id="Rectangle_607" x="0" y="16.994" width="27.488" height="29.798" filterUnits="userSpaceOnUse">
      <feOffset dy="1" input="SourceAlpha"/>
      <feGaussianBlur stdDeviation="1.5" result="blur"/>
      <feFlood flood-opacity="0.161"/>
      <feComposite operator="in" in2="blur"/>
      <feComposite in="SourceGraphic"/>
    </filter>
  </defs>
  <g id="Group_1432" data-name="Group 1432" transform="translate(-59.31 -330.058)">
    <g id="Group_1428" data-name="Group 1428" transform="matrix(0.966, 0.259, -0.259, 0.966, 77.362, 329.38)">
      <g id="Rectangle_607-2" data-name="Rectangle 607" transform="translate(20.265 0) rotate(30)" fill="#fff" stroke="#f42072" stroke-width="1">
        <path d="M9.486,0h0a9.486,9.486,0,0,1,9.486,9.486V20.7a0,0,0,0,1,0,0H0a0,0,0,0,1,0,0V9.486A9.486,9.486,0,0,1,9.486,0Z" stroke="none"/>
        <path d="M9.486.5h0a8.986,8.986,0,0,1,8.986,8.986V19.768a.428.428,0,0,1-.428.428H.928A.428.428,0,0,1,.5,19.768V9.486A8.986,8.986,0,0,1,9.486.5Z" fill="none"/>
      </g>
      <g id="Rectangle_608" data-name="Rectangle 608" transform="translate(10.348 17.176) rotate(30)" fill="#f42072" stroke="#f42072" stroke-width="1">
        <path d="M0,0H18.971a0,0,0,0,1,0,0V11.21A9.486,9.486,0,0,1,9.486,20.7h0A9.486,9.486,0,0,1,0,11.21V0A0,0,0,0,1,0,0Z" stroke="none"/>
        <path d="M.928.5H18.043a.428.428,0,0,1,.428.428V11.21A8.986,8.986,0,0,1,9.486,20.2h0A8.986,8.986,0,0,1,.5,11.21V.928A.428.428,0,0,1,.928.5Z" fill="none"/>
      </g>
      <g id="Group_1426" data-name="Group 1426" transform="translate(23.501 6.86) rotate(30)">
        <path id="Path_3668" data-name="Path 3668" d="M2.749,11.346A7.3,7.3,0,0,1,.64,10.884a.6.6,0,0,1-.446-.671c.039-.436,0-.879,0-1.412a7.891,7.891,0,0,0,2,.783c.449.1.618.029.647-.5.068-1.166.05-2.119-1.365-2.609A2.308,2.308,0,0,1,.022,3.829,2.709,2.709,0,0,1,2.128,1.462c.2-.065.449-.013.618-.19S2.829.9,2.832.708c0-.754.183-.856.971-.54-.337.321-.261.744-.261,1.138V11.774a1.376,1.376,0,0,1-.19.984c-.389.1-.522-.042-.522-.446A1.539,1.539,0,0,0,2.749,11.346Z" transform="translate(0 0)" fill="#01d7bb"/>
        <path id="Path_3669" data-name="Path 3669" d="M0,12.6V.625C0,.3-.058-.062.464.009c.065,1.044.065,1.044,1.145,1.26.159.031.313.081.472.11.467.086.7.321.618.832-.055.376.11.934-.084,1.1-.235.2-.671-.185-1.025-.295C.485,2.67.563,2.67.467,3.816a1.88,1.88,0,0,0,1.286,2.22,2.516,2.516,0,0,1,1.32,3.577,2.568,2.568,0,0,1-1.6,1.292C.524,11.213.5,11.2.5,12.181.493,12.575.365,12.693,0,12.6Z" transform="translate(3.352 0.164)" fill="#01d7bb"/>
      </g>
    </g>
    <g id="Group_1427" data-name="Group 1427" transform="translate(100.114 361.064) rotate(150)">
      <g transform="matrix(-0.87, -0.5, 0.5, -0.87, 19.83, 47.25)" filter="url(#Rectangle_607)">
        <g id="Rectangle_607-3" data-name="Rectangle 607" transform="translate(22.99 41.29) rotate(180)" fill="#fff" stroke="#f42072" stroke-width="1">
          <path d="M9.244,0h0a9.244,9.244,0,0,1,9.244,9.244V20.8a0,0,0,0,1,0,0H0a0,0,0,0,1,0,0V9.244A9.244,9.244,0,0,1,9.244,0Z" stroke="none"/>
          <path d="M9.244.5h0a8.744,8.744,0,0,1,8.744,8.744V19.882a.416.416,0,0,1-.416.416H.916A.416.416,0,0,1,.5,19.882V9.244A8.744,8.744,0,0,1,9.244.5Z" fill="none"/>
        </g>
      </g>
      <g id="Path_3673" data-name="Path 3673" transform="translate(10.465 17.676) rotate(30)" fill="#f42072">
        <path d="M 9.660333633422852 20.43073463439941 L 8.855314254760742 20.43073463439941 C 4.248183727264404 20.43073463439941 0.5000039339065552 16.68255615234375 0.5000039339065552 12.07542514801025 L 0.5000039339065552 0.4999954104423523 L 18.01564407348633 0.4999954104423523 L 18.01564407348633 12.07542514801025 C 18.01564407348633 16.68255615234375 14.26746368408203 20.43073463439941 9.660333633422852 20.43073463439941 Z" stroke="none"/>
        <path d="M 1.000003814697266 0.9999961853027344 L 1.000003814697266 12.07542514801025 C 1.000003814697266 16.40685653686523 4.523883819580078 19.93073463439941 8.855314254760742 19.93073463439941 L 9.660333633422852 19.93073463439941 C 13.99176406860352 19.93073463439941 17.51564407348633 16.40685653686523 17.51564407348633 12.07542514801025 L 17.51564407348633 0.9999961853027344 L 1.000003814697266 0.9999961853027344 M 3.814697265625e-06 -3.814697265625e-06 L 18.51564407348633 -3.814697265625e-06 L 18.51564407348633 12.07542514801025 C 18.51564407348633 16.9660758972168 14.55098342895508 20.93073463439941 9.660333633422852 20.93073463439941 L 8.855314254760742 20.93073463439941 C 3.964653968811035 20.93073463439941 3.814697265625e-06 16.9660758972168 3.814697265625e-06 12.07542514801025 L 3.814697265625e-06 -3.814697265625e-06 Z" stroke="none" fill="#f42072"/>
      </g>
    </g>
  </g>
</svg>
