<svg id="cvs-pharmacy-1" xmlns="http://www.w3.org/2000/svg" width="30" height="30" viewBox="0 0 30 30">
  <path id="Path_6052" data-name="Path 6052" d="M0,0H30V30H0Z" fill="#c00"/>
  <path id="Path_6053" data-name="Path 6053" d="M112.694,308.27v-.455h.012a.791.791,0,0,0,.226.029.35.35,0,0,0,.385-.281l.109-.29-.969-2.48h.6l.476,1.327c.079.223.167.53.167.53h.012s.082-.307.165-.53l.455-1.327h.582l-1.037,2.8c-.194.545-.388.71-.831.71h-.065a1.285,1.285,0,0,1-.285-.029Zm-19.192,0v-3.477h.543v.333h.015a.943.943,0,0,1,.787-.4c.67,0,1.113.53,1.113,1.344s-.441,1.338-1.116,1.338a.886.886,0,0,1-.764-.365h-.015v1.228Zm.538-2.187c0,.5.22.858.705.858.4,0,.635-.333.635-.858s-.2-.892-.652-.892C94.248,305.19,94.04,305.59,94.04,306.083Zm15.922-.017a1.247,1.247,0,0,1,1.263-1.338,1.058,1.058,0,0,1,1.137.907H111.8a.539.539,0,0,0-.561-.458c-.47,0-.714.365-.714.884s.238.881.705.881a.532.532,0,0,0,.588-.507h.552a1.036,1.036,0,0,1-1.131.968h-.012A1.251,1.251,0,0,1,109.962,306.065Zm-2.632.579c0-.579.461-.733,1.058-.82.388-.064.605-.093.605-.319s-.176-.353-.488-.353c-.344,0-.511.136-.526.432h-.538c.015-.464.338-.846,1.058-.846.693,0,1.049.284,1.049.875v1.11c0,.185.038.261.22.232h.012v.356a.551.551,0,0,1-.264.055c-.306.006-.473-.1-.523-.359a.909.909,0,0,1-.8.382C107.694,307.389,107.33,307.137,107.33,306.645Zm1.163-.464c-.37.081-.588.148-.588.443,0,.278.188.359.432.359a.6.6,0,0,0,.661-.562v-.4A1.739,1.739,0,0,1,108.493,306.181Zm-9.583.464c0-.579.461-.733,1.058-.82.385-.064.605-.093.605-.319s-.176-.353-.488-.353c-.344,0-.514.136-.526.432h-.538c.012-.464.338-.846,1.058-.846.693,0,1.049.284,1.049.875v1.11c0,.185.038.261.22.232h.012v.356a.551.551,0,0,1-.264.055c-.311.006-.473-.1-.523-.359a.909.909,0,0,1-.8.382C99.271,307.389,98.91,307.137,98.91,306.645Zm1.163-.464c-.37.081-.588.148-.588.443,0,.278.188.359.429.359a.594.594,0,0,0,.664-.562v-.4A1.742,1.742,0,0,1,100.073,306.181Zm6.337,1.159v-1.663a.41.41,0,0,0-.423-.464.553.553,0,0,0-.538.606v1.515h-.564v-1.663c0-.3-.162-.464-.411-.464a.565.565,0,0,0-.543.6v1.518h-.564v-2.535h.543v.353h.012a.866.866,0,0,1,.752-.414.732.732,0,0,1,.693.449h.012a.9.9,0,0,1,.781-.449.78.78,0,0,1,.82.869v1.738Zm-8.419,0V305.7a.454.454,0,0,0-.5-.481.594.594,0,0,0-.6.629v1.492h-.564v-3.534h.564v1.324H96.9a.876.876,0,0,1,.776-.4.832.832,0,0,1,.875.9v1.709Zm3.7-.006v-2.544h.549v.42h.006a.747.747,0,0,1,.687-.435.558.558,0,0,1,.162.014v.507h-.012a.452.452,0,0,0-.138-.012.674.674,0,0,0-.693.745v1.3Zm13.352-2.949a.558.558,0,0,1,.164-.409.574.574,0,0,1,.412-.168.578.578,0,0,1,0,1.156A.558.558,0,0,1,115.038,304.388Zm.126,0a.445.445,0,0,0,.449.475.474.474,0,1,0-.449-.475Zm.605.339-.17-.269h-.1v.264h-.106v-.632h.244c.156,0,.235.055.235.183a.16.16,0,0,1-.167.174l.182.281Zm-.276-.362h.126c.079,0,.147-.006.147-.1s-.073-.087-.141-.087h-.132Zm-5.1-3.369h1.768c.094.42.335.565.831.565.441,0,.682-.154.682-.4,0-.353-.323-.377-1-.55a5.675,5.675,0,0,1-1.528-.539,1.465,1.465,0,0,1-.646-1.286c0-1.081.864-1.785,2.368-1.785,1.46,0,2.315.632,2.415,1.761h-1.719c-.059-.336-.291-.493-.731-.493-.382,0-.573.125-.573.377,0,.3.294.353.84.493a5.635,5.635,0,0,1,1.619.53,1.435,1.435,0,0,1,.723,1.3c0,1.211-.881,1.924-2.526,1.924-1.519,0-2.409-.7-2.523-1.9Zm-10.52-1.046A2.7,2.7,0,0,1,102.744,297c1.645,0,2.609.82,2.714,2.268h-1.727a.865.865,0,0,0-.964-.869c-.714,0-1.06.516-1.06,1.55,0,1.014.382,1.538,1.119,1.538a.909.909,0,0,0,.955-.927h1.7v.009a2.409,2.409,0,0,1-2.709,2.326,2.709,2.709,0,0,1-2.908-2.946Zm-7.6-.353a.826.826,0,0,1,0-1.17l1.19-1.17a.816.816,0,0,1,.588-.246.849.849,0,0,1,.6.246l.978.965.972-.965a.84.84,0,0,1,1.187,0l1.19,1.162a.826.826,0,0,1,0,1.17L95.626,302.9Zm14.724,3.152-1.9-5.583h1.851l.955,3.6,1.022-3.6h1.786l-1.907,5.583Z" transform="translate(-89.362 -288.239)" fill="#fff"/>
</svg>
