<svg xmlns="http://www.w3.org/2000/svg" width="61.989" height="69.988" viewBox="0 0 61.989 69.988">
  <g id="Group_1473" data-name="Group 1473" transform="translate(-4666.287 -922.035)">
    <g id="charity" transform="translate(4716.552 959.024) rotate(-135)">
      <g id="Group_1467" data-name="Group 1467" transform="translate(0 0)">
        <g id="Group_1466" data-name="Group 1466">
          <path id="Path_3681" data-name="Path 3681" d="M35.264,1.145a3.292,3.292,0,0,0-3.6.13c-1.164.672-7.85,6.388-7.85,6.388H17.238a.72.72,0,0,1-.638-.649.651.651,0,0,1,.638-.638h4.026a2.789,2.789,0,0,0,2.987-2.551,2.721,2.721,0,0,0-2.987-2.551c-2.445,0-2.921.01-2.921.01A5.925,5.925,0,0,1,15.605.819,7.551,7.551,0,0,0,12.154,0,7.369,7.369,0,0,0,6.868,2.166L0,8.927,7.652,16.58,10.2,14.029H23.118A5.251,5.251,0,0,0,26.605,12.7l8.745-9.81A1.118,1.118,0,0,0,35.264,1.145Z" transform="translate(0 0)" fill="#f42072"/>
        </g>
      </g>
    </g>
    <g id="Group_1271" data-name="Group 1271" transform="translate(4689.408 941.536)">
      <g id="Group_1270" data-name="Group 1270">
        <path id="Path_3177" data-name="Path 3177" d="M186.3,120.069a1.264,1.264,0,0,0-1.7-.565l-.011.006a1.264,1.264,0,1,0,1.707.56Z" transform="translate(-183.898 -119.37)" fill="#f31f71"/>
      </g>
    </g>
    <g id="Group_1275" data-name="Group 1275" transform="translate(4686.209 943.587)">
      <g id="Group_1274" data-name="Group 1274" transform="translate(0 0)">
        <path id="Path_3179" data-name="Path 3179" d="M160.856,136.065a1.265,1.265,0,0,0-1.777-.192l.784.992-.787-.989a1.264,1.264,0,0,0,1.575,1.977l.017-.014A1.262,1.262,0,0,0,160.856,136.065Z" transform="translate(-158.599 -135.595)" fill="#f31f71"/>
      </g>
    </g>
    <g id="Group_1277" data-name="Group 1277" transform="translate(4680.128 953.005)">
      <g id="Group_1276" data-name="Group 1276">
        <path id="Path_3180" data-name="Path 3180" d="M112.086,210.151a1.264,1.264,0,0,0-1.552.887l-.012.047a1.264,1.264,0,1,0,1.564-.934Z" transform="translate(-110.487 -210.106)" fill="#f31f71"/>
      </g>
    </g>
    <g id="Group_1279" data-name="Group 1279" transform="translate(4679.585 956.762)">
      <g id="Group_1278" data-name="Group 1278" transform="translate(0 0)">
        <path id="Path_3181" data-name="Path 3181" d="M107.528,239.826a1.264,1.264,0,0,0-1.335,1.189c0,.016,0,.032,0,.049a1.263,1.263,0,0,0,1.226,1.3h.038a1.27,1.27,0,0,0,.073-2.537Z" transform="translate(-106.191 -239.824)" fill="#f31f71"/>
      </g>
    </g>
    <g id="Group_1281" data-name="Group 1281" transform="translate(4681.461 949.451)">
      <g id="Group_1280" data-name="Group 1280" transform="translate(0 0)">
        <path id="Path_3182" data-name="Path 3182" d="M122.894,182.134a1.264,1.264,0,0,0-1.706.532l-.021.041a1.264,1.264,0,1,0,1.727-.573Z" transform="translate(-121.037 -181.989)" fill="#f31f71"/>
      </g>
    </g>
    <g id="Group_1283" data-name="Group 1283" transform="translate(4683.522 946.264)">
      <g id="Group_1282" data-name="Group 1282" transform="translate(0 0)">
        <path id="Path_3183" data-name="Path 3183" d="M139.418,157.065a1.264,1.264,0,0,0-1.78.165l-.026.032a1.264,1.264,0,1,0,1.806-.2Z" transform="translate(-137.339 -156.773)" fill="#f31f71"/>
      </g>
    </g>
    <g id="Group_1439" data-name="Group 1439" transform="translate(4701.585 969.772)">
      <g id="Group_1270-2" data-name="Group 1270" transform="translate(0)">
        <path id="Path_3177-2" data-name="Path 3177" d="M184.031,121.2a1.264,1.264,0,0,0,1.7.565l.011-.006a1.264,1.264,0,1,0-1.707-.56Z" transform="translate(-183.898 -119.37)" fill="#f31f71"/>
      </g>
    </g>
    <g id="Group_1440" data-name="Group 1440" transform="translate(4704.781 967.716)">
      <g id="Group_1274-2" data-name="Group 1274" transform="translate(0 0)">
        <path id="Path_3179-2" data-name="Path 3179" d="M158.879,137.658a1.265,1.265,0,0,0,1.777.192l-.784-.992.787.989a1.264,1.264,0,0,0-1.575-1.977l-.017.014A1.262,1.262,0,0,0,158.879,137.658Z" transform="translate(-158.599 -135.595)" fill="#f31f71"/>
      </g>
    </g>
    <g id="Group_1441" data-name="Group 1441" transform="translate(4710.868 958.292)">
      <g id="Group_1276-2" data-name="Group 1276" transform="translate(0)">
        <path id="Path_3180-2" data-name="Path 3180" d="M111.418,212.6a1.264,1.264,0,0,0,1.552-.887l.012-.047a1.264,1.264,0,1,0-1.564.934Z" transform="translate(-110.487 -210.106)" fill="#f31f71"/>
      </g>
    </g>
    <g id="Group_1442" data-name="Group 1442" transform="translate(4711.415 954.536)">
      <g id="Group_1278-2" data-name="Group 1278" transform="translate(0 0)">
        <path id="Path_3181-2" data-name="Path 3181" d="M107.381,242.361a1.264,1.264,0,0,0,1.335-1.189c0-.016,0-.032,0-.049a1.263,1.263,0,0,0-1.226-1.3h-.038a1.27,1.27,0,0,0-.073,2.537Z" transform="translate(-106.191 -239.824)" fill="#f31f71"/>
      </g>
    </g>
    <g id="Group_1443" data-name="Group 1443" transform="translate(4709.532 961.847)">
      <g id="Group_1280-2" data-name="Group 1280" transform="translate(0 0)">
        <path id="Path_3182-2" data-name="Path 3182" d="M121.714,184.383a1.264,1.264,0,0,0,1.706-.532l.021-.041a1.264,1.264,0,1,0-1.727.573Z" transform="translate(-121.037 -181.989)" fill="#f31f71"/>
      </g>
    </g>
    <g id="Group_1444" data-name="Group 1444" transform="translate(4707.47 965.037)">
      <g id="Group_1282-2" data-name="Group 1282" transform="translate(0 0)">
        <path id="Path_3183-2" data-name="Path 3183" d="M137.8,159.018a1.264,1.264,0,0,0,1.78-.165l.026-.032a1.264,1.264,0,1,0-1.806.2Z" transform="translate(-137.339 -156.773)" fill="#f31f71"/>
      </g>
    </g>
    <g id="charity-2" data-name="charity" transform="translate(4678.011 955.035) rotate(45)">
      <g id="Group_1467-2" data-name="Group 1467" transform="translate(0 0)">
        <g id="Group_1466-2" data-name="Group 1466">
          <path id="Path_3681-2" data-name="Path 3681" d="M35.263,1.145a3.292,3.292,0,0,0-3.6.13c-1.164.672-7.85,6.388-7.85,6.388H17.238a.72.72,0,0,1-.638-.649.651.651,0,0,1,.638-.638h4.026a2.789,2.789,0,0,0,2.987-2.551,2.721,2.721,0,0,0-2.987-2.551c-2.445,0-2.921.01-2.921.01A5.925,5.925,0,0,1,15.605.819,7.551,7.551,0,0,0,12.154,0,7.369,7.369,0,0,0,6.868,2.166L0,8.927,7.652,16.58,10.2,14.029H23.118A5.251,5.251,0,0,0,26.605,12.7l8.745-9.81A1.118,1.118,0,0,0,35.263,1.145Z" fill="#f42072"/>
        </g>
      </g>
    </g>
    <g id="Group_1472" data-name="Group 1472" transform="translate(4530.043 471.067)">
      <path id="heart" d="M13.107,1.239A3.828,3.828,0,0,0,10.259,0,3.581,3.581,0,0,0,8.023.772a4.576,4.576,0,0,0-.9.944,4.574,4.574,0,0,0-.9-.944A3.581,3.581,0,0,0,3.977,0,3.828,3.828,0,0,0,1.13,1.239,4.45,4.45,0,0,0,0,4.278,5.3,5.3,0,0,0,1.412,7.747a30.108,30.108,0,0,0,3.534,3.317c.49.417,1.045.89,1.621,1.394a.836.836,0,0,0,1.1,0c.576-.5,1.132-.977,1.622-1.395a30.091,30.091,0,0,0,3.534-3.317,5.3,5.3,0,0,0,1.412-3.468,4.449,4.449,0,0,0-1.129-3.039Zm0,0" transform="translate(159.741 479.384)" fill="#01d7bb"/>
    </g>
  </g>
</svg>
