<svg xmlns="http://www.w3.org/2000/svg" width="44.046" height="39.229" viewBox="0 0 44.046 39.229">
  <g id="Rite-Aid" transform="translate(0.023 -0.01)">
    <path id="Path_6059" data-name="Path 6059" d="M40.5,17.052h0V5.616A2.007,2.007,0,0,0,38.525,3.6H5.632A1.894,1.894,0,0,0,3.5,5.682V17.448" transform="translate(0 -0.067)" fill="#fff" stroke="#fff" stroke-width="7.046"/>
    <path id="Path_6060" data-name="Path 6060" d="M3.5,44.731v9.882c.063,3.272,3.731,4.231,3.731,4.231L21.937,64.1l14.769-5.222s3.794-.992,3.794-4.3V44.4" transform="translate(0 -28.598)" fill="#fff" stroke="#fff" stroke-width="7.046"/>
    <path id="Path_6061" data-name="Path 6061" d="M40.5,16.555V5.516A2.007,2.007,0,0,0,38.525,3.5H5.632A1.894,1.894,0,0,0,3.5,5.582v10.94l37,.033Z" fill="#004f99"/>
    <path id="Path_6062" data-name="Path 6062" d="M3.5,46.8v9.453c.063,3.272,3.731,4.231,3.731,4.231l14.706,5.222,14.769-5.222s3.794-.992,3.794-4.3V46.8H3.5Z" transform="translate(0 -30.205)" fill="#ef3e42"/>
    <path id="Path_6063" data-name="Path 6063" d="M25.8,64.445,29.6,54.1h2.446s4.065,10.345,4.032,10.345H33.633l-.628-1.653h-4.2l-.595,1.653Zm6.445-3.669-1.322-3.47-.033-.033-1.256,3.536h2.611Z" transform="translate(-15.443 -34.765)" fill="#fff"/>
    <path id="Path_6064" data-name="Path 6064" d="M60,54.2h2.446V64.479H60Z" transform="translate(-38.848 -34.832)" fill="#fff"/>
    <path id="Path_6065" data-name="Path 6065" d="M72.7,54.2h5.057c1.52,0,3.933,1.256,3.933,4.925,0,2.875-1.256,5.354-4.792,5.354H72.7V54.2Zm2.314,8.428h1.553c2.314,0,2.875-1.553,2.842-3.239-.033-2.016-.529-3.239-2.71-3.239H75.014v6.478Z" transform="translate(-47.853 -34.832)" fill="#fff"/>
    <path id="Path_6066" data-name="Path 6066" d="M48.9,8.6h2.545v9.552H48.9Z" transform="translate(-31.218 -3.414)" fill="#fff"/>
    <path id="Path_6067" data-name="Path 6067" d="M58.8,8.6h7.37v2.148H63.758v7.4H61.279v-7.4H58.8Z" transform="translate(-38.179 -3.414)" fill="#fff"/>
    <path id="Path_6068" data-name="Path 6068" d="M90.344,12.4v2.016H86.114v1.719H91.1v2.016H83.8V8.6h7.3v2.148H86.114V12.4Z" transform="translate(-55.76 -3.414)" fill="#fff"/>
    <path id="Path_6069" data-name="Path 6069" d="M20.5,8.7h5.024c2.446,0,3.437,1.388,3.437,3.272a3.154,3.154,0,0,1-2.049,2.908s2.214,3.4,2.148,3.371H26.019l-3.7-5.024h2.743c.3,0,1.421-.066,1.421-1.223a1.244,1.244,0,0,0-1.421-1.289H22.814v7.536H20.5V8.7Z" transform="translate(-11.381 -3.481)" fill="#fff"/>
    <path id="Path_6070" data-name="Path 6070" d="M107,94.49a1.223,1.223,0,1,1,1.223,1.19A1.172,1.172,0,0,1,107,94.49Zm1.223,1.025a.992.992,0,1,0-.992-.992A.967.967,0,0,0,108.223,95.514Zm-.264-.331h-.2V93.8h.529q.5,0,.5.4a.4.4,0,0,1-.364.4l.4.595h-.231l-.364-.595h-.231v.595Zm.264-.76c.165,0,.331,0,.331-.231,0-.165-.165-.2-.3-.2h-.3v.43h.264Z" transform="translate(-71.292 -61.336)" fill="#004f99"/>
  </g>
</svg>
