<svg id="Walgreens" xmlns="http://www.w3.org/2000/svg" xmlns:xlink="http://www.w3.org/1999/xlink" width="30" height="30" viewBox="0 0 30 30">
  <defs>
    <linearGradient id="linear-gradient" x1="0.5" y1="0.923" x2="0.5" y2="0.492" gradientUnits="objectBoundingBox">
      <stop offset="0" stop-color="#a41e22"/>
      <stop offset="0.228" stop-color="#9c1c1f"/>
      <stop offset="0.649" stop-color="#861316"/>
      <stop offset="1" stop-color="#72090a"/>
    </linearGradient>
  </defs>
  <g id="Group_1766" data-name="Group 1766">
    <path id="Path_6054" data-name="Path 6054" d="M10.261,40.65,0,30.981V13.3l10.261,7.429Z" transform="translate(0 -10.65)" fill="url(#linear-gradient)"/>
    <path id="Path_6055" data-name="Path 6055" d="M25.138,0H0V19.44H25.138a1.351,1.351,0,0,0,1.4-1.284V1.284A1.327,1.327,0,0,0,25.138,0Z" fill="#e31837"/>
  </g>
  <path id="Path_6056" data-name="Path 6056" d="M23.022,29.548c4.583.837,7.93-3.587,10.062-7.432.857-1.534,2.172-5.559.7-7.093-1.335-1.474-2.371.458-3.168,1.1l.618.717c1.215,1.534.159,4.483-.558,6.037-1.1,1.933-3.148,4.842-5.539,4.443A1.777,1.777,0,0,1,24,26.16a26.861,26.861,0,0,0,3.686-5.021c.717-1.215,1.973-3.567.817-4.523-.956-.658-2.869.3-3.905,1.156a10.132,10.132,0,0,0-1.534,1.674,12.867,12.867,0,0,0-2.451,7.213,2.507,2.507,0,0,1-2.212.658c-.857-.2-1.016-.917-1.136-1.494-.538-3.427,2.889-7.751,4.822-10.222a14.13,14.13,0,0,1-2.63.458c-2.55.1-4.443-1.076-5.818.618a4.1,4.1,0,0,0-.737,1.993,3.12,3.12,0,0,1,2.212-.319,8.364,8.364,0,0,0,3.308-.04c-1.116,1.554-2.969,4.662-3.308,6.575-.179,1.275-.159,3.288.936,4.2,1.813,1.2,3.606.359,5.22-.757A3.086,3.086,0,0,0,23.022,29.548Zm3.068-10.7c.478-.239.339.478.339.478a7.193,7.193,0,0,1-1.076,2.53,12,12,0,0,1-2.61,2.929,12.667,12.667,0,0,1,1.773-4.344A5.227,5.227,0,0,1,26.09,18.848Z" transform="translate(-10.33 -11.595)" fill="#fff"/>
  <g id="Group_1767" data-name="Group 1767" transform="translate(27.529 18.975)">
    <path id="Path_6057" data-name="Path 6057" d="M144.2,103.939h-.4V103.8h1v.139h-.418v1.2H144.2Z" transform="translate(-143.8 -103.8)" fill="#939598"/>
    <path id="Path_6058" data-name="Path 6058" d="M150.556,104.617c0-.179-.02-.418-.02-.578h0c-.04.159-.1.319-.159.518l-.239.658H150l-.219-.638c-.06-.2-.12-.359-.159-.518h0c0,.159-.02.4-.02.6l-.04.578H149.4l.1-1.335h.219l.219.658c.06.159.1.319.139.458h0c.04-.139.08-.279.139-.458l.239-.658h.219l.08,1.335h-.179Z" transform="translate(-148.284 -103.88)" fill="#939598"/>
  </g>
</svg>
