<svg xmlns="http://www.w3.org/2000/svg" width="84" height="30" viewBox="0 0 84 30">
  <g id="Walmart" transform="translate(-96 -360.7)">
    <path id="Path_6050" data-name="Path 6050" d="M744.7,367.71a.912.912,0,0,0,.963-.58l.487-5.447c0-.538-.642-.984-1.45-.984s-1.439.445-1.439.984l.487,5.447C743.795,367.462,744.209,367.71,744.7,367.71Zm-2.941,1.626a.854.854,0,0,0-.031-1.087l-4.5-3.086c-.466-.259-1.17.052-1.564.735s-.331,1.419.135,1.688l4.981,2.268A.9.9,0,0,0,741.755,369.336Zm5.85,0a.894.894,0,0,0,.973.518l4.991-2.268c.466-.269.528-1.015.135-1.688s-1.1-.994-1.564-.735l-4.5,3.086A.854.854,0,0,0,747.605,369.336Zm-3.013,5.25a.91.91,0,0,1,.963.59l.5,5.478c0,.549-.642.984-1.46.984s-1.46-.435-1.46-.984l.5-5.478A.91.91,0,0,1,744.592,374.586Zm3.013-1.75a.872.872,0,0,1,.973-.507l4.991,2.257c.466.269.528,1.025.135,1.7s-1.1.994-1.564.735l-4.5-3.086A.871.871,0,0,1,747.605,372.836Zm-5.85,0a.871.871,0,0,1-.031,1.1l-4.5,3.086c-.466.259-1.17-.062-1.564-.735s-.331-1.429.135-1.688l4.981-2.268A.892.892,0,0,1,741.755,372.836ZM755,376.864c-.01-.083-.052-.124-.155-.145.124-.021.176-.073.176-.135a.186.186,0,0,0-.062-.135.321.321,0,0,0-.207-.041l-.249.021v.6h.166v-.155h.062s.114-.052.124.01a.4.4,0,0,0,.041.155h.145A.88.88,0,0,1,755,376.864Zm-.269-.186h-.062V376.5h.083q.124,0,.124.093C754.874,376.657,754.812,376.677,754.729,376.677Zm.021-.57a.6.6,0,1,0,.59.673.59.59,0,0,0-.59-.673Zm0,1.077a.476.476,0,0,1-.01-.953h.01a.477.477,0,0,1,0,.953Z" transform="translate(-575.346)" fill="#ffb718"/>
    <path id="Path_6051" data-name="Path 6051" d="M111.3,421.028a3.61,3.61,0,0,0,.87.079c1.253,0,2.03-.581,2.03-1.624s-.756-1.5-1.916-1.5a4.36,4.36,0,0,0-.984.079Zm-1.035-3.623a12.873,12.873,0,0,1,1.988-.138,3.357,3.357,0,0,1,2.237.63,1.966,1.966,0,0,1,.7,1.595,2.228,2.228,0,0,1-.621,1.634,3.884,3.884,0,0,1-2.444.837,4.172,4.172,0,0,1-.828-.069v3.052h-1.035Zm6.368-.473h1.025v3.436h.031a1.881,1.881,0,0,1,.735-.7,2.164,2.164,0,0,1,1.046-.276c.756,0,1.978.453,1.978,2.323v3.229h-1.035v-3.14c0-.876-.342-1.624-1.3-1.624a1.473,1.473,0,0,0-1.377.994,1.306,1.306,0,0,0-.072.473v3.3h-1.025Zm9.454,5.2c-1.149-.02-2.464.177-2.464,1.231a.91.91,0,0,0,.994.955,1.439,1.439,0,0,0,1.408-.916.857.857,0,0,0,.062-.315Zm.176,2.816-.083-.65h-.031a2.219,2.219,0,0,1-1.75.768,1.572,1.572,0,0,1-1.76-1.487c0-1.26,1.232-1.949,3.448-1.93v-.108c0-.433-.124-1.2-1.3-1.2a3.091,3.091,0,0,0-1.491.384l-.238-.62a3.777,3.777,0,0,1,1.885-.463,1.919,1.919,0,0,1,2.185,2.117v1.949a6.53,6.53,0,0,0,.093,1.24Zm2.578-3.711c0-.63-.01-1.181-.052-1.683h.911l.031.984h.052a1.8,1.8,0,0,1,1.667-1.1,1.387,1.387,0,0,1,.311.039v.856a2.025,2.025,0,0,0-.373-.03,1.454,1.454,0,0,0-1.47,1.162,2.567,2.567,0,0,0-.041.423v3.062h-1.035Zm3.831-.374c0-.5-.052-1.309-.052-1.309h.922l.041.817h.041a2.866,2.866,0,0,1,1.8-1.044c.787,0,1.626,1.211,1.626,1.211h.072a2.161,2.161,0,0,1,.632-.7,2,2,0,0,1,1.253-.384c.756,0,1.864.473,1.864,2.333v3.16h-1.025v-3.072c0-1.053-.4-1.674-1.253-1.674a1.342,1.342,0,0,0-1.243.9,1.41,1.41,0,0,0-.083.492v3.357h-1.035v-3.259c0-.866-.4-1.487-1.2-1.487a1.276,1.276,0,0,0-1.294.984,1.251,1.251,0,0,0-.083.482v3.278h-1.035v-4.086Zm12.85,1.27c-1.16-.02-2.464.177-2.464,1.231a.91.91,0,0,0,.994.955,1.45,1.45,0,0,0,1.408-.916,1.13,1.13,0,0,0,.062-.315Zm.176,2.816-.083-.65h-.041a2.2,2.2,0,0,1-1.75.768,1.572,1.572,0,0,1-1.76-1.487c0-1.26,1.243-1.949,3.458-1.93v-.108c0-.433-.135-1.2-1.3-1.2a3.1,3.1,0,0,0-1.5.384l-.238-.62a3.818,3.818,0,0,1,1.895-.463,1.916,1.916,0,0,1,2.174,2.117v1.949a6.485,6.485,0,0,0,.1,1.24Zm6.679-.217a3.856,3.856,0,0,1-1.626.325,2.659,2.659,0,0,1-2.827-2.806,2.855,2.855,0,0,1,3.044-2.924,3.493,3.493,0,0,1,1.429.286l-.238.778a2.394,2.394,0,0,0-1.191-.266,1.929,1.929,0,0,0-2,2.077,1.984,1.984,0,0,0,1.967,2.058,2.959,2.959,0,0,0,1.263-.276Zm1.481-5.178,1.253,3.278c.124.364.269.807.362,1.132h.021c.114-.325.228-.748.373-1.152L157,419.551h1.1l-1.553,3.958c-.746,1.9-1.253,2.875-1.967,3.475a2.787,2.787,0,0,1-1.274.65l-.259-.847a2.721,2.721,0,0,0,.911-.492,3.146,3.146,0,0,0,.87-1.122.656.656,0,0,0,.083-.246.729.729,0,0,0-.072-.256l-2.112-5.119Zm-10.054-9.215a1.793,1.793,0,0,1-.062.473,1.736,1.736,0,0,1-1.667,1.093c-.818,0-1.222-.364-1.222-1.132,0-1.181,1.377-1.516,2.951-1.506Zm2.4-2.028c0-1.949-.891-3.662-3.924-3.662a7.557,7.557,0,0,0-3.458.768l.5,1.565a5.308,5.308,0,0,1,2.527-.66c1.532-.01,1.781.807,1.781,1.329v.118c-3.345,0-5.457,1.073-5.457,3.268a2.7,2.7,0,0,0,2.951,2.6,3.419,3.419,0,0,0,2.682-1.112h.062s.383,1.487,2.485.916a12.429,12.429,0,0,1-.145-2.067ZM96,401.9c0,.1,2.154,8.457,2.5,9.815.393,1.585,1.118,2.166,3.2,1.772l1.346-5.178c.342-1.29.57-2.205.787-3.475h.041a34.662,34.662,0,0,0,.652,3.475s.549,2.353.828,3.593,1.056,2.008,3.1,1.585l3.2-11.587h-2.558l-1.108,5.031c-.3,1.467-.57,2.619-.777,3.958h-.031c-.2-1.329-.435-2.432-.735-3.859l-1.149-5.129h-2.661l-1.222,4.972c-.342,1.506-.673,2.727-.88,4.017h-.031c-.217-1.211-.5-2.747-.808-4.213,0,0-.725-3.554-.984-4.775Zm20.3,8.437a1.793,1.793,0,0,1-.062.473,1.736,1.736,0,0,1-1.667,1.093c-.818,0-1.232-.364-1.232-1.132,0-1.181,1.388-1.516,2.961-1.506Zm2.4-2.028c0-1.949-.891-3.662-3.924-3.662a7.557,7.557,0,0,0-3.458.768l.5,1.565a5.3,5.3,0,0,1,2.516-.66c1.543-.01,1.791.807,1.791,1.329v.118c-3.345,0-5.467,1.073-5.467,3.268a2.7,2.7,0,0,0,2.951,2.6,3.442,3.442,0,0,0,2.692-1.112h.062s.383,1.487,2.485.916a12.433,12.433,0,0,1-.145-2.067Zm3.779,2.737v-8.988h-2.4v11.449h2.4M153.6,401.9v8.5a3.521,3.521,0,0,0,.725,2.51,2.605,2.605,0,0,0,1.988.719,5.374,5.374,0,0,0,1.76-.246l-.031-1.821a3.887,3.887,0,0,1-.922.1c-.828,0-1.108-.5-1.108-1.555v-3.3h2.061v-2.126h-2.061V401.9Zm-6.358,2.934v8.673h2.578v-4.44a3.094,3.094,0,0,1,.052-.64,1.881,1.881,0,0,1,1.978-1.526,3.913,3.913,0,0,1,.725.069V404.7a2.46,2.46,0,0,0-.559-.049,2.62,2.62,0,0,0-2.433,1.831h-.1v-1.644Zm-23.391,0v8.673h2.413v-5.07a2.078,2.078,0,0,1,.114-.709,1.672,1.672,0,0,1,1.512-1.1c.994,0,1.47.8,1.47,1.959v4.922h2.578v-5.129a2.2,2.2,0,0,1,.1-.7,1.56,1.56,0,0,1,1.491-1.053c1.015,0,1.5.788,1.5,2.146v4.735h2.4v-5.316c0-2.491-1.429-3.475-3.034-3.475a3.623,3.623,0,0,0-1.791.433,3.82,3.82,0,0,0-1.149.994h-.031a2.622,2.622,0,0,0-2.5-1.428,2.927,2.927,0,0,0-2.64,1.27h-.031v-1.152Z" transform="translate(0 -36.934)" fill="#0971ce"/>
  </g>
</svg>
