<svg xmlns="http://www.w3.org/2000/svg" width="78.858" height="78.858" viewBox="0 0 78.858 78.858">
  <path id="Union_2" data-name="Union 2" d="M-795.036,38.464-803.5,30H-816a5,5,0,0,1-5-5V12.5l-8.464-8.464a5,5,0,0,1,0-7.071L-821-11.5V-24a5,5,0,0,1,5-5h12.5l8.465-8.465a5,5,0,0,1,7.071,0L-779.5-29H-767a5,5,0,0,1,5,5v12.5l8.464,8.465a5,5,0,0,1,0,7.071L-762,12.5V25a5,5,0,0,1-5,5h-12.5l-8.464,8.464a4.985,4.985,0,0,1-3.536,1.465A4.984,4.984,0,0,1-795.036,38.464Z" transform="translate(830.929 38.929)" fill="#fff"/>
</svg>
