<svg id="Group_1324" data-name="Group 1324" xmlns="http://www.w3.org/2000/svg" width="20.024" height="19.033" viewBox="0 0 20.024 19.033">
  <g id="Group_1297" data-name="Group 1297">
    <path id="Path_3193" data-name="Path 3193" d="M19.688,21.131,10.7,12.945a1.022,1.022,0,0,0-1.383,0L.336,21.131a1.027,1.027,0,0,0,.692,1.786H2.463v8.2a.589.589,0,0,0,.589.589H7.976a.589.589,0,0,0,.589-.589v-4.98h2.894v4.98a.589.589,0,0,0,.589.589h4.924a.589.589,0,0,0,.589-.589v-8.2H19a1.027,1.027,0,0,0,.691-1.786Z" transform="translate(0 -12.675)" fill="#f42072"/>
  </g>
</svg>
