<svg xmlns="http://www.w3.org/2000/svg" width="22.737" height="24.804" viewBox="0 0 22.737 24.804">
  <g id="notification" transform="translate(0.001)">
    <path id="Path_3567" data-name="Path 3567" d="M138.762,451.1a3.882,3.882,0,0,0,3.8-3.1h-7.594a3.882,3.882,0,0,0,3.8,3.1Zm0,0" transform="translate(-128.428 -426.297)" fill="#686868"/>
    <path id="Path_3568" data-name="Path 3568" d="M17.581,53h-.012a7.243,7.243,0,0,1-7.234-7.234,7.17,7.17,0,0,1,.691-3.065c-.227-.022-.458-.035-.691-.035A7.234,7.234,0,0,0,3.1,49.9v2.881a6.93,6.93,0,0,1-2.468,5.3,1.808,1.808,0,0,0-.568,1.856A1.9,1.9,0,0,0,1.922,61.27h16.82a1.894,1.894,0,0,0,1.889-1.433,1.812,1.812,0,0,0-.617-1.769A6.877,6.877,0,0,1,17.581,53Zm0,0" transform="translate(0 -40.601)" fill="#686868"/>
    <path id="Path_3569" data-name="Path 3569" d="M266.347,5.167A5.167,5.167,0,1,1,261.179,0,5.167,5.167,0,0,1,266.347,5.167Zm0,0" transform="translate(-243.611)" fill="#686868"/>
  </g>
</svg>
