<svg xmlns="http://www.w3.org/2000/svg" width="26.173" height="26.118" viewBox="0 0 26.173 26.118">
  <g id="Page-1" transform="translate(0 0.017)">
    <g id="_006---Family-Tree" data-name="006---Family-Tree" transform="translate(0 -0.017)">
      <path id="Shape" d="M43.271,30a3.266,3.266,0,0,0-2.829,4.907,3.243,3.243,0,0,1,1.2-1.2A1.85,1.85,0,0,1,41.4,32.8a1.869,1.869,0,1,1,3.739,0,1.85,1.85,0,0,1-.244.905,3.243,3.243,0,0,1,1.2,1.2A3.266,3.266,0,0,0,43.271,30Z" transform="translate(-21.304 -16.438)" fill="#686868"/>
      <path id="Shape-2" data-name="Shape" d="M2.336,20.728a3.252,3.252,0,0,0,4.36,0,2.323,2.323,0,0,0-1.235-1.3,1.813,1.813,0,0,1-1.889,0A2.323,2.323,0,0,0,2.336,20.728Z" transform="translate(-1.244 -10.809)" fill="#686868"/>
      <path id="Shape-3" data-name="Shape" d="M23.336,11.728a3.252,3.252,0,0,0,4.36,0,2.323,2.323,0,0,0-1.235-1.3,1.813,1.813,0,0,1-1.889,0A2.323,2.323,0,0,0,23.336,11.728Z" transform="translate(-12.429 -6.016)" fill="#686868"/>
      <circle id="Oval" cx="0.935" cy="0.935" r="0.935" transform="translate(12.152 1.878)" fill="#686868"/>
      <path id="Shape-4" data-name="Shape" d="M44.336,20.728a3.252,3.252,0,0,0,4.36,0,2.323,2.323,0,0,0-1.235-1.3,1.813,1.813,0,0,1-1.889,0A2.323,2.323,0,0,0,44.336,20.728Z" transform="translate(-23.614 -10.809)" fill="#686868"/>
      <path id="Shape-5" data-name="Shape" d="M1.646,13.7a1.85,1.85,0,0,1-.244-.905,1.869,1.869,0,1,1,3.739,0A1.85,1.85,0,0,1,4.9,13.7a3.243,3.243,0,0,1,1.2,1.2,3.271,3.271,0,1,0-5.659,0A3.243,3.243,0,0,1,1.646,13.7Z" transform="translate(0 -5.776)" fill="#686868"/>
      <circle id="Oval-2" data-name="Oval" cx="0.935" cy="0.935" r="0.935" transform="translate(21.032 15.431)" fill="#686868"/>
      <circle id="Oval-3" data-name="Oval" cx="0.935" cy="0.935" r="0.935" transform="translate(2.337 6.084)" fill="#686868"/>
      <path id="Shape-6" data-name="Shape" d="M45.46,39.432a1.813,1.813,0,0,1-1.889,0,2.323,2.323,0,0,0-1.235,1.3,3.252,3.252,0,0,0,4.36,0A2.323,2.323,0,0,0,45.46,39.432Z" transform="translate(-22.549 -21.462)" fill="#686868"/>
      <path id="Shape-7" data-name="Shape" d="M14.439,19.946c1.521.785,2.957,1.526,4.253,2.357a3.241,3.241,0,0,1,.82.7,1.6,1.6,0,0,1,.115,1.879,1.693,1.693,0,0,1-1.246.748,3.889,3.889,0,0,1-.479.029,6.947,6.947,0,0,1-2.254-.454,4.172,4.172,0,0,1,.138,1.06v.016c3.685.165,3.739,2.229,3.739,2.321v3.739a2.253,2.253,0,0,1-2.337,2.337,1.809,1.809,0,0,0-1.512.768c1.291-.216,3.561-.475,4.787.1,1.226-.575,3.488-.32,4.779-.1a1.806,1.806,0,0,0-1.511-.768A2.253,2.253,0,0,1,21.4,32.339V28.6c0-.093.055-2.156,3.739-2.321v-.016a4.177,4.177,0,0,1,.14-1.06,6.935,6.935,0,0,1-2.255.454,4.006,4.006,0,0,1-.48-.028,1.693,1.693,0,0,1-1.244-.748A1.6,1.6,0,0,1,21.413,23a3.235,3.235,0,0,1,.819-.7c1.294-.831,2.73-1.572,4.251-2.357l.593-.308a4.207,4.207,0,0,1-.629-.99c-1.242.874-3.052,2-4.117,2a1.025,1.025,0,0,1-.815-.388c-.561-.681-.467-2.228-.283-3.425a4.044,4.044,0,0,1-1.542,0c.183,1.2.277,2.744-.283,3.425a1.025,1.025,0,0,1-.816.388c-1.064,0-2.874-1.131-4.117-2.006a4.206,4.206,0,0,1-.629.99Z" transform="translate(-7.375 -9.429)" fill="#686868"/>
      <path id="Shape-8" data-name="Shape" d="M45.271,10a3.266,3.266,0,0,0-2.829,4.907,3.243,3.243,0,0,1,1.2-1.2A1.85,1.85,0,0,1,43.4,12.8a1.869,1.869,0,0,1,3.739,0,1.85,1.85,0,0,1-.244.905,3.243,3.243,0,0,1,1.2,1.2A3.266,3.266,0,0,0,45.271,10Z" transform="translate(-22.37 -5.786)" fill="#686868"/>
      <path id="Shape-9" data-name="Shape" d="M22.646,4.7A1.85,1.85,0,0,1,22.4,3.8a1.869,1.869,0,0,1,3.739,0A1.85,1.85,0,0,1,25.9,4.7a3.243,3.243,0,0,1,1.2,1.2,3.272,3.272,0,1,0-5.659,0A3.243,3.243,0,0,1,22.646,4.7Z" transform="translate(-11.185 -0.983)" fill="#686868"/>
      <circle id="Oval-4" data-name="Oval" cx="0.935" cy="0.935" r="0.935" transform="translate(21.967 6.084)" fill="#686868"/>
      <path id="Shape-10" data-name="Shape" d="M3.4,32.795a1.869,1.869,0,1,1,3.739,0A1.85,1.85,0,0,1,6.9,33.7a3.243,3.243,0,0,1,1.2,1.2,3.271,3.271,0,1,0-5.659,0,3.243,3.243,0,0,1,1.2-1.2A1.85,1.85,0,0,1,3.4,32.795Z" transform="translate(-1.065 -16.429)" fill="#686868"/>
      <circle id="Oval-5" data-name="Oval" cx="0.935" cy="0.935" r="0.935" transform="translate(3.272 15.431)" fill="#686868"/>
      <path id="Shape-11" data-name="Shape" d="M8.7,40.728a2.323,2.323,0,0,0-1.235-1.3,1.813,1.813,0,0,1-1.889,0,2.323,2.323,0,0,0-1.235,1.3A3.252,3.252,0,0,0,8.7,40.728Z" transform="translate(-2.309 -21.462)" fill="#686868"/>
    </g>
  </g>
</svg>
